<svg width="63" height="60" viewBox="0 0 63 60" fill="none" xmlns="http://www.w3.org/2000/svg">
<rect width="63" height="60" rx="10" fill="#ED1D24"/>
<g clip-path="url(#clip0_368_127931)">
<path d="M33.244 14.0252C33.1409 14.0484 33.0357 14.0612 32.93 14.0632C32.1042 14.1694 31.294 14.3734 30.5165 14.671L30.2151 14.7951C29.7805 14.9714 29.3575 15.1753 28.9488 15.4054C28.8788 15.4502 28.803 15.4851 28.7234 15.5092C28.6601 15.5244 28.6094 15.5548 28.6094 15.5725C28.6094 15.5903 28.574 15.6156 28.536 15.6333C28.4629 15.6628 28.3933 15.7001 28.3283 15.7447C28.2552 15.7927 28.1791 15.8359 28.1004 15.8739C28.0145 15.9139 27.9337 15.9641 27.8598 16.0233C27.8093 16.0671 27.7531 16.1037 27.6927 16.1322C27.0355 16.537 26.4099 16.9907 25.8211 17.4896C25.4921 17.785 25.1888 18.1078 24.9144 18.4545C24.8917 18.5025 24.8609 18.5462 24.8233 18.5837C24.5877 18.8965 24.376 19.2267 24.1901 19.5714C24.1446 19.6777 24.0483 19.8677 23.9875 19.9968C23.7744 20.4467 23.6802 20.9437 23.714 21.4404C23.7078 21.6628 23.7498 21.8839 23.8373 22.0885C23.9247 22.2931 24.0555 22.4764 24.2205 22.6256C24.4078 22.8145 24.6313 22.9636 24.8776 23.0642C25.1239 23.1647 25.388 23.2145 25.654 23.2106C26.0607 23.2366 26.4689 23.1903 26.8594 23.0738C26.9987 23.0333 27.1887 22.9877 27.2799 22.9599C27.3613 22.9424 27.4404 22.9152 27.5154 22.8788C27.6141 22.8282 28.1688 22.5775 28.1941 22.5775C28.8253 22.2467 29.4344 21.8754 30.0175 21.4657C30.5696 21.0959 31.0559 20.7743 31.0989 20.7515C31.142 20.7287 31.4003 20.5717 31.6789 20.4046C31.9575 20.2374 32.3019 20.0424 32.4387 19.9715L32.8895 19.7335C32.9984 19.6828 33.1984 19.5891 33.3403 19.5359C33.4821 19.4827 33.6594 19.4068 33.7277 19.3764C33.7961 19.346 33.905 19.3004 33.9633 19.2751C34.2606 19.1813 34.5687 19.1259 34.88 19.1105C35.2329 19.0637 35.591 19.1423 35.8918 19.3325C36.1926 19.5227 36.4172 19.8125 36.5262 20.1513C36.608 20.4227 36.6356 20.7076 36.6072 20.9896C36.6358 21.4554 36.5633 21.922 36.3945 22.3571L36.2856 22.6104C35.9731 23.2949 35.5822 23.9408 35.1206 24.5351C34.4623 25.3633 33.7262 26.1265 32.9224 26.8144L32.3424 27.2955C32.1601 27.445 31.9499 27.5944 31.7194 27.7514C31.6232 27.8096 31.4662 27.9135 31.375 27.9819C30.9336 28.2564 30.4741 28.501 29.9998 28.7138L29.6478 28.8682C29.5775 28.9057 29.5012 28.9306 29.4224 28.9417C29.3481 28.9489 29.275 28.9651 29.2046 28.9898C29.1426 29.0145 29.0756 29.0237 29.0093 29.0167C28.943 29.0096 28.8794 28.9865 28.824 28.9494C28.7686 28.9122 28.7231 28.8621 28.6915 28.8034C28.6598 28.7447 28.643 28.6791 28.6424 28.6125C28.6424 28.2604 28.8095 28.035 29.8656 26.9866C31.0078 25.8545 31.1319 25.6849 31.1319 25.2569C31.1319 24.8289 30.9217 24.5123 30.4481 24.2717C30.2503 24.1662 30.0247 24.1246 29.8023 24.1527C29.4605 24.1339 29.1213 24.2224 28.8323 24.4059C28.7639 24.449 28.655 24.5047 28.5968 24.5351C28.5511 24.5567 28.5078 24.583 28.4676 24.6136C28.4676 24.6136 28.3688 24.6896 28.2726 24.763C27.9578 25.024 27.6717 25.3177 27.4191 25.6393C27.2176 25.9199 27.0405 26.2173 26.8898 26.5282C26.638 27.0457 26.49 27.6075 26.4542 28.1819C26.4542 29.1063 26.9354 29.8458 27.68 30.056C28.1609 30.1171 28.6477 30.1171 29.1286 30.056C29.5261 29.9671 29.9163 29.8486 30.2961 29.7014C30.326 29.6785 30.3623 29.6652 30.4 29.6634C31.0319 29.4007 31.6424 29.0891 32.2259 28.7315C32.3247 28.6656 32.4361 28.5922 32.4792 28.5669C32.5222 28.5415 32.7324 28.4225 32.93 28.2934C33.1275 28.1642 33.3175 28.0401 33.3301 28.0401C33.433 27.9559 33.5404 27.8773 33.6518 27.8046L34.0823 27.5083C34.1557 27.4551 34.3558 27.3006 34.5331 27.1588C35.5179 26.3964 36.4172 25.5294 37.2151 24.5731C37.3088 24.4591 37.3949 24.3502 37.4075 24.3376C37.5969 24.0936 37.7736 23.84 37.9368 23.5778C38.0472 23.4085 38.1486 23.2335 38.2407 23.0536C38.3218 22.8991 38.4357 22.6889 38.494 22.58C38.5522 22.4711 38.6687 22.1951 38.7624 21.957C38.8561 21.7189 38.9448 21.4885 38.96 21.4505C39.1371 20.9116 39.2667 20.3582 39.3475 19.7968C39.4318 19.0414 39.3795 18.2771 39.193 17.5403C39.1265 17.3258 39.0418 17.1174 38.9397 16.9173C38.6012 16.1803 38.0777 15.5434 37.4202 15.0686C37.3316 15.0119 37.247 14.9493 37.1669 14.8812C36.732 14.612 36.2637 14.4009 35.774 14.2531C35.5077 14.1765 35.2371 14.1156 34.9636 14.0708C34.6876 14.0277 34.1887 13.9998 33.7961 13.9998H33.596C33.4781 13.9962 33.3602 14.0047 33.244 14.0252ZM25.231 37.4864C25.0891 37.5214 24.9454 37.5484 24.8005 37.5674C24.6384 37.5877 24.337 37.6307 24.1344 37.6611C23.9989 37.675 23.865 37.7013 23.7343 37.7396C23.6963 37.7726 23.6912 45.0839 23.7343 45.1371C24.033 45.1771 24.3347 45.1906 24.6359 45.1776C25.5121 45.1776 25.5172 45.1776 25.54 45.0789C25.54 45.0257 25.5552 43.2909 25.54 41.2244C25.54 37.499 25.54 37.4636 25.4412 37.456C25.3683 37.454 25.2955 37.4643 25.226 37.4864H25.231ZM24.1775 34.3841C23.9452 34.474 23.7469 34.6343 23.6102 34.8424C23.4734 35.0526 23.4684 35.0704 23.4684 35.5085V35.9643L23.633 36.1872C23.7718 36.4085 23.9873 36.5708 24.2383 36.6431C24.4206 36.706 24.6155 36.7241 24.8063 36.6959C24.9972 36.6676 25.1785 36.5939 25.3349 36.481C25.7932 36.1872 25.9528 35.4401 25.6742 34.8906C25.5787 34.6979 25.4231 34.5415 25.231 34.4448C24.9013 34.2877 24.5231 34.2659 24.1775 34.3841ZM39.9046 38.7754C40.0844 38.821 40.4618 39.1275 40.4618 39.2212C40.4743 39.2801 40.4966 39.3366 40.5276 39.3883C40.6264 39.5833 40.7024 40.219 40.634 40.3C40.5656 40.381 40.4238 40.3633 39.5551 40.3633H38.5396L38.5143 40.257C38.4904 39.8939 38.5788 39.5322 38.7675 39.2212C38.9084 39.0018 39.1231 38.8401 39.3728 38.7653C39.4703 38.7332 39.5717 38.7145 39.6742 38.7096C39.6995 38.7096 39.8033 38.7501 39.9021 38.7754H39.9046ZM38.9802 37.4079C38.8778 37.4191 38.7778 37.4465 38.6839 37.4889C38.6549 37.5137 38.6183 37.528 38.5801 37.5294C38.4617 37.5605 38.3476 37.6065 38.2407 37.6662C37.8208 37.9101 37.4608 38.245 37.1872 38.6463C37.0037 38.9383 36.8557 39.2511 36.7465 39.5782C36.7302 39.6508 36.7082 39.7219 36.6807 39.791C36.6655 39.8391 36.6123 40.024 36.5693 40.2012C36.4554 40.9915 36.4554 41.794 36.5693 42.5843C36.6528 42.9366 36.7804 43.277 36.9491 43.5973C36.9548 43.598 36.9603 43.5997 36.9653 43.6025C36.9703 43.6052 36.9747 43.609 36.9782 43.6135C36.9817 43.6179 36.9843 43.6231 36.9859 43.6286C36.9874 43.6341 36.9878 43.6398 36.9871 43.6455C36.9871 43.8075 37.4936 44.4559 37.8583 44.7496C38.0981 44.9177 38.3597 45.0524 38.6358 45.1498C39.0289 45.2663 39.4344 45.336 39.8438 45.3574C40.4542 45.3574 41.5533 45.1042 41.918 44.8509C41.9977 44.7999 42.0826 44.7575 42.1713 44.7243C42.3365 44.6624 42.4879 44.5686 42.617 44.4483C42.5041 44.0783 42.3332 43.7287 42.1105 43.4125C42.0487 43.4274 41.9914 43.4569 41.9433 43.4986C41.8956 43.5407 41.8382 43.5702 41.7762 43.5847C41.7245 43.5926 41.6757 43.6135 41.6344 43.6455C41.4698 43.7218 41.3006 43.7877 41.1278 43.843C40.8056 43.9678 40.4591 44.0172 40.1148 43.9873C39.583 43.9873 39.4918 43.9873 39.3196 43.8987C38.7194 43.61 38.375 42.8857 38.375 41.9056C38.3665 41.7749 38.3665 41.6438 38.375 41.5131C38.375 41.5131 39.3323 41.4928 40.4896 41.4802L42.5942 41.4574V41.0268C42.5689 40.186 42.3409 39.0515 42.151 38.7932C42.1333 38.7678 42.075 38.6615 42.0193 38.5399C41.7338 38.0382 41.2686 37.6635 40.7176 37.4914C40.1397 37.3373 39.5362 37.3037 38.9448 37.3927L38.9802 37.4079ZM29.6351 37.4079C28.7995 37.5987 28.0307 38.0107 27.409 38.6007L27.2292 38.7653V45.1118C27.2292 45.1802 27.2925 45.1852 28.1662 45.1751H29.0982L29.1109 42.1817V39.1908L29.2755 39.0616C29.4316 38.9278 29.6147 38.8293 29.8124 38.7729C30.1772 38.658 30.5608 38.615 30.9419 38.6463C31.0609 38.6644 31.1816 38.6686 31.3015 38.6589C31.3806 38.5621 31.4407 38.4513 31.4788 38.3322C31.5421 38.16 31.646 37.9372 31.6966 37.8257C31.8384 37.5548 31.8258 37.4864 31.6358 37.4433L31.2661 37.3572C30.728 37.2862 30.1822 37.2981 29.6478 37.3927L29.6351 37.4079ZM20.1811 41.4396C20.2228 41.8256 20.2372 42.2141 20.2242 42.6021C20.2242 43.8227 20.2419 43.7468 19.9228 43.9139C19.7092 43.9922 19.4803 44.0199 19.2542 43.9949H18.7325L18.5198 43.8481C18.4048 43.7722 18.303 43.6781 18.2184 43.5695C18.0616 43.3099 17.982 43.0111 17.9887 42.708C17.9954 42.4048 18.0883 42.1099 18.2564 41.8575C18.4121 41.6951 18.5979 41.5643 18.8034 41.4726C18.8449 41.4724 18.8851 41.4581 18.9174 41.432C18.9781 41.3687 19.1706 41.351 19.6771 41.3586C20.0368 41.3586 20.1482 41.3763 20.1836 41.4295L20.1811 41.4396ZM18.9148 37.299C18.4612 37.3605 18.015 37.4674 17.5827 37.6181C17.5346 37.6383 17.4485 37.6687 17.3877 37.6865C17.0995 37.7867 16.8254 37.9237 16.5722 38.0942C16.5931 38.1706 16.6202 38.2451 16.6533 38.317C16.7675 38.6098 16.9056 38.8927 17.0661 39.1629C17.1008 39.1555 17.1341 39.1427 17.1648 39.1249C17.3894 39.0127 17.6222 38.9179 17.8613 38.8413C17.9905 38.8033 18.1449 38.7526 18.2057 38.7298C18.5905 38.6343 18.9891 38.6069 19.3834 38.6488C19.9658 38.7425 20.1811 39.0135 20.2166 39.7049C20.2343 40.0873 20.2343 40.0974 20.1355 40.1227C19.8434 40.1498 19.55 40.1599 19.2567 40.1531C18.2437 40.1531 17.9221 40.2114 17.2611 40.5355C16.9712 40.6825 16.7154 40.8888 16.5104 41.141C16.3053 41.3931 16.1556 41.6856 16.0708 41.9993C15.9685 42.4539 15.9772 42.9265 16.0961 43.377C16.481 44.547 17.4029 45.2283 18.6818 45.2967C19.8037 45.3753 20.9171 45.0541 21.8247 44.39L22.1033 44.1621L22.116 41.8828C22.1286 39.249 22.116 39.1578 21.807 38.5146C21.5862 38.1433 21.2707 37.8374 20.8928 37.6282C20.756 37.5649 20.604 37.499 20.5559 37.4788C20.0255 37.3141 19.4683 37.2531 18.9148 37.299ZM33.8037 35.3591C32.8489 35.5009 32.5374 35.5617 32.4918 35.6123C32.4463 35.663 32.4615 37.0128 32.4615 39.634C32.4817 43.296 32.4893 43.6252 32.5602 43.8025C32.6487 44.0983 32.8098 44.3673 33.0287 44.585C33.4795 45.0358 34.0418 45.2207 34.9991 45.2207C35.5233 45.2207 35.5968 45.2207 35.6322 45.1422C35.6828 44.8069 35.693 44.4668 35.6626 44.1292C35.6347 44.0203 35.6195 44.0177 35.2954 43.9899C35.1328 43.9969 34.9714 43.959 34.8289 43.8804C34.6864 43.8018 34.5683 43.6855 34.4875 43.5442L34.3811 43.3517L34.3659 41.1256C34.3659 39.4668 34.3659 38.8818 34.4065 38.8463C34.447 38.8109 34.5913 38.7881 35.0497 38.7881C35.7588 38.7881 35.6981 38.8565 35.6829 38.0283V37.4687L35.0801 37.4484C34.8612 37.446 34.6428 37.4274 34.4267 37.3927C34.3837 37.3674 34.371 37.104 34.371 36.3265V35.2932H34.2773C34.2216 35.2932 34.024 35.3236 33.8138 35.354L33.8037 35.3591ZM45.7067 35.273C45.7067 35.273 45.4965 35.3211 45.261 35.3591C45.0254 35.3971 44.638 35.4578 44.4024 35.5009L43.9719 35.5743V39.5276C43.9719 43.8329 43.9719 43.6379 44.2252 44.1748C44.3187 44.3687 44.4515 44.5412 44.6152 44.6813C45.071 45.0991 45.4965 45.2283 46.4032 45.2308C47.1756 45.2308 47.1452 45.2612 47.13 44.5496V44.0431L46.7982 44.0127C46.2107 43.962 45.927 43.724 45.8612 43.2352C45.8435 43.0883 45.8308 41.2497 45.8359 39.1528C45.8359 35.5237 45.8359 35.1742 45.727 35.278L45.7067 35.273Z" fill="white"/>
</g>
<defs>
<clipPath id="clip0_368_127931">
<rect width="31.12" height="31.35" fill="white" transform="translate(16 13.9999)"/>
</clipPath>
</defs>
</svg>
