<svg width="74" height="71" viewBox="0 0 74 71" fill="none" xmlns="http://www.w3.org/2000/svg">
<g opacity="0.1" clip-path="url(#clip0_4381_99414)">
<path fill-rule="evenodd" clip-rule="evenodd" d="M59.6972 29.6171L70.4847 43.1522C71.6828 44.6555 71.9836 46.6853 71.2727 48.4715C66.5973 60.22 56.0575 68.6203 43.5619 70.557C41.6623 70.8514 39.7507 70.1055 38.5525 68.6022L27.765 55.067C22.6588 48.6603 20.1057 45.4568 19.8093 41.9302C19.6809 40.4035 19.8546 38.8665 20.3202 37.4069C21.3959 34.0353 24.5993 31.4822 31.0061 26.376C37.4128 21.2698 40.6163 18.7166 44.1429 18.4202C45.6695 18.292 47.2065 18.4656 48.6663 18.9312C52.0378 20.0069 54.591 23.2103 59.6972 29.6171ZM28.2537 36.9615C27.3089 37.7145 27.1534 39.0908 27.9064 40.0355C28.6594 40.9803 30.0357 41.1358 30.9805 40.3828L44.6657 29.4757C45.6104 28.7227 45.7659 27.3464 45.0129 26.4016C44.26 25.4569 42.8836 25.3014 41.9389 26.0544L28.2537 36.9615Z" fill="#5136C1"/>
<path fill-rule="evenodd" clip-rule="evenodd" d="M34.6939 70.1851C35.8709 70.4581 36.6037 71.6334 36.3307 72.8102C35.8487 74.8899 36.1628 76.1337 36.7209 76.8339C37.2053 77.4418 38.1166 77.9575 39.7564 78.0834C41.4006 78.2098 43.5532 77.917 46.1102 77.1322C49.7375 76.0188 53.9529 73.9854 58.2937 71.1438L57.4588 70.0962C56.9238 69.425 56.8308 68.5029 57.221 67.7383C57.6112 66.9738 58.4125 66.5083 59.27 66.5477L65.0772 66.8145C65.7072 66.8436 66.2941 67.1429 66.6873 67.6363C67.0805 68.1297 67.2414 68.7686 67.1292 69.3892L66.0938 75.1096C65.9409 75.9543 65.3084 76.6315 64.4761 76.8413C63.6437 77.0511 62.7657 76.7548 62.2307 76.0835L61.0316 74.579C56.2869 77.7243 51.576 80.031 47.3939 81.3147C44.528 82.1942 41.7979 82.6283 39.4211 82.4456C37.04 82.2625 34.7917 81.4328 33.2996 79.5607C31.5722 77.3934 31.4326 74.5664 32.069 71.8222C32.3417 70.6451 33.5171 69.9124 34.6939 70.1851ZM72.8879 39.7445C72.8845 38.5366 73.8609 37.5543 75.0693 37.5509C77.8862 37.5429 80.6107 38.3094 82.3382 40.4769C84.8434 43.6201 84.0561 48.0986 82.1676 52.1801C80.1925 56.4486 76.6271 61.1972 71.9822 65.7366C71.1182 66.581 69.7334 66.5651 68.8889 65.7011C68.0446 64.837 68.0604 63.4519 68.9245 62.6077C73.3224 58.3096 76.5119 53.9845 78.197 50.3428C79.9686 46.514 79.7469 44.2451 78.9169 43.2036C78.3588 42.5034 77.2164 41.9198 75.0817 41.9257C73.8735 41.9293 72.8915 40.9526 72.8879 39.7445Z" fill="#5136C1"/>
</g>
<defs>
<clipPath id="clip0_4381_99414">
<rect width="70" height="70" fill="white" transform="translate(0 43.6285) rotate(-38.5549)"/>
</clipPath>
</defs>
</svg>
