<svg width="64" height="64" viewBox="0 0 64 64" fill="none" xmlns="http://www.w3.org/2000/svg">
<circle cx="32" cy="32" r="32" fill="#ED1D24"/>
<g clip-path="url(#clip0_434_48866)">
<path d="M33.4383 6.03425C33.2982 6.06588 33.1552 6.08318 33.0115 6.08589C31.8891 6.2303 30.7879 6.50763 29.731 6.91204L29.3214 7.08071C28.7306 7.32047 28.1558 7.59756 27.6002 7.9103C27.5051 7.9712 27.402 8.01869 27.2939 8.05143C27.2078 8.07209 27.139 8.11339 27.139 8.13749C27.139 8.16159 27.0908 8.19601 27.0391 8.22011C26.9398 8.26013 26.8451 8.31092 26.7569 8.37157C26.6575 8.43677 26.554 8.49542 26.4471 8.54712C26.3303 8.60151 26.2205 8.66969 26.12 8.75022C26.0514 8.80973 25.975 8.85953 25.8928 8.89824C24.9997 9.44837 24.1493 10.0651 23.349 10.7433C22.9019 11.1448 22.4896 11.5836 22.1167 12.0548C22.0858 12.12 22.0438 12.1794 21.9927 12.2304C21.6725 12.6556 21.3848 13.1043 21.1322 13.5729C21.0702 13.7174 20.9394 13.9756 20.8568 14.1512C20.5671 14.7626 20.4391 15.4382 20.485 16.1133C20.4766 16.4156 20.5337 16.7162 20.6526 16.9943C20.7714 17.2724 20.9491 17.5214 21.1735 17.7243C21.4281 17.981 21.7318 18.1838 22.0666 18.3204C22.4014 18.457 22.7603 18.5247 23.1218 18.5194C23.6747 18.5548 24.2294 18.4919 24.7603 18.3335C24.9497 18.2785 25.2078 18.2165 25.3318 18.1786C25.4425 18.1549 25.55 18.1179 25.6519 18.0685C25.7861 17.9996 26.54 17.6589 26.5744 17.6589C27.4324 17.2093 28.2603 16.7045 29.0529 16.1477C29.8033 15.6451 30.4642 15.2079 30.5227 15.177C30.5812 15.146 30.9324 14.9326 31.311 14.7054C31.6897 14.4782 32.1578 14.2131 32.3437 14.1167L32.9564 13.7932C33.1044 13.7243 33.3764 13.597 33.5692 13.5247C33.7619 13.4524 34.0029 13.3491 34.0958 13.3078C34.1888 13.2665 34.3368 13.2045 34.416 13.1701C34.8201 13.0426 35.2388 12.9674 35.6621 12.9464C36.1417 12.8828 36.6284 12.9896 37.0373 13.2482C37.4462 13.5067 37.7513 13.9006 37.8995 14.3611C38.0107 14.73 38.0482 15.1172 38.0097 15.5005C38.0486 16.1338 37.9499 16.7679 37.7205 17.3594L37.5725 17.7036C37.1478 18.634 36.6164 19.5119 35.9891 20.3197C35.0943 21.4454 34.0938 22.4829 33.0012 23.4178L32.2129 24.0718C31.965 24.2749 31.6793 24.478 31.3661 24.6914C31.2353 24.7706 31.0219 24.9118 30.8979 25.0047C30.2979 25.3779 29.6735 25.7103 29.0288 25.9995L28.5503 26.2095C28.4548 26.2605 28.3511 26.2943 28.2439 26.3093C28.143 26.3192 28.0436 26.3411 27.9479 26.3747C27.8637 26.4083 27.7726 26.4208 27.6824 26.4113C27.5923 26.4017 27.5058 26.3703 27.4306 26.3198C27.3553 26.2692 27.2935 26.2011 27.2505 26.1213C27.2074 26.0415 27.1845 25.9525 27.1837 25.8618C27.1837 25.3833 27.4109 25.077 28.8463 23.6519C30.3988 22.1132 30.5675 21.8825 30.5675 21.3008C30.5675 20.719 30.2818 20.2888 29.6381 19.9617C29.3692 19.8183 29.0626 19.7618 28.7603 19.8C28.2957 19.7744 27.8347 19.8947 27.4419 20.1442C27.3489 20.2027 27.2009 20.2784 27.1217 20.3197C27.0597 20.3491 27.0008 20.3849 26.9462 20.4265C26.9462 20.4265 26.8119 20.5297 26.6811 20.6295C26.2533 20.9842 25.8644 21.3835 25.5211 21.8206C25.2471 22.202 25.0064 22.6062 24.8016 23.0288C24.4593 23.7322 24.2582 24.4959 24.2096 25.2766C24.2096 26.5331 24.8636 27.5382 25.8756 27.8239C26.5293 27.9069 27.1909 27.9069 27.8446 27.8239C28.3849 27.7031 28.9153 27.542 29.4315 27.342C29.4722 27.3108 29.5214 27.2928 29.5727 27.2904C30.4316 26.9332 31.2614 26.5097 32.0545 26.0236C32.1888 25.9341 32.3403 25.8343 32.3988 25.7999C32.4573 25.7654 32.743 25.6037 33.0115 25.4281C33.28 25.2525 33.5382 25.0839 33.5554 25.0839C33.6953 24.9694 33.8412 24.8626 33.9925 24.7637L34.5777 24.361C34.6776 24.2887 34.9495 24.0787 35.1905 23.886C36.5291 22.8497 37.7514 21.6713 38.8358 20.3714C38.9632 20.2165 39.0802 20.0685 39.0975 20.0512C39.3549 19.7196 39.595 19.3749 39.8169 19.0186C39.9669 18.7884 40.1048 18.5506 40.23 18.306C40.3401 18.096 40.495 17.8103 40.5742 17.6623C40.6534 17.5143 40.8117 17.1391 40.9391 16.8155C41.0664 16.4919 41.1869 16.1787 41.2076 16.127C41.4483 15.3945 41.6245 14.6424 41.7343 13.8792C41.8489 12.8525 41.7778 11.8136 41.5243 10.8121C41.4339 10.5206 41.3187 10.2373 41.18 9.96534C40.7199 8.96356 40.0084 8.09788 39.1147 7.45248C38.9943 7.37552 38.8792 7.29041 38.7704 7.19775C38.1792 6.83195 37.5428 6.54496 36.8772 6.34406C36.5152 6.23988 36.1474 6.15712 35.7757 6.09621C35.4004 6.0377 34.7223 5.99983 34.1888 5.99983H33.9168C33.7566 5.99489 33.5962 6.00642 33.4383 6.03425ZM22.5469 37.9236C22.3541 37.9711 22.1587 38.0079 21.9618 38.0337C21.7415 38.0613 21.3318 38.1198 21.0564 38.1611C20.8723 38.18 20.6902 38.2157 20.5126 38.2678C20.4609 38.3126 20.454 48.2505 20.5126 48.3227C20.9186 48.377 21.3287 48.3955 21.738 48.3778C22.929 48.3778 22.9359 48.3778 22.9669 48.2436C22.9669 48.1713 22.9876 45.8133 22.9669 43.0044C22.9669 37.9408 22.9669 37.8926 22.8327 37.8823C22.7335 37.8796 22.6346 37.8936 22.5401 37.9236H22.5469ZM21.115 33.7068C20.7993 33.8291 20.5297 34.0469 20.3439 34.3298C20.158 34.6156 20.1511 34.6397 20.1511 35.2352V35.8548L20.3749 36.1577C20.5635 36.4585 20.8564 36.6791 21.1976 36.7773C21.4455 36.8628 21.7103 36.8874 21.9697 36.8491C22.2291 36.8107 22.4755 36.7106 22.6881 36.557C23.3111 36.1577 23.528 35.1422 23.1493 34.3953C23.0195 34.1334 22.8081 33.9208 22.5469 33.7894C22.0987 33.5758 21.5848 33.5462 21.115 33.7068ZM42.4916 39.6757C42.736 39.7377 43.2489 40.1542 43.2489 40.2816C43.2659 40.3617 43.2962 40.4385 43.3384 40.5088C43.4726 40.7738 43.5759 41.6378 43.4829 41.748C43.39 41.8581 43.1972 41.834 42.0165 41.834H40.6362L40.6017 41.6895C40.5693 41.196 40.6895 40.7044 40.946 40.2816C41.1374 39.9834 41.4293 39.7636 41.7687 39.6619C41.9012 39.6184 42.039 39.5929 42.1783 39.5862C42.2127 39.5862 42.3539 39.6413 42.4881 39.6757H42.4916ZM41.2351 37.8169C41.0959 37.8322 40.96 37.8694 40.8324 37.927C40.7929 37.9608 40.7431 37.9802 40.6912 37.9821C40.5303 38.0244 40.3753 38.0868 40.23 38.168C39.6592 38.4995 39.1698 38.9547 38.798 39.5002C38.5485 39.897 38.3475 40.3223 38.199 40.7669C38.1768 40.8655 38.1469 40.9622 38.1095 41.0561C38.0889 41.1215 38.0166 41.3728 37.9581 41.6137C37.8033 42.6879 37.8033 43.7787 37.9581 44.8529C38.0716 45.3318 38.2451 45.7944 38.4744 46.2298C38.4821 46.2307 38.4896 46.2331 38.4964 46.2368C38.5031 46.2406 38.5091 46.2457 38.5139 46.2517C38.5187 46.2578 38.5223 46.2648 38.5243 46.2723C38.5264 46.2797 38.527 46.2875 38.526 46.2952C38.526 46.5155 39.2145 47.3968 39.7102 47.7961C40.0361 48.0246 40.3916 48.2075 40.767 48.34C41.3013 48.4984 41.8524 48.5931 42.4089 48.6222C43.2385 48.6222 44.7325 48.278 45.2282 47.9338C45.3366 47.8645 45.4519 47.8068 45.5724 47.7617C45.797 47.6775 46.0028 47.55 46.1782 47.3864C46.0249 46.8836 45.7925 46.4084 45.4898 45.9785C45.4058 45.9988 45.3279 46.039 45.2626 46.0956C45.1977 46.1528 45.1196 46.193 45.0354 46.2126C44.9652 46.2234 44.8989 46.2518 44.8426 46.2952C44.619 46.3989 44.389 46.4886 44.1542 46.5637C43.7162 46.7334 43.2452 46.8005 42.7773 46.7599C42.0544 46.7599 41.9305 46.7599 41.6964 46.6395C40.8806 46.247 40.4124 45.2626 40.4124 43.9304C40.4009 43.7527 40.4009 43.5745 40.4124 43.3968C40.4124 43.3968 41.7136 43.3693 43.2867 43.3521L46.1473 43.3211V42.7359C46.1128 41.5931 45.803 40.0509 45.5449 39.6998C45.5208 39.6654 45.4416 39.5208 45.3659 39.3556C44.9778 38.6736 44.3455 38.1643 43.5965 37.9305C42.811 37.721 41.9908 37.6753 41.1869 37.7962L41.2351 37.8169ZM28.5331 37.8169C27.3974 38.0762 26.3523 38.6362 25.5073 39.4382L25.2629 39.6619V48.2883C25.2629 48.3813 25.349 48.3881 26.5366 48.3744H27.8033L27.8205 44.3056V40.2403L28.0443 40.0647C28.2564 39.8828 28.5053 39.7489 28.774 39.6723C29.2698 39.5161 29.7912 39.4577 30.3093 39.5002C30.471 39.5248 30.6351 39.5306 30.7981 39.5174C30.9055 39.3858 30.9873 39.2351 31.0391 39.0733C31.1251 38.8392 31.2663 38.5363 31.3351 38.3849C31.5279 38.0165 31.5107 37.9236 31.2525 37.8651L30.7499 37.748C30.0186 37.6515 29.2767 37.6677 28.5503 37.7962L28.5331 37.8169ZM15.683 43.297C15.7397 43.8216 15.7592 44.3496 15.7415 44.877C15.7415 46.5362 15.7656 46.4329 15.3319 46.6601C15.0416 46.7665 14.7305 46.8042 14.4232 46.7703H13.714L13.4249 46.5706C13.2687 46.4675 13.1303 46.3396 13.0153 46.192C12.8022 45.8392 12.6939 45.433 12.7031 45.021C12.7122 44.6089 12.8384 44.208 13.0669 43.865C13.2786 43.6442 13.5311 43.4665 13.8104 43.3418C13.8668 43.3416 13.9215 43.3221 13.9653 43.2867C14.0479 43.2006 14.3096 43.1765 14.998 43.1869C15.4868 43.1869 15.6383 43.2109 15.6865 43.2832L15.683 43.297ZM13.9619 37.6689C13.3453 37.7525 12.7388 37.8978 12.1512 38.1026C12.0858 38.1301 11.9688 38.1714 11.8862 38.1955C11.4944 38.3318 11.1219 38.5181 10.7778 38.7497C10.8061 38.8536 10.8429 38.9549 10.8879 39.0527C11.0432 39.4506 11.2309 39.8351 11.449 40.2024C11.4962 40.1923 11.5415 40.1749 11.5833 40.1508C11.8885 39.9982 12.205 39.8694 12.5299 39.7652C12.7055 39.7136 12.9154 39.6447 12.998 39.6138C13.5211 39.4839 14.0628 39.4466 14.5987 39.5036C15.3904 39.631 15.683 39.9993 15.7312 40.939C15.7553 41.4588 15.7553 41.4726 15.6211 41.507C15.224 41.5438 14.8252 41.5576 14.4266 41.5483C13.0497 41.5483 12.6125 41.6275 11.7141 42.0681C11.3201 42.2679 10.9724 42.5483 10.6937 42.891C10.415 43.2338 10.2114 43.6313 10.0962 44.0577C9.95718 44.6757 9.96899 45.318 10.1306 45.9304C10.6538 47.5207 11.9068 48.4467 13.6452 48.5396C15.17 48.6465 16.6835 48.2099 17.9171 47.3073L18.2957 46.9975L18.3129 43.8994C18.3301 40.3194 18.3129 40.1955 17.893 39.3212C17.5929 38.8165 17.164 38.4007 16.6503 38.1164C16.4644 38.0303 16.2579 37.9408 16.1925 37.9133C15.4715 37.6894 14.7142 37.6065 13.9619 37.6689ZM34.1991 35.0321C32.9013 35.2248 32.4779 35.3075 32.416 35.3763C32.354 35.4451 32.3747 37.2799 32.3747 40.8427C32.4022 45.8202 32.4125 46.2677 32.5089 46.5087C32.6292 46.9108 32.8481 47.2764 33.1457 47.5723C33.7585 48.185 34.5227 48.4363 35.8238 48.4363C36.5364 48.4363 36.6362 48.4363 36.6844 48.3296C36.7532 47.874 36.7671 47.4117 36.7257 46.9527C36.6879 46.8047 36.6672 46.8013 36.2266 46.7634C36.0056 46.7729 35.7862 46.7215 35.5925 46.6146C35.3988 46.5077 35.2383 46.3496 35.1285 46.1575L34.9839 45.8959L34.9633 42.8702C34.9633 40.6155 34.9633 39.8203 35.0184 39.7721C35.0734 39.7239 35.2696 39.6929 35.8927 39.6929C36.8565 39.6929 36.7739 39.7859 36.7533 38.6602V37.8995L35.934 37.872C35.6365 37.8688 35.3396 37.8435 35.0459 37.7962C34.9874 37.7618 34.9702 37.4038 34.9702 36.347V34.9426H34.8428C34.7671 34.9426 34.4986 34.9839 34.2129 35.0252L34.1991 35.0321ZM50.3778 34.915C50.3778 34.915 50.0921 34.9804 49.772 35.0321C49.4519 35.0837 48.9252 35.1663 48.6051 35.2248L48.0199 35.3247V40.6981C48.0199 46.55 48.0199 46.2849 48.3641 47.0147C48.4913 47.2783 48.6718 47.5128 48.8942 47.7031C49.5138 48.2711 50.0921 48.4467 51.3245 48.4501C52.3744 48.4501 52.3331 48.4914 52.3124 47.5241V46.8357L51.8615 46.7944C51.0629 46.7255 50.6773 46.4019 50.5878 45.7376C50.5637 45.5379 50.5465 43.0388 50.5534 40.1886C50.5534 35.2558 50.5534 34.7808 50.4054 34.9219L50.3778 34.915Z" fill="white"/>
</g>
<defs>
<clipPath id="clip0_434_48866">
<rect width="42.2988" height="42.6121" fill="white" transform="translate(10 6)"/>
</clipPath>
</defs>
</svg>
