<svg width="127" height="127" viewBox="0 0 127 127" fill="none" xmlns="http://www.w3.org/2000/svg">
<circle cx="63.5" cy="63.5" r="63.5" fill="#ED1D24"/>
<g clip-path="url(#clip0_2329_108072)">
<path d="M66.5455 12.0675C66.2672 12.1298 65.9832 12.1639 65.6979 12.1693C63.469 12.454 61.2821 13.0006 59.1832 13.7978L58.3698 14.1303C57.1967 14.603 56.055 15.1492 54.9518 15.7657C54.7628 15.8857 54.5581 15.9794 54.3434 16.0439C54.1725 16.0846 54.0358 16.166 54.0358 16.2135C54.0358 16.261 53.9401 16.3289 53.8375 16.3764C53.6403 16.4553 53.4523 16.5554 53.277 16.675C53.0797 16.8035 52.8742 16.9191 52.6617 17.021C52.4299 17.1282 52.2119 17.2627 52.0123 17.4214C51.8761 17.5387 51.7243 17.6369 51.5612 17.7132C49.7874 18.7976 48.0987 20.0135 46.5094 21.3503C45.6214 22.1418 44.8027 23.0067 44.0621 23.9356C44.0008 24.0642 43.9175 24.1813 43.816 24.2817C43.18 25.1199 42.6088 26.0045 42.1071 26.9281C41.984 27.2131 41.7242 27.7221 41.5602 28.0681C40.9848 29.2735 40.7306 30.6052 40.8219 31.936C40.8051 32.5319 40.9186 33.1244 41.1546 33.6727C41.3907 34.2209 41.7436 34.7118 42.1891 35.1117C42.6947 35.6178 43.2979 36.0175 43.9627 36.2868C44.6275 36.5561 45.3403 36.6896 46.0582 36.6792C47.1562 36.749 48.2579 36.6249 49.3121 36.3127C49.6881 36.2042 50.2008 36.082 50.4469 36.0074C50.6668 35.9605 50.8802 35.8876 51.0826 35.7902C51.3492 35.6545 52.8463 34.9827 52.9147 34.9827C54.6185 34.0966 56.2626 33.1015 57.8365 32.0038C59.3268 31.0131 60.6393 30.1513 60.7555 30.0903C60.8717 30.0292 61.569 29.6085 62.3209 29.1606C63.0729 28.7128 64.0026 28.1903 64.3717 28.0003L65.5885 27.3624C65.8824 27.2267 66.4225 26.9756 66.8053 26.8331C67.1881 26.6906 67.6666 26.4871 67.8512 26.4056C68.0358 26.3242 68.3297 26.2021 68.4869 26.1342C69.2894 25.8829 70.1211 25.7346 70.9616 25.6931C71.914 25.5678 72.8805 25.7784 73.6925 26.288C74.5046 26.7977 75.1106 27.5742 75.4049 28.4821C75.6257 29.2092 75.7001 29.9724 75.6237 30.7281C75.7009 31.9764 75.505 33.2264 75.0494 34.3924L74.7555 35.071C73.9119 36.905 72.8567 38.6357 71.611 40.2281C69.834 42.4471 67.8471 44.4922 65.6774 46.3352L64.1119 47.6245C63.6198 48.0248 63.0524 48.4252 62.4303 48.8459C62.1705 49.002 61.7467 49.2802 61.5006 49.4634C60.3091 50.1991 59.069 50.8543 57.7887 51.4245L56.8385 51.8384C56.6489 51.9389 56.443 52.0055 56.2301 52.0352C56.0296 52.0546 55.8322 52.0979 55.6422 52.1641C55.475 52.2303 55.294 52.255 55.115 52.2361C54.936 52.2173 54.7643 52.1554 54.6149 52.0558C54.4654 51.9562 54.3426 51.8219 54.2572 51.6646C54.1718 51.5073 54.1263 51.3317 54.1246 51.153C54.1246 50.2098 54.5758 49.6059 57.4264 46.7966C60.5094 43.7634 60.8444 43.3088 60.8444 42.162C60.8444 41.0152 60.277 40.167 58.9987 39.5224C58.4648 39.2397 57.8558 39.1283 57.2555 39.2034C56.3328 39.153 55.4174 39.3903 54.6373 39.882C54.4528 39.9974 54.1588 40.1466 54.0016 40.2281C53.8783 40.286 53.7615 40.3565 53.653 40.4384C53.653 40.4384 53.3864 40.642 53.1266 40.8388C52.2769 41.538 51.5046 42.3251 50.8229 43.1866C50.2789 43.9385 49.8009 44.7354 49.3942 45.5684C48.7143 46.955 48.3149 48.4604 48.2184 49.9995C48.2184 52.4762 49.5172 54.4577 51.527 55.0209C52.8251 55.1845 54.139 55.1845 55.4371 55.0209C56.51 54.7826 57.5634 54.4651 58.5885 54.0709C58.6693 54.0094 58.7671 53.9738 58.8688 53.9691C60.5745 53.2651 62.2224 52.4302 63.7975 51.472C64.0641 51.2955 64.3649 51.0987 64.4811 51.0309C64.5973 50.963 65.1647 50.6441 65.6979 50.298C66.2311 49.952 66.7438 49.6195 66.778 49.6195C67.0558 49.3939 67.3456 49.1832 67.6461 48.9884L68.8082 48.1945C69.0065 48.052 69.5465 47.638 70.025 47.258C72.6834 45.2153 75.1107 42.8923 77.2643 40.3299C77.5172 40.0245 77.7496 39.7327 77.7838 39.6988C78.295 39.045 78.7718 38.3656 79.2125 37.6631C79.5104 37.2094 79.7842 36.7405 80.0328 36.2585C80.2516 35.8445 80.5592 35.2813 80.7164 34.9895C80.8737 34.6977 81.1881 33.9581 81.441 33.3203C81.694 32.6824 81.9332 32.0649 81.9742 31.9631C82.4522 30.5191 82.8022 29.0365 83.0201 27.5321C83.2479 25.5082 83.1066 23.4602 82.6032 21.486C82.4237 20.9112 82.195 20.3528 81.9196 19.8167C81.0058 17.8419 79.5928 16.1355 77.818 14.8632C77.5789 14.7115 77.3505 14.5437 77.1344 14.361C75.9603 13.64 74.6964 13.0742 73.3746 12.6782C72.6558 12.4728 71.9253 12.3097 71.1871 12.1896C70.442 12.0743 69.0953 11.9996 68.0358 11.9996H67.4957C67.1775 11.9899 66.8591 12.0126 66.5455 12.0675ZM44.9166 74.9301C44.5336 75.0238 44.1456 75.0963 43.7545 75.1472C43.317 75.2015 42.5035 75.3169 41.9567 75.3983C41.5909 75.4355 41.2294 75.5059 40.8766 75.6086C40.774 75.6969 40.7604 95.2871 40.8766 95.4296C41.683 95.5367 42.4973 95.573 43.3102 95.5382C45.6754 95.5382 45.6891 95.5382 45.7506 95.2736C45.7506 95.1311 45.7916 90.4829 45.7506 84.9457C45.7506 74.964 45.7506 74.869 45.484 74.8486C45.2871 74.8434 45.0907 74.8709 44.903 74.9301H44.9166ZM42.0729 66.6176C41.446 66.8587 40.9107 67.2881 40.5416 67.8458C40.1725 68.409 40.1588 68.4565 40.1588 69.6305V70.8519L40.6031 71.449C40.9778 72.0419 41.5595 72.4768 42.2369 72.6704C42.7292 72.839 43.2552 72.8875 43.7703 72.8119C44.2855 72.7363 44.7748 72.5388 45.1969 72.2362C46.4342 71.449 46.8649 69.4472 46.1129 67.9747C45.855 67.4585 45.4352 67.0394 44.9166 66.7805C44.0265 66.3595 43.0058 66.301 42.0729 66.6176ZM84.524 78.384C85.0094 78.5061 86.028 79.3272 86.028 79.5783C86.0618 79.7363 86.1219 79.8876 86.2057 80.0261C86.4723 80.5486 86.6774 82.2518 86.4928 82.469C86.3082 82.6861 85.9254 82.6386 83.5807 82.6386H80.8395L80.7711 82.3536C80.7067 81.3808 80.9453 80.4118 81.4547 79.5783C81.8349 78.9905 82.4144 78.5573 83.0885 78.3568C83.3517 78.271 83.6253 78.2207 83.902 78.2076C83.9703 78.2076 84.2506 78.3161 84.5172 78.384H84.524ZM82.0289 74.7197C81.7525 74.7499 81.4826 74.8232 81.2291 74.9369C81.1507 75.0033 81.0519 75.0416 80.9489 75.0454C80.6292 75.1287 80.3214 75.2518 80.0328 75.4119C78.8993 76.0654 77.9276 76.9627 77.1891 78.0379C76.6937 78.8203 76.2944 79.6586 75.9996 80.535C75.9555 80.7294 75.8961 80.9199 75.8219 81.105C75.7809 81.234 75.6373 81.7293 75.5211 82.2043C75.2138 84.3218 75.2138 86.4721 75.5211 88.5897C75.7466 89.5336 76.0911 90.4456 76.5465 91.3039C76.5618 91.3056 76.5766 91.3103 76.5901 91.3177C76.6036 91.3251 76.6154 91.3351 76.6249 91.3471C76.6345 91.3591 76.6415 91.3729 76.6457 91.3876C76.6498 91.4023 76.651 91.4177 76.6491 91.4329C76.6491 91.8671 78.0162 93.6043 79.0006 94.3914C79.6478 94.8418 80.3539 95.2025 81.0992 95.4636C82.1603 95.7758 83.2548 95.9626 84.36 96.02C86.0074 96.02 88.9742 95.3414 89.9586 94.6628C90.1738 94.5262 90.403 94.4125 90.6422 94.3236C91.0882 94.1576 91.497 93.9063 91.8453 93.5839C91.5408 92.5927 91.0793 91.6559 90.4781 90.8086C90.3113 90.8486 90.1566 90.9277 90.027 91.0393C89.8981 91.152 89.7431 91.2313 89.5758 91.27C89.4364 91.2913 89.3047 91.3473 89.193 91.4329C88.7488 91.6373 88.2922 91.8141 87.8258 91.9621C86.956 92.2965 86.0207 92.4288 85.0914 92.3489C83.6559 92.3489 83.4098 92.3489 82.9449 92.1114C81.3248 91.3379 80.3951 89.3972 80.3951 86.7711C80.3723 86.4209 80.3723 86.0695 80.3951 85.7193C80.3951 85.7193 82.9791 85.665 86.1031 85.6311L91.7838 85.57V84.4165C91.7155 82.1636 91.1002 79.1236 90.5875 78.4315C90.5397 78.3636 90.3824 78.0786 90.2321 77.7529C89.4615 76.4086 88.2057 75.4046 86.7184 74.9436C85.1585 74.5306 83.5297 74.4406 81.9332 74.679L82.0289 74.7197ZM56.8043 74.7197C54.5489 75.2309 52.4735 76.3348 50.7955 77.9158L50.3102 78.3568V95.3618C50.3102 95.545 50.4811 95.5586 52.8395 95.5314H55.3551L55.3893 87.5107V79.4968L55.8336 79.1508C56.2549 78.7922 56.7492 78.5283 57.2828 78.3772C58.2674 78.0694 59.3028 77.9541 60.3317 78.0379C60.6528 78.0865 60.9786 78.0979 61.3024 78.0718C61.5157 77.8124 61.678 77.5155 61.7809 77.1965C61.9518 76.7351 62.2321 76.1379 62.3688 75.8394C62.7516 75.1133 62.7174 74.9301 62.2047 74.8147L61.2067 74.584C59.7543 74.3936 58.2811 74.4256 56.8385 74.679L56.8043 74.7197ZM31.2858 85.5225C31.3982 86.5567 31.4371 87.5975 31.402 88.6372C31.402 91.9079 31.4498 91.7043 30.5885 92.1521C30.0119 92.3618 29.3942 92.4361 28.7838 92.3693H27.3756L26.8014 91.9757C26.4911 91.7725 26.2164 91.5204 25.9879 91.2293C25.5648 90.5338 25.3498 89.7332 25.368 88.9209C25.3861 88.1087 25.6367 87.3183 26.0905 86.6422C26.5109 86.2069 27.0123 85.8567 27.567 85.6107C27.679 85.6103 27.7875 85.572 27.8746 85.5022C28.0387 85.3325 28.5582 85.285 29.9254 85.3054C30.8961 85.3054 31.1969 85.3529 31.2926 85.4954L31.2858 85.5225ZM27.8678 74.4279C26.6434 74.5927 25.4388 74.8792 24.2721 75.2829C24.1422 75.3372 23.9098 75.4186 23.7457 75.4661C22.9677 75.7348 22.2279 76.102 21.5446 76.5586C21.6008 76.7633 21.674 76.963 21.7633 77.1558C22.0717 77.9402 22.4444 78.6982 22.8776 79.4222C22.9712 79.4023 23.0612 79.368 23.1442 79.3204C23.7503 79.0198 24.3788 78.7657 25.024 78.5604C25.3727 78.4586 25.7897 78.3229 25.9537 78.2618C26.9924 78.0058 28.0682 77.9323 29.1324 78.0447C30.7047 78.2958 31.2858 79.0218 31.3815 80.8743C31.4293 81.899 31.4293 81.9261 31.1627 81.994C30.3743 82.0664 29.5823 82.0936 28.7906 82.0754C26.0563 82.0754 25.1881 82.2315 23.4039 83.1C22.6215 83.4939 21.9311 84.0466 21.3777 84.7222C20.8242 85.3979 20.4199 86.1815 20.191 87.0222C19.915 88.2402 19.9384 89.5064 20.2594 90.7136C21.2985 93.8486 23.7867 95.6739 27.2389 95.8571C30.267 96.0679 33.2725 95.2072 35.7223 93.4278L36.4742 92.8171L36.5084 86.71C36.5426 79.6529 36.5084 79.4086 35.6744 77.6851C35.0785 76.6902 34.2268 75.8706 33.2067 75.3101C32.8375 75.1404 32.4274 74.964 32.2975 74.9097C30.8657 74.4685 29.3618 74.3049 27.8678 74.4279ZM68.0563 69.2301C65.4791 69.6101 64.6383 69.7729 64.5153 69.9087C64.3922 70.0444 64.4332 73.6612 64.4332 80.6843C64.4879 90.4964 64.5084 91.3786 64.6998 91.8536C64.9386 92.6463 65.3734 93.3671 65.9645 93.9503C67.1813 95.1582 68.6989 95.6536 71.2828 95.6536C72.6979 95.6536 72.8961 95.6536 72.9918 95.4432C73.1285 94.545 73.156 93.6337 73.0739 92.7289C72.9987 92.4371 72.9576 92.4304 72.0826 92.3557C71.6437 92.3746 71.2081 92.2731 70.8234 92.0624C70.4388 91.8518 70.12 91.54 69.902 91.1614L69.6149 90.6457L69.5739 84.6811C69.5739 80.2365 69.5739 78.669 69.6832 78.574C69.7926 78.479 70.1823 78.4179 71.4196 78.4179C73.3336 78.4179 73.1696 78.6011 73.1285 76.3822V74.8826L71.5016 74.8283C70.9108 74.822 70.3213 74.7721 69.7379 74.679C69.6217 74.6111 69.5875 73.9054 69.5875 71.8222V69.0537H69.3346C69.1842 69.0537 68.651 69.1351 68.0836 69.2165L68.0563 69.2301ZM100.185 68.9994C100.185 68.9994 99.6178 69.1283 98.9821 69.2301C98.3463 69.3319 97.3004 69.4947 96.6647 69.6101L95.5026 69.8069V80.3993C95.5026 91.935 95.5026 91.4125 96.1862 92.8511C96.4388 93.3708 96.7972 93.8329 97.2389 94.2082C98.4694 95.3278 99.6178 95.6739 102.065 95.6807C104.15 95.6807 104.068 95.7621 104.027 93.8553V92.4982L103.131 92.4168C101.546 92.2811 100.78 91.6432 100.602 90.3336C100.554 89.94 100.52 85.0136 100.534 79.3951C100.534 69.6712 100.534 68.7347 100.24 69.013L100.185 68.9994Z" fill="white"/>
</g>
<defs>
<clipPath id="clip0_2329_108072">
<rect width="84" height="84" fill="white" transform="translate(20 12)"/>
</clipPath>
</defs>
</svg>
