<svg width="22" height="18" viewBox="0 0 22 18" fill="none" xmlns="http://www.w3.org/2000/svg">
<path d="M10.142 17C7.915 17 6.801 17 5.872 16.499C4.942 15.997 4.352 15.079 3.171 13.24L2.49 12.18C1.497 10.634 1 9.86 1 9C1 8.14 1.497 7.366 2.49 5.82L3.17 4.76C4.351 2.922 4.941 2.003 5.871 1.501C6.801 1 7.915 1 10.142 1H12.779C16.654 1 18.592 1 19.796 2.172C21 3.343 21 5.229 21 9C21 12.771 21 14.657 19.796 15.828C18.592 17 16.654 17 12.78 17H10.142Z" stroke="black" stroke-width="1.5"/>
<path d="M14.5 6.5L9.5 11.5M9.5 6.5L14.5 11.5" stroke="black" stroke-width="1.5" stroke-linecap="round"/>
</svg>
