<svg width="375" height="375" viewBox="0 0 375 375" fill="none" xmlns="http://www.w3.org/2000/svg">
<path d="M324.47 321.015H61.1326C60.8386 321.015 60.5986 320.777 60.5986 320.481C60.5986 320.187 60.8371 319.947 61.1326 319.947H324.47C324.764 319.947 325.004 320.186 325.004 320.481C325.004 320.775 324.765 321.015 324.47 321.015Z" fill="#030047"/>
<path d="M312.912 130.635H72.6904V320.481H312.912V130.635Z" fill="white"/>
<path d="M313.446 321.015H72.1562V130.101H313.445V321.015H313.446ZM73.2242 319.947H312.378V131.169H73.2242V319.947Z" fill="#030047"/>
<path d="M312.912 132.332H72.6904V124.341C72.6904 116.084 79.3849 109.389 87.6424 109.389H297.96C306.218 109.389 312.912 116.084 312.912 124.341V132.332Z" fill="#E6F3FC"/>
<path d="M313.446 132.864H72.1562V124.341C72.1562 115.802 79.1028 108.855 87.6423 108.855H297.96C306.498 108.855 313.446 115.802 313.446 124.341V132.864ZM73.2242 131.798H312.378V124.341C312.378 116.391 305.91 109.923 297.96 109.923H87.6423C79.6923 109.923 73.2242 116.391 73.2242 124.341V131.798Z" fill="#030047"/>
<path d="M83.5421 123.946C85.247 123.946 86.6291 122.564 86.6291 120.859C86.6291 119.155 85.247 117.772 83.5421 117.772C81.8372 117.772 80.4551 119.155 80.4551 120.859C80.4551 122.564 81.8372 123.946 83.5421 123.946Z" fill="white"/>
<path d="M92.0509 123.946C93.7558 123.946 95.1379 122.564 95.1379 120.859C95.1379 119.155 93.7558 117.772 92.0509 117.772C90.346 117.772 88.9639 119.155 88.9639 120.859C88.9639 122.564 90.346 123.946 92.0509 123.946Z" fill="white"/>
<path d="M100.559 123.946C102.264 123.946 103.646 122.564 103.646 120.859C103.646 119.155 102.264 117.772 100.559 117.772C98.8538 117.772 97.4717 119.155 97.4717 120.859C97.4717 122.564 98.8538 123.946 100.559 123.946Z" fill="white"/>
<path d="M195.861 235.164L223.282 232.47C230.056 231.804 236.191 236.495 237.324 243.207L250.368 320.481H150.532V246.098C150.532 238.62 156.844 232.695 164.305 233.168L195.861 235.164Z" fill="#5136C1"/>
<path d="M150.532 321.015C150.238 321.015 149.998 320.777 149.998 320.481V246.098C149.998 245.804 150.237 245.564 150.532 245.564C150.828 245.564 151.066 245.802 151.066 246.098V320.481C151.066 320.775 150.826 321.015 150.532 321.015Z" fill="#030047"/>
<path d="M245.892 294.505C245.636 294.505 245.411 294.321 245.367 294.06L236.798 243.295C236.748 243.004 236.945 242.73 237.234 242.68C237.519 242.632 237.8 242.827 237.849 243.118L246.419 293.883C246.468 294.174 246.272 294.448 245.982 294.498C245.952 294.502 245.922 294.505 245.892 294.505Z" fill="#030047"/>
<path d="M123.752 187.87H123.716L119.318 240.111L137.495 233.983L145.409 264.288L112.029 275.305C108.791 276.379 105.438 276.436 102.321 275.64C97.7165 274.465 93.638 271.405 91.283 266.949C89.525 263.617 88.9055 259.803 89.504 256.087L96.749 189.108L95.147 156.063C95.048 154.426 96.065 152.839 97.652 152.44C99.7865 151.914 101.759 153.429 101.886 155.523C101.78 153.658 101.538 149.772 104.925 149.836C106.805 149.872 108.398 151.146 108.519 153.004L108.306 149.602C108.179 147.36 110.249 145.503 112.641 146.143C114.036 146.506 114.983 147.774 115.061 149.197V149.218L115.232 152.122C115.403 150.051 117.545 148.464 119.808 149.211C121.082 149.638 121.95 150.847 122.028 152.2L122.036 152.208L123.167 172.705" fill="white"/>
<path d="M106.613 276.715C105.131 276.715 103.646 276.529 102.189 276.157C97.3099 274.912 93.1624 271.648 90.8104 267.199C89.0134 263.796 88.3624 259.819 88.9759 256.005L96.2134 189.093L94.6144 156.09C94.4959 154.164 95.7469 152.37 97.5229 151.924C98.6839 151.638 99.8869 151.872 100.829 152.563C101.019 152.703 101.195 152.859 101.354 153.027C101.459 151.993 101.748 150.958 102.45 150.229C103.061 149.595 103.901 149.287 104.936 149.304C106.079 149.325 107.088 149.734 107.822 150.403L107.774 149.635C107.702 148.375 108.242 147.15 109.217 146.356C110.205 145.551 111.503 145.287 112.778 145.627C114.366 146.04 115.499 147.463 115.593 149.167L115.634 149.877C115.871 149.602 116.145 149.358 116.454 149.154C117.488 148.47 118.769 148.306 119.975 148.704C121.407 149.184 122.436 150.54 122.555 152.094C122.562 152.122 122.565 152.149 122.567 152.178L123.699 172.675C123.716 172.969 123.491 173.221 123.195 173.238C122.928 173.247 122.649 173.029 122.633 172.734L121.505 152.308C121.499 152.283 121.496 152.256 121.494 152.23C121.428 151.077 120.681 150.067 119.637 149.716C118.734 149.419 117.813 149.535 117.044 150.043C116.312 150.528 115.832 151.321 115.763 152.164C115.739 152.443 115.5 152.656 115.224 152.655C114.944 152.652 114.714 152.431 114.698 152.152L114.527 149.248C114.459 147.987 113.646 146.956 112.506 146.659C111.563 146.407 110.61 146.598 109.89 147.184C109.179 147.763 108.786 148.654 108.839 149.571L109.052 152.967C109.052 152.967 109.052 152.968 109.052 152.97V152.971C109.071 153.265 108.848 153.519 108.554 153.537C108.26 153.555 108.006 153.333 107.987 153.039V153.037V153.036C107.886 151.522 106.596 150.402 104.916 150.37C104.172 150.346 103.62 150.552 103.218 150.969C102.219 152.005 102.348 154.252 102.417 155.46C102.417 155.464 102.417 155.467 102.417 155.472C102.417 155.478 102.417 155.485 102.419 155.491H102.417C102.417 155.773 102.2 156.024 101.916 156.04C101.601 156.061 101.37 155.85 101.352 155.557C101.352 155.557 101.352 155.556 101.352 155.554V155.553C101.3 154.701 100.878 153.925 100.194 153.424C99.4999 152.913 98.6419 152.748 97.7779 152.961C96.4939 153.283 95.5909 154.605 95.6779 156.033L97.2799 189.085C97.2814 189.114 97.2799 189.141 97.2784 189.168L90.0334 256.147C89.4529 259.764 90.0649 263.502 91.7539 266.701C93.9649 270.883 97.8649 273.954 102.453 275.124C105.567 275.92 108.822 275.808 111.861 274.8L144.767 263.94L137.123 234.673L119.487 240.618C119.316 240.675 119.129 240.643 118.988 240.532C118.847 240.421 118.77 240.247 118.785 240.067L123.183 187.827C123.206 187.551 123.438 187.338 123.714 187.338C124.008 187.338 124.266 187.576 124.266 187.872C124.266 187.938 124.256 188.001 124.235 188.059L119.916 239.346L137.324 233.478C137.465 233.431 137.618 233.443 137.748 233.514C137.879 233.584 137.973 233.706 138.011 233.848L145.925 264.153C145.995 264.426 145.844 264.706 145.575 264.795L112.196 275.812C110.385 276.414 108.501 276.715 106.613 276.715Z" fill="#030047"/>
<path d="M109.011 161.844C108.73 161.844 108.496 161.626 108.478 161.341L107.979 153.027C107.961 152.733 108.186 152.479 108.48 152.463C108.763 152.439 109.026 152.668 109.045 152.964L109.545 161.278C109.563 161.572 109.338 161.826 109.044 161.842C109.032 161.844 109.021 161.844 109.011 161.844Z" fill="#030047"/>
<path d="M115.755 161.439C115.474 161.439 115.24 161.221 115.222 160.936L114.694 152.149C114.676 151.855 114.901 151.602 115.195 151.585C115.479 151.564 115.743 151.791 115.761 152.086L116.289 160.873C116.307 161.167 116.082 161.421 115.788 161.437C115.776 161.439 115.765 161.439 115.755 161.439Z" fill="#030047"/>
<path d="M102.259 162.249C101.979 162.249 101.745 162.031 101.727 161.746L101.229 153.445C101.211 153.151 101.436 152.898 101.73 152.881C102.01 152.857 102.276 153.087 102.295 153.382L102.793 161.683C102.811 161.977 102.586 162.231 102.292 162.247C102.28 162.249 102.27 162.249 102.259 162.249Z" fill="#030047"/>
<path d="M176.185 233.88C176.185 233.88 154.62 230.233 149.787 232.407L131.623 233.871L134.524 273.528L162.799 267.547C167.581 266.101 171.147 262.093 172.024 257.175L176.185 233.88Z" fill="#5136C1"/>
<path d="M134.525 274.062C134.411 274.062 134.297 274.025 134.204 273.956C134.081 273.863 134.004 273.722 133.992 273.567L131.091 233.91C131.07 233.618 131.289 233.363 131.58 233.339L149.744 231.873C150.03 231.85 150.294 232.068 150.32 232.362C150.344 232.656 150.125 232.913 149.831 232.937L132.195 234.359L135.012 272.877L162.689 267.023C162.975 266.964 163.26 267.146 163.322 267.435C163.383 267.723 163.199 268.007 162.911 268.068L134.636 274.049C134.598 274.059 134.562 274.062 134.525 274.062Z" fill="#030047"/>
<path d="M117.784 246.64C117.741 246.64 117.696 246.636 117.651 246.624C117.366 246.55 117.193 246.261 117.265 245.974L118.797 239.982C118.87 239.695 119.161 239.521 119.446 239.596C119.731 239.67 119.904 239.959 119.832 240.246L118.3 246.238C118.239 246.48 118.021 246.64 117.784 246.64Z" fill="#030047"/>
<path d="M255.092 172.661L253.796 152.171L253.804 152.163C253.726 150.812 254.444 149.508 255.655 148.932C257.818 147.929 260.132 149.252 260.545 151.287L260.374 148.383V148.362C260.281 146.939 261.071 145.565 262.417 145.046C264.716 144.128 266.986 145.73 267.128 147.971L267.307 151.194C267.307 149.423 268.715 148.049 270.509 147.8C273.755 147.351 274.067 150.974 274.189 152.903C274.189 150.888 275.926 149.265 278.039 149.529C279.662 149.742 280.865 151.194 280.957 152.832L283.142 184.248L283.256 184.241L293.597 256.089C294.196 259.805 293.576 263.619 291.818 266.951C289.463 271.406 285.391 274.467 280.78 275.642C277.663 276.438 274.31 276.381 271.072 275.307L237.692 264.29L245.606 233.985L263.783 240.113L255.947 186.612" fill="white"/>
<path d="M276.487 276.716C274.599 276.716 272.715 276.414 270.901 275.813L237.522 264.795C237.255 264.707 237.102 264.426 237.172 264.153L245.088 233.849C245.125 233.706 245.221 233.585 245.35 233.514C245.481 233.444 245.634 233.432 245.775 233.478L263.127 239.328L255.417 186.69C255.375 186.398 255.576 186.128 255.868 186.084C256.156 186.042 256.431 186.243 256.474 186.534L264.31 240.035C264.337 240.219 264.267 240.404 264.124 240.522C263.982 240.641 263.787 240.677 263.611 240.618L245.977 234.674L238.333 263.94L271.237 274.8C274.278 275.81 277.53 275.921 280.647 275.124C285.234 273.956 289.132 270.885 291.346 266.702C293.035 263.501 293.647 259.763 293.071 256.175L282.774 184.635C282.681 184.547 282.619 184.424 282.61 184.286L280.426 152.87C280.345 151.439 279.289 150.233 277.971 150.059C277.126 149.954 276.315 150.198 275.692 150.749C275.077 151.292 274.725 152.078 274.725 152.904C274.725 153.192 274.497 153.429 274.207 153.438C273.934 153.446 273.676 153.225 273.658 152.939C273.591 151.865 273.45 149.633 272.338 148.724C271.891 148.359 271.32 148.23 270.583 148.331C268.995 148.551 267.841 149.757 267.841 151.197C267.841 151.487 267.612 151.722 267.322 151.731C267.054 151.752 266.791 151.517 266.775 151.227L266.596 148.002C266.539 147.087 266.04 146.246 265.264 145.755C264.483 145.262 263.517 145.184 262.617 145.544C261.513 145.971 260.829 147.09 260.91 148.331L261.081 151.259C261.097 151.539 260.895 151.784 260.616 151.82C260.338 151.856 260.08 151.671 260.023 151.397C259.855 150.57 259.288 149.84 258.505 149.444C257.68 149.027 256.749 149.018 255.88 149.42C254.893 149.891 254.272 150.983 254.338 152.136C254.34 152.165 254.338 152.193 254.337 152.222L255.627 172.631C255.646 172.925 255.423 173.178 255.127 173.198C254.859 173.219 254.58 172.994 254.562 172.698L253.266 152.208C253.264 152.175 253.264 152.142 253.267 152.111C253.212 150.561 254.071 149.099 255.426 148.454C256.584 147.917 257.88 147.932 258.985 148.491C259.317 148.659 259.617 148.866 259.881 149.106L259.84 148.419C259.729 146.693 260.686 145.146 262.222 144.552C263.439 144.066 264.756 144.176 265.831 144.855C266.895 145.527 267.579 146.681 267.658 147.941L267.702 148.721C268.357 147.962 269.314 147.431 270.433 147.275C271.464 147.132 272.331 147.342 273.01 147.899C273.792 148.538 274.204 149.555 274.429 150.554C274.59 150.336 274.776 150.134 274.981 149.952C275.838 149.196 276.945 148.859 278.103 149.004C279.924 149.244 281.379 150.878 281.488 152.807L283.65 183.887C283.719 183.963 283.767 184.061 283.783 184.169L294.124 256.017C294.736 259.823 294.085 263.799 292.288 267.203C289.935 271.653 285.787 274.919 280.909 276.161C279.454 276.53 277.969 276.716 276.487 276.716Z" fill="#030047"/>
<path d="M267.806 160.212C267.526 160.212 267.29 159.993 267.274 159.709L266.791 151.393C266.774 151.099 266.999 150.847 267.293 150.829C267.604 150.813 267.841 151.036 267.857 151.332L268.34 159.648C268.357 159.942 268.132 160.194 267.838 160.212C267.827 160.212 267.817 160.212 267.806 160.212Z" fill="#030047"/>
<path d="M261.062 160.605C260.782 160.605 260.546 160.386 260.53 160.103L260.018 151.314C260.002 151.02 260.227 150.768 260.521 150.75C260.824 150.726 261.067 150.957 261.085 151.253L261.596 160.041C261.613 160.335 261.388 160.587 261.094 160.605C261.083 160.605 261.073 160.605 261.062 160.605Z" fill="#030047"/>
<path d="M274.558 159.819C274.278 159.819 274.042 159.6 274.026 159.317L273.543 151.014C273.526 150.72 273.751 150.468 274.045 150.45C274.362 150.426 274.593 150.657 274.609 150.953L275.092 159.255C275.109 159.549 274.884 159.801 274.59 159.819C274.579 159.819 274.569 159.819 274.558 159.819Z" fill="#030047"/>
<path d="M206.916 233.88C206.916 233.88 228.482 230.233 233.315 232.407L251.478 233.871L248.577 273.528L220.302 267.547C215.52 266.101 211.955 262.093 211.077 257.175L206.916 233.88Z" fill="#5136C1"/>
<path d="M248.577 274.062C248.54 274.062 248.504 274.057 248.466 274.05L220.191 268.069C219.903 268.008 219.719 267.724 219.78 267.436C219.84 267.147 220.122 266.967 220.413 267.024L248.09 272.878L250.908 234.36L233.273 232.938C232.979 232.914 232.76 232.657 232.784 232.363C232.808 232.069 233.075 231.85 233.36 231.874L251.523 233.34C251.816 233.364 252.035 233.619 252.012 233.911L249.11 273.568C249.099 273.721 249.021 273.864 248.898 273.957C248.805 274.026 248.693 274.062 248.577 274.062Z" fill="#030047"/>
<path d="M265.317 246.64C265.08 246.64 264.862 246.48 264.801 246.238L263.271 240.246C263.197 239.961 263.37 239.67 263.656 239.596C263.944 239.521 264.232 239.695 264.306 239.982L265.836 245.974C265.909 246.259 265.737 246.55 265.45 246.624C265.405 246.636 265.362 246.64 265.317 246.64Z" fill="#030047"/>
<path d="M295.205 172.311H93.7533C92.8128 172.311 92.0508 171.549 92.0508 170.608V97.7939C92.0508 96.8534 92.8128 96.0914 93.7533 96.0914H295.205C296.145 96.0914 296.907 96.8534 296.907 97.7939V170.608C296.907 171.549 296.145 172.311 295.205 172.311Z" fill="#FFCC3D"/>
<path d="M255.947 186.611C255.399 185.195 254.09 182.825 251.129 181.38L246.075 178.712C245.064 178.17 244.338 177.303 243.962 176.285C243.635 175.395 243.591 174.399 243.869 173.445C244.623 170.891 247.421 169.53 249.905 170.549L264.428 177.395" fill="white"/>
<path d="M255.946 187.144C255.732 187.144 255.529 187.015 255.448 186.802C254.964 185.55 253.728 183.241 250.894 181.858L245.826 179.182C244.732 178.597 243.892 177.634 243.46 176.469C243.09 175.462 243.052 174.336 243.355 173.295C243.759 171.925 244.728 170.788 246.012 170.172C247.294 169.555 248.787 169.513 250.104 170.053L264.652 176.911C264.919 177.037 265.033 177.355 264.909 177.622C264.783 177.888 264.465 178.005 264.198 177.877L249.675 171.031C248.644 170.61 247.498 170.643 246.474 171.135C245.461 171.621 244.698 172.518 244.38 173.596C244.141 174.418 244.17 175.308 244.461 176.101C244.801 177.021 245.464 177.781 246.325 178.242L251.376 180.91C254.521 182.445 255.901 185.022 256.441 186.421C256.548 186.696 256.411 187.005 256.137 187.111C256.075 187.132 256.011 187.144 255.946 187.144Z" fill="#030047"/>
<path d="M116.479 175.758L128.071 169.992C130.413 168.69 133.353 169.707 134.406 172.155C134.79 173.073 134.868 174.069 134.647 174.987C134.391 176.04 133.771 176.994 132.832 177.65L128.128 180.896C123.972 183.572 123.751 187.871 123.751 187.871" fill="white"/>
<path d="M123.751 188.405C123.742 188.405 123.732 188.405 123.723 188.405C123.429 188.39 123.201 188.139 123.217 187.844C123.226 187.658 123.502 183.239 127.839 180.447L132.529 177.212C133.326 176.655 133.896 175.821 134.128 174.863C134.323 174.05 134.247 173.162 133.912 172.362C133.47 171.333 132.603 170.532 131.539 170.171C130.462 169.805 129.322 169.907 128.329 170.46L116.716 176.238C116.452 176.37 116.131 176.262 116.001 175.998C115.869 175.734 115.977 175.415 116.241 175.283L127.833 169.517C129.054 168.837 130.539 168.704 131.884 169.161C133.234 169.622 134.331 170.636 134.895 171.947C135.319 172.959 135.414 174.083 135.166 175.115C134.871 176.328 134.151 177.384 133.137 178.089L128.43 181.337C124.534 183.845 124.285 187.859 124.282 187.899C124.27 188.183 124.035 188.405 123.751 188.405Z" fill="#030047"/>
<path d="M206.391 234.12C206.422 240.776 179.17 240.903 179.139 234.248L182.079 205.665L205.488 210.54L206.391 234.12Z" fill="white"/>
<path d="M192.586 239.71C189.039 239.71 185.731 239.275 183.252 238.48C179.422 237.253 178.61 235.503 178.604 234.25L181.546 205.611C181.561 205.461 181.64 205.324 181.762 205.234C181.883 205.146 182.038 205.113 182.186 205.143L205.596 210.018C205.836 210.067 206.011 210.274 206.02 210.52L206.925 234.1C206.925 234.106 206.925 234.112 206.925 234.118C206.931 235.371 206.136 237.127 202.318 238.392C199.798 239.226 196.416 239.694 192.792 239.71C192.723 239.71 192.654 239.71 192.586 239.71ZM182.548 206.308L179.67 234.303C179.685 236.787 185.293 238.674 192.785 238.642C196.301 238.626 199.567 238.177 201.984 237.378C203.431 236.899 205.858 235.84 205.858 234.132L204.97 210.979L182.548 206.308Z" fill="#030047"/>
<path d="M182.014 214.686C171.45 206.525 167.275 193.089 167.275 193.089L187.77 170.808C188.527 171.032 206.437 171.024 216.216 189.161C224.229 204.023 215.845 217.023 196.113 219.653" fill="white"/>
<path d="M196.111 220.187C195.847 220.187 195.618 219.992 195.583 219.723C195.544 219.431 195.75 219.162 196.042 219.123C206.329 217.752 213.769 213.519 216.993 207.204C219.648 202.002 219.217 195.849 215.748 189.414C210.076 178.895 200.325 172.5 188.289 171.405C188.16 171.393 188.058 171.384 187.974 171.375L167.881 193.218C168.561 195.206 172.885 206.958 182.341 214.263C182.574 214.443 182.617 214.779 182.437 215.012C182.257 215.246 181.923 215.289 181.689 215.108C171.114 206.937 166.809 193.382 166.768 193.247C166.711 193.065 166.756 192.867 166.885 192.726L187.38 170.445C187.518 170.295 187.729 170.238 187.924 170.295C187.981 170.306 188.145 170.319 188.388 170.34C200.791 171.468 210.841 178.061 216.69 188.906C220.333 195.665 220.768 202.16 217.947 207.689C214.56 214.325 206.832 218.762 196.186 220.181C196.159 220.185 196.135 220.187 196.111 220.187Z" fill="#030047"/>
<path d="M209.689 171.398C209.689 183.813 181.365 189.465 181.365 189.465C179.55 191.864 183.237 198.497 181.849 201.03C180.454 203.564 179.721 202.283 179.721 202.283L173.985 209.201C173.985 209.201 158.235 202.269 159.231 193.401C160.234 184.533 167.409 183.537 167.409 183.537C167.409 183.537 160.704 177.666 163.729 173.367C165.928 170.25 171.387 169.752 174.22 169.724C172.833 169.404 174.717 162.192 180.081 160.074C194.55 154.358 209.689 151.847 209.689 171.398Z" fill="#030047"/>
<path d="M196.372 192C194.811 192.342 193.597 193.695 193.291 195.433L196.372 192Z" fill="white"/>
<path d="M193.292 195.966C193.262 195.966 193.231 195.963 193.199 195.958C192.908 195.907 192.715 195.631 192.766 195.34C193.109 193.383 194.48 191.868 196.258 191.478C196.543 191.413 196.831 191.596 196.894 191.884C196.957 192.172 196.775 192.457 196.486 192.52C195.133 192.817 194.084 193.996 193.816 195.525C193.771 195.784 193.546 195.966 193.292 195.966Z" fill="#030047"/>
<path d="M206.318 189.195C207.095 190.152 208.253 190.506 208.903 189.98C209.545 189.456 209.434 188.249 208.648 187.29C207.862 186.33 206.702 185.976 206.06 186.5C205.415 187.034 205.532 188.237 206.318 189.195Z" fill="#030047"/>
<path d="M196.631 197.383C197.417 198.342 198.572 198.69 199.221 198.163C199.865 197.64 199.746 196.437 198.966 195.474C198.18 194.515 197.021 194.161 196.376 194.694C195.734 195.217 195.851 196.422 196.631 197.383Z" fill="#030047"/>
<path d="M206.057 183.813C204.495 184.155 203.282 185.508 202.976 187.246L206.057 183.813Z" fill="white"/>
<path d="M202.977 187.781C202.947 187.781 202.916 187.778 202.884 187.773C202.593 187.722 202.4 187.446 202.451 187.155C202.794 185.198 204.165 183.683 205.943 183.293C206.226 183.227 206.516 183.411 206.579 183.699C206.642 183.987 206.46 184.272 206.171 184.335C204.818 184.632 203.769 185.811 203.501 187.34C203.456 187.598 203.231 187.781 202.977 187.781Z" fill="#030047"/>
<path d="M180.134 202.299C180.134 202.299 170.769 199.518 168.02 202.564C165.27 205.611 173.049 216.903 177.698 215.838C182.346 214.773 184.73 211.411 184.73 211.411" fill="white"/>
<path d="M177.057 216.444C174.209 216.444 170.787 213.142 168.695 209.58C166.788 206.332 166.388 203.576 167.622 202.208C170.562 198.948 179.888 201.671 180.285 201.788C180.567 201.872 180.729 202.169 180.645 202.451C180.561 202.733 180.266 202.893 179.981 202.81C177.467 202.065 170.486 200.63 168.416 202.922C167.535 203.897 168.006 206.298 169.616 209.038C171.677 212.55 175.233 215.856 177.578 215.317C181.958 214.314 184.272 211.134 184.295 211.101C184.466 210.861 184.799 210.806 185.039 210.977C185.279 211.148 185.336 211.479 185.165 211.72C185.063 211.864 182.607 215.261 177.816 216.359C177.569 216.417 177.315 216.444 177.057 216.444Z" fill="#030047"/>
<path d="M175.128 210.452C175.017 210.452 174.904 210.417 174.808 210.345C174.016 209.751 173.338 208.982 172.848 208.121C172.429 207.389 172.329 206.768 172.542 206.222C172.722 205.763 173.139 205.391 173.658 205.224C174.037 205.103 174.466 205.083 174.966 205.163C175.599 205.265 176.218 205.503 176.757 205.85C177.004 206.01 177.075 206.34 176.916 206.588C176.755 206.835 176.427 206.907 176.178 206.747C175.762 206.478 175.285 206.295 174.798 206.217C174.468 206.165 174.201 206.172 173.985 206.241C173.772 206.309 173.601 206.451 173.539 206.61C173.454 206.832 173.533 207.164 173.778 207.593C174.196 208.328 174.775 208.985 175.452 209.492C175.687 209.669 175.735 210.003 175.558 210.239C175.45 210.378 175.291 210.452 175.128 210.452Z" fill="#030047"/>
<path d="M204.319 193.525C205.525 194.85 206.73 196.174 207.936 197.497C208.663 198.295 209.409 199.131 209.634 200.155C209.859 201.181 209.401 202.456 208.266 203.008" fill="white"/>
<path d="M208.266 203.544C208.068 203.544 207.877 203.433 207.784 203.244C207.655 202.979 207.766 202.659 208.03 202.53C208.954 202.08 209.277 201.03 209.112 200.271C208.914 199.367 208.183 198.564 207.54 197.858L203.923 193.886C203.725 193.668 203.74 193.331 203.959 193.131C204.177 192.933 204.514 192.948 204.714 193.167L208.33 197.139C209.064 197.945 209.895 198.858 210.154 200.043C210.414 201.23 209.928 202.794 208.498 203.49C208.423 203.526 208.344 203.544 208.266 203.544Z" fill="#030047"/>
<path d="M202.609 210.042C202.266 210.042 201.922 210.007 201.586 209.938C200.392 209.689 199.287 208.987 198.552 208.014C198.375 207.778 198.421 207.444 198.657 207.267C198.894 207.09 199.228 207.138 199.405 207.372C199.984 208.143 200.859 208.696 201.804 208.894C202.747 209.091 203.772 208.932 204.612 208.458C204.868 208.312 205.194 208.404 205.339 208.66C205.483 208.917 205.393 209.242 205.137 209.388C204.375 209.817 203.491 210.042 202.609 210.042Z" fill="#030047"/>
<path d="M50.5291 245.073C50.4661 245.073 50.4016 245.062 50.3401 245.038C46.8616 243.715 43.9531 241.029 42.3616 237.664C41.0026 234.795 40.6321 231.495 41.2876 228.396C40.3621 227.661 39.5641 226.605 38.9071 225.243C36.8191 220.921 37.0756 215.475 39.5596 211.366C39.7111 211.114 40.0381 211.032 40.2931 211.186C40.5451 211.339 40.6261 211.666 40.4731 211.92C38.1706 215.727 37.9336 220.774 39.8686 224.779C40.3636 225.804 40.9381 226.626 41.5846 227.239C41.6266 227.098 41.6716 226.959 41.7181 226.819C41.9656 226.08 42.3916 225.004 43.2061 224.206C44.0641 223.365 45.2281 222.999 46.2436 223.254C47.1091 223.47 47.7901 224.136 48.1111 225.081C48.4786 226.158 48.3031 227.335 47.6536 228.156C46.5391 229.569 44.3041 229.984 42.4531 229.12C42.3871 229.089 42.3196 229.056 42.2536 229.023C41.7601 231.775 42.1276 234.672 43.3276 237.207C44.8036 240.324 47.4976 242.814 50.7211 244.039C50.9956 244.144 51.1351 244.452 51.0301 244.728C50.9476 244.942 50.7451 245.073 50.5291 245.073ZM42.4936 227.938C42.6271 228.018 42.7636 228.09 42.9016 228.156C44.1196 228.726 45.9166 228.633 46.8136 227.497C47.2336 226.966 47.3446 226.155 47.0986 225.429C46.8961 224.833 46.4896 224.419 45.9826 224.292C45.3331 224.131 44.5366 224.397 43.9516 224.971C43.3006 225.609 42.9421 226.525 42.7276 227.16C42.6421 227.416 42.5641 227.676 42.4936 227.938Z" fill="#030047"/>
<path d="M114.463 88.329C112.651 88.329 110.932 88.11 109.314 87.6705C105.481 86.631 102.267 84.264 100.473 81.219C100.438 81.219 100.404 81.219 100.369 81.219C96.238 81.219 92.077 78.597 90.115 74.7C88.21 70.9155 88.3075 66.0495 90.3715 61.998C90.505 61.7355 90.826 61.6305 91.09 61.764C91.3525 61.8975 91.4575 62.22 91.3225 62.4825C89.4115 66.2355 89.314 70.734 91.069 74.22C92.7805 77.6205 96.3235 79.956 99.9085 80.139C99.8935 80.1075 99.88 80.076 99.865 80.0445C98.0635 75.9945 98.944 71.0565 101.961 68.301C103.5 66.8955 105.36 66.324 106.932 66.774C109.417 67.4835 110.527 70.509 110.164 73.0245C109.573 77.118 105.922 80.5425 101.673 81.1305C103.371 83.7195 106.222 85.7265 109.593 86.6415C113.01 87.5685 116.931 87.456 121.248 86.31C121.534 86.2335 121.825 86.4045 121.9 86.688C121.977 86.973 121.806 87.2655 121.521 87.3405C119.044 87.999 116.685 88.329 114.463 88.329ZM105.831 67.6905C104.803 67.6905 103.677 68.1825 102.682 69.09C99.9955 71.544 99.2215 75.969 100.842 79.611C100.918 79.7835 100.999 79.953 101.086 80.1225C105.069 79.7865 108.564 76.65 109.11 72.8715C109.407 70.8105 108.565 68.3505 106.641 67.8015C106.381 67.7265 106.108 67.6905 105.831 67.6905Z" fill="#030047"/>
<path d="M176.343 82.938C176.059 82.938 175.824 82.716 175.81 82.4295C175.585 77.7795 176.341 73.74 178.054 70.4235C179.875 66.8955 182.866 64.2495 186.22 63.1365C187.053 59.0565 190.513 55.4895 194.77 54.3825C198.87 53.3145 203.608 54.435 207.135 57.303C207.363 57.489 207.397 57.825 207.211 58.0545C207.024 58.284 206.689 58.317 206.46 58.1325C203.194 55.4745 198.82 54.4335 195.039 55.4175C191.355 56.376 188.326 59.349 187.393 62.8155C187.428 62.808 187.461 62.8005 187.495 62.793C191.835 61.8825 196.477 63.7815 198.535 67.311C199.587 69.1095 199.753 71.046 198.984 72.4905C197.766 74.772 194.574 75.2205 192.193 74.337C188.314 72.8985 185.734 68.6085 186.054 64.3305C183.166 65.4465 180.604 67.812 179.001 70.9155C177.376 74.0625 176.661 77.919 176.875 82.38C176.89 82.674 176.662 82.9245 176.368 82.9395C176.359 82.938 176.352 82.938 176.343 82.938ZM187.164 63.969C186.655 67.932 188.986 72.009 192.565 73.3365C194.518 74.061 197.1 73.7535 198.042 71.988C198.636 70.8735 198.477 69.3255 197.614 67.848C195.78 64.704 191.614 63.0195 187.716 63.837C187.53 63.876 187.347 63.9195 187.164 63.969Z" fill="#030047"/>
<path d="M324.851 209.853C324.718 209.853 324.583 209.85 324.448 209.846C324.154 209.834 323.923 209.586 323.935 209.292C323.946 208.998 324.187 208.76 324.489 208.779C328.566 208.944 332.659 206.343 334.27 202.619C334.717 201.584 335.35 199.568 334.556 197.696C334.46 197.468 334.342 197.253 334.206 197.054C333.735 197.514 333.222 197.931 332.673 198.293C331.552 199.032 329.878 199.514 328.842 198.441C328.23 197.805 328.109 196.736 328.556 195.899C328.931 195.197 329.65 194.672 330.529 194.462C331.791 194.16 333.165 194.576 334.209 195.47C335.448 193.947 336.244 192.048 336.401 190.104C336.635 187.205 335.451 184.179 333.312 182.208C333.094 182.009 333.081 181.671 333.28 181.454C333.481 181.238 333.818 181.223 334.034 181.422C336.41 183.611 337.725 186.971 337.467 190.19C337.288 192.395 336.372 194.544 334.945 196.253C335.181 196.566 335.381 196.91 335.539 197.28C336.242 198.939 336.139 200.985 335.25 203.043C333.496 207.098 329.261 209.853 324.851 209.853ZM331.363 195.429C331.165 195.429 330.97 195.452 330.78 195.497C330.207 195.635 329.726 195.971 329.5 196.398C329.269 196.832 329.317 197.391 329.612 197.697C330.152 198.257 331.273 197.934 332.086 197.399C332.588 197.067 333.06 196.683 333.49 196.259C332.866 195.738 332.104 195.429 331.363 195.429Z" fill="#030047"/>
<path d="M249.371 82.938C249.101 82.938 248.868 82.734 248.84 82.458C248.81 82.164 249.023 81.903 249.317 81.873C252.237 81.5745 255.014 79.473 256.745 76.2525C258.332 73.299 258.906 69.909 259.463 66.6315C259.505 66.378 259.551 66.111 259.589 65.835C258.773 66.0195 257.985 65.9745 257.289 65.685C256.407 65.319 255.726 64.389 255.596 63.3735C255.486 62.5305 255.773 61.7835 256.38 61.32C256.908 60.918 257.588 60.795 258.293 60.972C259.173 61.1925 259.983 61.8645 260.358 62.6835C260.586 63.1815 260.697 63.7005 260.735 64.2195C260.888 64.1295 261.041 64.029 261.192 63.921C263.018 62.613 264.266 60.591 264.621 58.3725C264.668 58.0815 264.941 57.8835 265.232 57.93C265.523 57.9765 265.721 58.2495 265.674 58.542C265.275 61.0395 263.87 63.3165 261.815 64.7895C261.45 65.0505 261.081 65.2695 260.712 65.4435C260.666 65.922 260.589 66.384 260.516 66.81C259.946 70.173 259.356 73.65 257.685 76.758C255.786 80.292 252.698 82.6005 249.425 82.935C249.407 82.938 249.389 82.938 249.371 82.938ZM257.67 61.9635C257.462 61.9635 257.234 62.0145 257.025 62.172C256.622 62.4795 256.619 62.9715 256.653 63.2385C256.736 63.8775 257.165 64.479 257.699 64.701C258.264 64.9365 258.954 64.9305 259.68 64.701C259.682 64.1535 259.608 63.612 259.388 63.1305C259.146 62.6025 258.602 62.1525 258.032 62.01C257.927 61.9845 257.802 61.9635 257.67 61.9635Z" fill="#030047"/>
<path d="M63.258 289.346L59.8965 291.462C58.3185 292.446 56.2455 291.975 55.2585 290.408L53.142 287.046C52.1565 285.479 52.6275 283.406 54.195 282.419L57.5595 280.292C59.127 279.305 61.2 279.777 62.1975 281.346L64.311 284.718C65.298 286.286 64.8255 288.359 63.258 289.346Z" fill="#FFCC3D"/>
<path d="M327.57 274.564L325.024 276.166C323.829 276.912 322.26 276.555 321.513 275.368L319.911 272.823C319.164 271.636 319.521 270.066 320.707 269.319L323.254 267.708C324.441 266.961 326.011 267.318 326.766 268.506L328.366 271.06C329.113 272.247 328.756 273.817 327.57 274.564Z" fill="#FFCC3D"/>
<path d="M64.077 186.748L62.343 187.84C61.5285 188.347 60.459 188.104 59.9505 187.296L58.8585 185.562C58.35 184.753 58.593 183.684 59.4015 183.175L61.137 182.079C61.9455 181.57 63.015 181.813 63.5295 182.623L64.62 184.363C65.1285 185.169 64.8855 186.238 64.077 186.748Z" fill="#FFCC3D"/>
<path d="M322.751 141.746L321.017 142.838C320.202 143.345 319.133 143.102 318.624 142.293L317.532 140.559C317.024 139.751 317.267 138.681 318.075 138.173L319.811 137.076C320.619 136.568 321.689 136.811 322.203 137.621L323.294 139.361C323.802 140.166 323.559 141.236 322.751 141.746Z" fill="#FFCC3D"/>
<path d="M118.167 142.036C116.815 142.036 115.561 141.795 114.404 141.315C113.265 140.817 112.269 140.132 111.415 139.26C110.561 138.37 109.902 137.347 109.44 136.19C108.977 135.016 108.746 133.762 108.746 132.427C108.746 131.093 108.977 129.847 109.44 128.69C109.902 127.516 110.561 126.493 111.415 125.621C112.269 124.749 113.265 124.064 114.404 123.566C115.561 123.068 116.815 122.819 118.167 122.819C119.68 122.819 120.988 123.068 122.091 123.566C123.194 124.064 124.173 124.74 125.027 125.594L122.945 127.676C122.393 127.071 121.717 126.6 120.916 126.262C120.134 125.924 119.217 125.755 118.167 125.755C117.242 125.755 116.397 125.915 115.632 126.235C114.867 126.555 114.199 127.018 113.63 127.623C113.078 128.21 112.651 128.913 112.349 129.731C112.046 130.55 111.895 131.448 111.895 132.427C111.895 133.406 112.046 134.304 112.349 135.123C112.651 135.941 113.078 136.653 113.63 137.258C114.199 137.845 114.867 138.299 115.632 138.619C116.397 138.94 117.242 139.1 118.167 139.1C119.306 139.1 120.267 138.931 121.05 138.593C121.851 138.237 122.527 137.756 123.078 137.151L125.16 139.233C124.306 140.105 123.301 140.79 122.144 141.288C120.988 141.787 119.662 142.036 118.167 142.036ZM132.98 142.036C131.734 142.036 130.604 141.742 129.59 141.155C128.576 140.55 127.766 139.74 127.161 138.726C126.574 137.712 126.28 136.582 126.28 135.336C126.28 134.091 126.574 132.97 127.161 131.973C127.766 130.977 128.576 130.185 129.59 129.598C130.604 128.993 131.734 128.69 132.98 128.69C134.243 128.69 135.382 128.984 136.396 129.571C137.41 130.158 138.211 130.959 138.798 131.973C139.403 132.97 139.706 134.091 139.706 135.336C139.706 136.582 139.403 137.712 138.798 138.726C138.211 139.74 137.41 140.55 136.396 141.155C135.382 141.742 134.243 142.036 132.98 142.036ZM132.98 139.206C133.709 139.206 134.35 139.046 134.901 138.726C135.471 138.388 135.907 137.925 136.209 137.338C136.53 136.751 136.69 136.084 136.69 135.336C136.69 134.589 136.53 133.931 136.209 133.361C135.889 132.792 135.453 132.347 134.901 132.027C134.35 131.689 133.709 131.52 132.98 131.52C132.268 131.52 131.627 131.689 131.058 132.027C130.506 132.347 130.07 132.792 129.75 133.361C129.448 133.931 129.296 134.589 129.296 135.336C129.296 136.084 129.448 136.751 129.75 137.338C130.07 137.925 130.506 138.388 131.058 138.726C131.627 139.046 132.268 139.206 132.98 139.206ZM142.147 141.769V128.957H145.083V141.769H142.147ZM150.661 141.769V134.135C150.661 133.281 150.395 132.623 149.861 132.16C149.327 131.68 148.669 131.44 147.886 131.44C147.352 131.44 146.871 131.546 146.444 131.76C146.035 131.973 145.706 132.285 145.457 132.694C145.208 133.085 145.083 133.566 145.083 134.135L143.935 133.495C143.935 132.516 144.149 131.671 144.576 130.959C145.003 130.247 145.581 129.696 146.311 129.304C147.04 128.895 147.859 128.69 148.766 128.69C149.674 128.69 150.492 128.886 151.222 129.278C151.952 129.669 152.53 130.221 152.957 130.932C153.384 131.644 153.597 132.498 153.597 133.495V141.769H150.661ZM159.176 141.769V134.135C159.176 133.281 158.909 132.623 158.375 132.16C157.841 131.68 157.183 131.44 156.4 131.44C155.884 131.44 155.412 131.546 154.985 131.76C154.558 131.973 154.22 132.285 153.971 132.694C153.722 133.085 153.597 133.566 153.597 134.135L151.943 133.495C152.032 132.516 152.316 131.671 152.797 130.959C153.277 130.247 153.891 129.696 154.638 129.304C155.403 128.895 156.24 128.69 157.147 128.69C158.073 128.69 158.909 128.886 159.656 129.278C160.403 129.669 161 130.221 161.444 130.932C161.889 131.644 162.112 132.498 162.112 133.495V141.769H159.176ZM165.163 141.769V128.957H168.099V141.769H165.163ZM166.631 126.609C166.133 126.609 165.715 126.44 165.377 126.101C165.056 125.763 164.896 125.345 164.896 124.847C164.896 124.349 165.056 123.931 165.377 123.593C165.715 123.255 166.133 123.085 166.631 123.085C167.147 123.085 167.565 123.255 167.886 123.593C168.206 123.931 168.366 124.349 168.366 124.847C168.366 125.345 168.206 125.763 167.886 126.101C167.565 126.44 167.147 126.609 166.631 126.609ZM180.173 141.769V134.375C180.173 133.521 179.897 132.819 179.346 132.267C178.812 131.715 178.118 131.44 177.264 131.44C176.694 131.44 176.187 131.564 175.743 131.813C175.298 132.062 174.951 132.409 174.702 132.854C174.452 133.299 174.328 133.806 174.328 134.375L173.18 133.735C173.18 132.756 173.394 131.893 173.821 131.146C174.248 130.381 174.835 129.785 175.582 129.358C176.348 128.913 177.202 128.69 178.145 128.69C179.106 128.69 179.96 128.94 180.707 129.438C181.454 129.918 182.041 130.55 182.468 131.333C182.896 132.098 183.109 132.899 183.109 133.735V141.769H180.173ZM171.392 141.769V128.957H174.328V141.769H171.392ZM191.431 147.374C190.078 147.374 188.895 147.125 187.881 146.626C186.867 146.146 186.048 145.461 185.425 144.571L187.347 142.65C187.863 143.29 188.45 143.771 189.109 144.091C189.767 144.411 190.559 144.571 191.484 144.571C192.641 144.571 193.557 144.269 194.233 143.664C194.909 143.077 195.247 142.267 195.247 141.235V138.085L195.754 135.256L195.247 132.4V128.957H198.183V141.235C198.183 142.463 197.899 143.53 197.329 144.438C196.76 145.363 195.968 146.084 194.954 146.6C193.94 147.116 192.765 147.374 191.431 147.374ZM191.297 141.502C190.158 141.502 189.126 141.226 188.201 140.674C187.294 140.105 186.573 139.331 186.039 138.352C185.523 137.374 185.265 136.279 185.265 135.069C185.265 133.859 185.523 132.774 186.039 131.813C186.573 130.852 187.294 130.096 188.201 129.545C189.126 128.975 190.158 128.69 191.297 128.69C192.311 128.69 193.201 128.895 193.966 129.304C194.731 129.714 195.327 130.283 195.754 131.013C196.182 131.724 196.395 132.561 196.395 133.521V136.671C196.395 137.614 196.173 138.45 195.728 139.18C195.301 139.909 194.705 140.479 193.94 140.888C193.174 141.297 192.294 141.502 191.297 141.502ZM191.884 138.726C192.596 138.726 193.219 138.575 193.753 138.272C194.287 137.97 194.696 137.552 194.98 137.018C195.283 136.466 195.434 135.826 195.434 135.096C195.434 134.367 195.283 133.735 194.98 133.201C194.696 132.65 194.287 132.222 193.753 131.92C193.219 131.617 192.596 131.466 191.884 131.466C191.173 131.466 190.541 131.617 189.989 131.92C189.456 132.222 189.037 132.65 188.735 133.201C188.432 133.735 188.281 134.367 188.281 135.096C188.281 135.808 188.432 136.44 188.735 136.991C189.037 137.543 189.456 137.97 189.989 138.272C190.541 138.575 191.173 138.726 191.884 138.726ZM212.393 142.036C210.916 142.036 209.662 141.769 208.63 141.235C207.598 140.701 206.672 139.918 205.854 138.886L207.936 136.804C208.452 137.552 209.066 138.139 209.777 138.566C210.489 138.975 211.397 139.18 212.5 139.18C213.532 139.18 214.35 138.966 214.955 138.539C215.578 138.112 215.889 137.525 215.889 136.778C215.889 136.155 215.729 135.648 215.409 135.256C215.089 134.865 214.662 134.545 214.128 134.295C213.612 134.029 213.034 133.797 212.393 133.601C211.77 133.388 211.139 133.157 210.498 132.908C209.875 132.641 209.297 132.311 208.763 131.92C208.247 131.529 207.829 131.021 207.509 130.399C207.188 129.776 207.028 128.984 207.028 128.023C207.028 126.92 207.295 125.986 207.829 125.221C208.381 124.438 209.119 123.842 210.044 123.432C210.97 123.023 212.002 122.819 213.14 122.819C214.368 122.819 215.462 123.059 216.423 123.539C217.402 124.02 218.194 124.634 218.799 125.381L216.717 127.463C216.183 126.858 215.623 126.413 215.035 126.128C214.466 125.826 213.808 125.674 213.06 125.674C212.135 125.674 211.405 125.861 210.872 126.235C210.356 126.609 210.098 127.134 210.098 127.81C210.098 128.379 210.258 128.842 210.578 129.198C210.898 129.536 211.317 129.829 211.833 130.078C212.366 130.31 212.945 130.532 213.567 130.746C214.208 130.959 214.84 131.199 215.462 131.466C216.103 131.733 216.681 132.08 217.197 132.507C217.731 132.916 218.158 133.45 218.478 134.109C218.799 134.767 218.959 135.594 218.959 136.591C218.959 138.263 218.363 139.589 217.171 140.568C215.996 141.546 214.404 142.036 212.393 142.036ZM227.334 142.036C226.089 142.036 224.959 141.742 223.945 141.155C222.931 140.55 222.121 139.74 221.516 138.726C220.929 137.712 220.635 136.582 220.635 135.336C220.635 134.091 220.929 132.97 221.516 131.973C222.121 130.977 222.931 130.185 223.945 129.598C224.959 128.993 226.089 128.69 227.334 128.69C228.598 128.69 229.737 128.984 230.751 129.571C231.765 130.158 232.566 130.959 233.153 131.973C233.758 132.97 234.06 134.091 234.06 135.336C234.06 136.582 233.758 137.712 233.153 138.726C232.566 139.74 231.765 140.55 230.751 141.155C229.737 141.742 228.598 142.036 227.334 142.036ZM227.334 139.206C228.064 139.206 228.705 139.046 229.256 138.726C229.826 138.388 230.261 137.925 230.564 137.338C230.884 136.751 231.044 136.084 231.044 135.336C231.044 134.589 230.884 133.931 230.564 133.361C230.244 132.792 229.808 132.347 229.256 132.027C228.705 131.689 228.064 131.52 227.334 131.52C226.623 131.52 225.982 131.689 225.413 132.027C224.861 132.347 224.425 132.792 224.105 133.361C223.802 133.931 223.651 134.589 223.651 135.336C223.651 136.084 223.802 136.751 224.105 137.338C224.425 137.925 224.861 138.388 225.413 138.726C225.982 139.046 226.623 139.206 227.334 139.206ZM242.374 142.036C241.128 142.036 239.998 141.742 238.984 141.155C237.97 140.55 237.16 139.74 236.555 138.726C235.968 137.712 235.675 136.582 235.675 135.336C235.675 134.091 235.968 132.97 236.555 131.973C237.16 130.977 237.97 130.185 238.984 129.598C239.998 128.993 241.128 128.69 242.374 128.69C243.637 128.69 244.776 128.984 245.79 129.571C246.804 130.158 247.605 130.959 248.192 131.973C248.797 132.97 249.1 134.091 249.1 135.336C249.1 136.582 248.797 137.712 248.192 138.726C247.605 139.74 246.804 140.55 245.79 141.155C244.776 141.742 243.637 142.036 242.374 142.036ZM242.374 139.206C243.103 139.206 243.744 139.046 244.296 138.726C244.865 138.388 245.301 137.925 245.603 137.338C245.924 136.751 246.084 136.084 246.084 135.336C246.084 134.589 245.924 133.931 245.603 133.361C245.283 132.792 244.847 132.347 244.296 132.027C243.744 131.689 243.103 131.52 242.374 131.52C241.662 131.52 241.022 131.689 240.452 132.027C239.901 132.347 239.465 132.792 239.144 133.361C238.842 133.931 238.691 134.589 238.691 135.336C238.691 136.084 238.842 136.751 239.144 137.338C239.465 137.925 239.901 138.388 240.452 138.726C241.022 139.046 241.662 139.206 242.374 139.206ZM260.322 141.769V134.375C260.322 133.521 260.047 132.819 259.495 132.267C258.961 131.715 258.267 131.44 257.413 131.44C256.844 131.44 256.337 131.564 255.892 131.813C255.447 132.062 255.1 132.409 254.851 132.854C254.602 133.299 254.477 133.806 254.477 134.375L253.33 133.735C253.33 132.756 253.543 131.893 253.97 131.146C254.397 130.381 254.984 129.785 255.732 129.358C256.497 128.913 257.351 128.69 258.294 128.69C259.255 128.69 260.109 128.94 260.856 129.438C261.604 129.918 262.191 130.55 262.618 131.333C263.045 132.098 263.258 132.899 263.258 133.735V141.769H260.322ZM251.541 141.769V128.957H254.477V141.769H251.541ZM266.882 135.577L266.482 122.552H269.552L269.151 135.577H266.882ZM268.003 142.036C267.434 142.036 266.963 141.849 266.589 141.475C266.233 141.084 266.055 140.612 266.055 140.061C266.055 139.491 266.233 139.02 266.589 138.646C266.963 138.272 267.434 138.085 268.003 138.085C268.573 138.085 269.036 138.272 269.391 138.646C269.765 139.02 269.952 139.491 269.952 140.061C269.952 140.612 269.765 141.084 269.391 141.475C269.036 141.849 268.573 142.036 268.003 142.036Z" fill="white"/>
</svg>
