<svg width="67" height="68" viewBox="0 0 67 68" fill="none" xmlns="http://www.w3.org/2000/svg">
<g opacity="0.1" clip-path="url(#clip0_4381_99417)">
<path d="M57.1104 60.2144C56.3724 60.7553 55.7482 61.4363 55.2735 62.2185C54.7988 63.0007 54.4829 63.8687 54.3437 64.773C54.2046 65.6774 54.245 66.6002 54.4627 67.4889C54.6803 68.3776 55.0709 69.2147 55.6122 69.9524C57.8823 73.0793 62.2369 73.7931 65.3354 71.5435C68.434 69.294 69.1009 64.9344 66.8308 61.8076C64.5587 58.6779 60.2089 57.9649 57.1104 60.2144ZM40.6047 62.5008L47.4774 63.6268C47.7508 61.8235 48.3797 60.0924 49.3278 58.5342C50.2759 56.976 51.5243 55.6218 53.0002 54.5502C54.4762 53.4786 56.1505 52.711 57.9257 52.2921C59.7009 51.8731 61.5417 51.8111 63.341 52.1097L64.3958 45.2282C61.6972 44.7801 58.9365 44.8729 56.2741 45.5012C53.6117 46.1294 51.1007 47.2805 48.887 48.8877C46.6734 50.4948 44.8012 52.5259 43.3794 54.8628C41.9576 57.1998 41.0144 59.7961 40.6047 62.5008ZM26.8551 60.243L33.7278 61.369C34.2744 57.7633 35.532 54.3021 37.4277 51.1865C39.3234 48.071 41.8194 45.3633 44.7706 43.2207C47.7218 41.0781 51.0694 39.5433 54.6188 38.7056C58.1682 37.8679 61.8488 37.744 65.4465 38.341L66.507 31.4553C62.0094 30.7091 57.4083 30.8641 52.9712 31.9113C48.534 32.9586 44.3492 34.8772 40.6599 37.5556C36.9706 40.2341 33.8503 43.619 31.4805 47.5138C29.1106 51.4085 27.5384 55.7354 26.8551 60.243ZM13.1068 57.9929L19.9795 59.1189C20.7991 53.7093 22.6856 48.5166 25.5295 43.8424C28.3734 39.1682 32.1179 35.1059 36.5455 31.8915C40.973 28.677 45.9952 26.3746 51.3203 25.118C56.6454 23.8614 62.1671 23.6757 67.5646 24.5717L68.6222 17.6881C62.3252 16.6428 55.8833 16.8594 49.6707 18.3254C43.4581 19.7914 37.5989 22.4775 32.4335 26.2277C27.2681 29.9778 22.8995 34.7172 19.5817 40.1703C16.2639 45.6235 14.0629 51.6817 13.1068 57.9929Z" fill="#00935E"/>
</g>
<defs>
<clipPath id="clip0_4381_99417">
<rect width="70" height="70" fill="white" transform="translate(0 41.1252) rotate(-35.98)"/>
</clipPath>
</defs>
</svg>
