<svg width="57" height="56" viewBox="0 0 57 56" fill="none" xmlns="http://www.w3.org/2000/svg">
<circle cx="28.75" cy="28" r="28" fill="#179EDB"/>
<g clip-path="url(#clip0_2490_66075)">
<path d="M50.416 26.7522H49.4492C49.2795 26.7522 49.1023 26.922 49.1023 26.922L45.4418 31.7265C45.3754 31.8298 45.272 31.8298 45.1982 31.7265L41.7812 26.922C41.7812 26.922 41.641 26.7522 41.4049 26.7522H34.9103C34.807 26.7522 34.7037 26.6489 34.7037 26.5456V24.9589C34.7037 24.7153 34.5339 24.5456 34.2904 24.5456H24.3051C22.7479 24.612 22.091 24.7522 21.4047 25.1655C20.7478 25.5419 20.401 26.029 20.401 26.6194C20.401 27.2393 20.9176 27.8593 21.9213 28.4497C22.1944 28.6194 23.1316 29.0696 24.7184 29.8002C25.7221 30.2873 26.2756 30.6637 26.2387 31.0401C26.1722 31.66 25.6187 31.8667 24.3051 31.8667H18.2607C18.1205 31.8667 17.9877 31.8298 17.9877 31.7265C17.9877 31.66 18.0246 31.6231 18.091 31.5862C19.4416 30.7597 19.8844 29.6895 19.8844 28.6858C19.8844 26.7892 18.3272 24.5382 12.1131 24.5382H6.68868C6.44513 24.5382 6.27539 24.708 6.27539 24.9515V32.3464C6.27539 32.5899 6.44513 32.7597 6.68868 32.7597H12.1131C12.3197 32.7597 12.5264 32.7597 12.7035 32.7597H26.2756C27.5154 32.7597 28.4896 32.553 29.176 32.1398C29.8328 31.7634 30.1428 31.2763 30.1428 30.6859C30.1428 30.0659 29.6262 29.4755 28.6225 28.8556C28.3789 28.6858 27.4121 28.2357 25.8254 27.505C24.8217 27.0548 24.3051 26.6784 24.3051 26.3685C24.3051 25.7486 24.9619 25.4386 26.2756 25.4386H30.866C30.9693 25.4386 31.0727 25.5419 31.0727 25.6452V30.9958C31.0727 31.7929 31.5893 32.7228 33.176 32.7228H45.7813C46.0912 32.7228 46.2315 32.5161 46.2315 32.5161L50.5488 26.8482C50.5193 26.8851 50.5931 26.7522 50.416 26.7522ZM11.2865 31.8593H9.93594C9.83262 31.8593 9.7293 31.756 9.7293 31.6527V25.6083C9.7293 25.505 9.83262 25.4017 9.93594 25.4017H11.2865C14.6002 25.4017 16.3271 26.7522 16.3271 28.612C16.3271 30.5161 14.5633 31.8593 11.2865 31.8593ZM41.5377 31.8962H35.7074C34.9103 31.8962 34.7037 31.6527 34.7037 31.0327V27.7855C34.7037 27.6821 34.807 27.6157 34.9103 27.6157H38.2978C38.4011 27.6157 38.5414 27.6821 38.6078 27.7559L41.6484 31.7265C41.6779 31.8298 41.6484 31.8962 41.5377 31.8962Z" fill="white"/>
</g>
<g clip-path="url(#clip1_2490_66075)">
<path d="M50.166 26.7522H49.1992C49.0295 26.7522 48.8523 26.922 48.8523 26.922L45.1918 31.7265C45.1254 31.8298 45.022 31.8298 44.9482 31.7265L41.5312 26.922C41.5312 26.922 41.391 26.7522 41.1549 26.7522H34.6603C34.557 26.7522 34.4537 26.6489 34.4537 26.5456V24.9589C34.4537 24.7153 34.2839 24.5456 34.0404 24.5456H24.0551C22.4979 24.612 21.841 24.7522 21.1547 25.1655C20.4978 25.5419 20.151 26.029 20.151 26.6194C20.151 27.2393 20.6676 27.8593 21.6713 28.4497C21.9444 28.6194 22.8816 29.0696 24.4684 29.8002C25.4721 30.2873 26.0256 30.6637 25.9887 31.0401C25.9222 31.66 25.3687 31.8667 24.0551 31.8667H18.0107C17.8705 31.8667 17.7377 31.8298 17.7377 31.7265C17.7377 31.66 17.7746 31.6231 17.841 31.5862C19.1916 30.7597 19.6344 29.6895 19.6344 28.6858C19.6344 26.7892 18.0772 24.5382 11.8631 24.5382H6.43868C6.19513 24.5382 6.02539 24.708 6.02539 24.9515V32.3464C6.02539 32.5899 6.19513 32.7597 6.43868 32.7597H11.8631C12.0697 32.7597 12.2764 32.7597 12.4535 32.7597H26.0256C27.2654 32.7597 28.2396 32.553 28.926 32.1398C29.5828 31.7634 29.8928 31.2763 29.8928 30.6859C29.8928 30.0659 29.3762 29.4755 28.3725 28.8556C28.1289 28.6858 27.1621 28.2357 25.5754 27.505C24.5717 27.0548 24.0551 26.6784 24.0551 26.3685C24.0551 25.7486 24.7119 25.4386 26.0256 25.4386H30.616C30.7193 25.4386 30.8227 25.5419 30.8227 25.6452V30.9958C30.8227 31.7929 31.3393 32.7228 32.926 32.7228H45.5313C45.8412 32.7228 45.9815 32.5161 45.9815 32.5161L50.2988 26.8482C50.2693 26.8851 50.3431 26.7522 50.166 26.7522ZM11.0365 31.8593H9.68594C9.58262 31.8593 9.4793 31.756 9.4793 31.6527V25.6083C9.4793 25.505 9.58262 25.4017 9.68594 25.4017H11.0365C14.3502 25.4017 16.0771 26.7522 16.0771 28.612C16.0771 30.5161 14.3133 31.8593 11.0365 31.8593ZM41.2877 31.8962H35.4574C34.6603 31.8962 34.4537 31.6527 34.4537 31.0327V27.7855C34.4537 27.6821 34.557 27.6157 34.6603 27.6157H38.0478C38.1511 27.6157 38.2914 27.6821 38.3578 27.7559L41.3984 31.7265C41.4279 31.8298 41.3984 31.8962 41.2877 31.8962Z" fill="white"/>
</g>
<defs>
<clipPath id="clip0_2490_66075">
<rect width="44.8" height="8.2963" fill="white" transform="translate(6 24.5)"/>
</clipPath>
<clipPath id="clip1_2490_66075">
<rect width="44.8" height="8.2963" fill="white" transform="translate(5.75 24.5)"/>
</clipPath>
</defs>
</svg>
