<svg width="71" height="63" viewBox="0 0 71 63" fill="none" xmlns="http://www.w3.org/2000/svg">
<g opacity="0.1" clip-path="url(#clip0_4381_99443)">
<path d="M52.4178 60.2085C52.0658 60.3615 51.6802 60.4207 51.2992 60.3802L29.2315 58.0393C29.0394 58.0181 28.8447 58.0476 28.6671 58.1249C28.4895 58.2022 28.3352 58.3245 28.2198 58.4796C28.1044 58.6346 28.0319 58.817 28.0096 59.0082C27.9873 59.1994 28.0161 59.3928 28.0929 59.5689L32.1928 69.0003C32.3481 69.3585 32.5973 69.6682 32.9144 69.8974C33.2315 70.1265 33.605 70.2667 33.9962 70.3035L56.5591 72.4216C56.9315 72.4565 57.3073 72.3965 57.651 72.247C57.9947 72.0976 58.295 71.8638 58.5235 71.5677L72.3656 53.6242C72.6056 53.3132 72.7579 52.9444 72.8066 52.5562C72.8554 52.168 72.7989 51.7745 72.6429 51.4166L68.5431 41.9852C68.4667 41.8089 68.3449 41.656 68.1899 41.5418C68.0349 41.4276 67.8521 41.3563 67.66 41.3349C67.4679 41.3136 67.2732 41.3429 67.0955 41.4201C66.9178 41.4972 66.7635 41.6194 66.6479 41.7744L53.3065 59.5076C53.0762 59.8138 52.7699 60.0554 52.4178 60.2085Z" fill="#5136C1"/>
<path d="M73.071 24.7693C73.071 24.7693 73.0667 24.7593 73.065 24.7555C72.8941 24.4517 72.6524 24.1934 72.3601 24.0021C72.0677 23.8107 71.7332 23.6918 71.3845 23.6554L36.0928 19.9148C35.7118 19.8743 35.3262 19.9336 34.9741 20.0866C34.6221 20.2397 34.3157 20.4812 34.0854 20.7874L12.7469 49.1451C12.5137 49.4552 12.3667 49.8205 12.3208 50.2041C12.2749 50.5877 12.3316 50.976 12.4853 51.3295C12.639 51.6831 12.8842 51.9895 13.1961 52.2176C13.5079 52.4456 13.8753 52.5873 14.2611 52.6283L49.5527 56.369C49.9337 56.4094 50.3193 56.3502 50.6714 56.1971C51.0234 56.0441 51.3298 55.8025 51.5601 55.4964L70.3346 30.5475C70.3635 30.5087 70.4021 30.4781 70.4466 30.4588C70.4911 30.4395 70.5398 30.4322 70.5879 30.4376C70.636 30.443 70.6817 30.461 70.7205 30.4896C70.7592 30.5183 70.7896 30.5566 70.8086 30.6008L78.6862 48.7226C79.1554 49.8022 80.3951 50.365 81.5069 49.9458C81.786 49.84 82.041 49.6791 82.2563 49.4727C82.4717 49.2664 82.6429 49.019 82.7597 48.7455C82.8764 48.472 82.9363 48.1781 82.9356 47.8816C82.9349 47.5851 82.8737 47.2922 82.7557 47.0207L73.1629 24.953C73.1354 24.8902 73.1048 24.8289 73.071 24.7693Z" fill="#5136C1"/>
</g>
<defs>
<clipPath id="clip0_4381_99443">
<rect width="70.5707" height="70" fill="white" transform="translate(0 28.1339) rotate(-23.4946)"/>
</clipPath>
</defs>
</svg>
