<svg width="24" height="24" viewBox="0 0 24 24" fill="none" xmlns="http://www.w3.org/2000/svg">
<path fill-rule="evenodd" clip-rule="evenodd" d="M6.53494 13.1426C7.01619 13.7306 8.24014 15.9088 8.49999 17H15.5C15.7599 15.9096 16.9824 13.7314 17.4636 13.1442C18.2881 12.1358 18.8049 10.9198 18.9547 9.63625C19.1045 8.35265 18.881 7.0537 18.3102 5.8891C17.7393 4.72446 16.8442 3.7415 15.728 3.05344C14.6118 2.36538 13.3199 2.00021 12.0011 2C10.6823 1.9998 9.39029 2.36456 8.27384 3.05227C7.15744 3.73997 6.26199 4.72266 5.69079 5.8871C5.11954 7.05155 4.89568 8.3504 5.04504 9.63405C5.19439 10.9177 5.71084 12.1339 6.53494 13.1426ZM12.5 6L9.49999 10.5H11.5V13.5L14.5 9H12.5V6Z" fill="#573CC7"/>
<path d="M8.5 18H15.5V19H8.5V18Z" fill="#573CC7"/>
<path d="M8.5 20H15.5V21C15.5 21.5523 15.0523 22 14.5 22H9.5C8.9477 22 8.5 21.5523 8.5 21V20Z" fill="#573CC7"/>
</svg>
