<svg width="65" height="71" viewBox="0 0 65 71" fill="none" xmlns="http://www.w3.org/2000/svg">
<g opacity="0.1" clip-path="url(#clip0_4381_99419)">
<path fill-rule="evenodd" clip-rule="evenodd" d="M34.6743 59.9246C36.7443 60.7162 42.9977 64.4581 45.236 66.8443L62.9576 56.7061C62.0364 53.5693 61.9766 46.2841 62.3445 44.1007C62.9713 40.3537 62.5186 36.5265 61.0387 33.0601C59.5589 29.5935 57.1119 26.6286 53.98 24.507C50.848 22.3853 47.1583 21.1931 43.3359 21.0678C39.5135 20.9425 35.7139 21.8892 32.3748 23.7987C29.0357 25.7082 26.2931 28.5029 24.4627 31.8609C22.6323 35.2188 21.7886 39.0036 22.029 42.7788C22.2693 46.5542 23.5837 50.1666 25.8209 53.2001C28.0582 56.2336 31.1271 58.5646 34.6743 59.9246ZM39.4311 33.2028L38.3536 48.9402L43.4169 46.0436L47.7618 53.6386L48.8394 37.9011L43.7761 40.7978L39.4311 33.2028Z" fill="#00935E"/>
<path d="M47.5918 68.0189L65.3134 57.8807L66.7618 60.4124L49.0401 70.5506L47.5918 68.0189Z" fill="#00935E"/>
<path d="M50.4834 73.0823L68.205 62.9441L69.6534 65.4758C70.4533 66.874 69.9683 68.6559 68.57 69.4558L55.9117 76.6973C54.5135 77.4973 52.7316 77.0122 51.9317 75.614L50.4834 73.0823Z" fill="#00935E"/>
</g>
<defs>
<clipPath id="clip0_4381_99419">
<rect width="70" height="70" fill="white" transform="translate(0 34.7596) rotate(-29.7731)"/>
</clipPath>
</defs>
</svg>
