<svg width="69" height="63" viewBox="0 0 69 63" fill="none" xmlns="http://www.w3.org/2000/svg">
<g opacity="0.1" clip-path="url(#clip0_4442_99335)">
<path fill-rule="evenodd" clip-rule="evenodd" d="M66.3441 33.206L75.5256 44.5361C76.9867 46.3391 77.6717 48.6486 77.4299 50.9566C77.1881 53.2647 76.0394 55.3821 74.2364 56.8432L65.1723 64.1884L50.4818 46.0601L66.3441 33.206ZM45.9497 49.7327L60.6402 67.861L51.5761 75.2063C49.7731 76.6673 47.4636 77.3523 45.1556 77.1105C42.8476 76.8688 40.7301 75.72 39.269 73.9171L30.0875 62.5869L45.9497 49.7327ZM21.2183 28.479C22.5042 27.4368 23.9971 26.6802 25.5978 26.2594C27.1986 25.8386 28.8706 25.7632 30.5027 26.0383C30.5719 24.3845 30.9921 22.7645 31.7355 21.2857C32.4789 19.8068 33.5285 18.5031 34.8145 17.4611L35.9475 16.543C36.849 15.8124 38.0038 15.4699 39.1578 15.5908C40.3118 15.7117 41.3705 16.2861 42.101 17.1876L43.0192 18.3206C44.3578 19.9725 45.1702 21.8783 45.4795 23.8351L51.2239 19.18C52.4258 18.206 53.9655 17.7493 55.5042 17.9105C57.0429 18.0717 58.4545 18.8375 59.4286 20.0395L63.1012 24.5715C63.7696 25.3964 64.1778 26.3495 64.3302 27.3297L46.8092 41.528L41.3003 34.7299C40.8133 34.129 40.1074 33.746 39.3381 33.6655C38.5688 33.5849 37.7989 33.8132 37.1979 34.3002C36.5969 34.7872 36.214 35.4931 36.1334 36.2624C36.0529 37.0317 36.2812 37.8016 36.7682 38.4026L42.2771 45.2007L24.7561 59.399C23.8 59.0324 22.9573 58.4206 22.3125 57.6251L18.6399 53.093C17.6659 51.8911 17.2092 50.3514 17.3704 48.8127C17.5316 47.274 18.2974 45.8624 19.4994 44.8883L25.2438 40.2333C23.3322 39.4993 21.6474 38.2751 20.3588 36.6837L19.4407 35.5506C18.7101 34.6492 18.3676 33.4944 18.4885 32.3404C18.6094 31.1864 19.1838 30.1277 20.0853 29.3971L21.2183 28.479ZM24.8909 33.011C25.8649 34.213 27.2766 34.9788 28.8152 35.14C30.3539 35.3012 31.8936 34.8445 33.0956 33.8705C32.1215 32.6685 30.7099 31.9027 29.1712 31.7415C27.6326 31.5803 26.0929 32.037 24.8909 33.011ZM38.4871 21.9932C37.2851 22.9672 36.5193 24.3789 36.3581 25.9175C36.197 27.4562 36.6536 28.9959 37.6277 30.1979C38.8296 29.2238 39.5954 27.8122 39.7566 26.2735C39.9178 24.7349 39.4611 23.1952 38.4871 21.9932Z" fill="#CC2525"/>
</g>
<defs>
<clipPath id="clip0_4442_99335">
<rect width="70.5" height="65.6242" fill="white" transform="translate(0 44.3862) rotate(-39.02)"/>
</clipPath>
</defs>
</svg>
