<svg width="63" height="60" viewBox="0 0 63 60" fill="none" xmlns="http://www.w3.org/2000/svg">
<rect width="63" height="60" rx="10" fill="#292D32"/>
<g clip-path="url(#clip0_368_127939)">
<path d="M32.0952 45.9237C40.5275 45.9237 47.3632 39.088 47.3632 30.6557C47.3632 22.2234 40.5275 15.3877 32.0952 15.3877C23.6629 15.3877 16.8271 22.2234 16.8271 30.6557C16.8271 39.088 23.6629 45.9237 32.0952 45.9237Z" fill="#50B651"/>
<path opacity="0.663" fill-rule="evenodd" clip-rule="evenodd" d="M47.3164 30.6128C47.3164 39.0716 40.4593 45.9287 32.0024 45.9287C23.5455 45.9287 16.6865 39.0716 16.6865 30.6128C16.6865 26.8709 16.7914 26.3146 18.2643 24.1843C18.2643 24.1843 18.1883 26.5905 19.9526 28.0223C21.0497 28.9119 22.1946 28.2697 24.2903 27.3045C26.5574 26.2595 28.4004 25.5854 29.8383 25.7632C32.0043 26.0315 38.6805 30.0409 42.1648 29.2425C44.9483 28.606 44.6545 22.0434 44.6545 22.0434C47.6945 25.012 47.3164 27.0184 47.3164 30.6128Z" fill="url(#paint0_linear_368_127939)"/>
<path opacity="0.586" fill-rule="evenodd" clip-rule="evenodd" d="M38.5742 41.8626C44.1134 36.6523 45.0341 30.6833 41.3364 23.9555C41.3552 23.9692 41.5839 23.1798 42.0227 21.5873C43.9906 23.9704 45.037 26.9119 45.1619 30.4117C45.1609 34.9448 42.965 38.7618 38.5742 41.8626Z" fill="url(#paint1_linear_368_127939)"/>
<path opacity="0.744" fill-rule="evenodd" clip-rule="evenodd" d="M35.9472 21.619C33.2735 20.1393 30.2061 17.1628 30.6139 16.5377C31.0216 15.9126 36.3139 16.0201 38.9879 17.4998C41.662 18.9795 43.9378 23.4183 43.5304 24.0434C43.1231 24.6685 38.6208 23.0987 35.9472 21.619Z" fill="url(#paint2_radial_368_127939)"/>
<path fill-rule="evenodd" clip-rule="evenodd" d="M38.276 34.4158C36.0579 34.4158 34.2598 32.5663 34.2598 30.2852C34.2598 28.004 36.0579 26.155 38.276 26.155C40.494 26.155 42.2926 28.004 42.2926 30.2852C42.2926 32.5663 40.4944 34.4158 38.276 34.4158ZM38.3045 33.1055C39.6888 33.1055 40.8125 31.8428 40.8125 30.2852C40.8125 28.7276 39.6888 27.466 38.3045 27.466C36.9201 27.466 35.7965 28.7287 35.7965 30.2859C35.7965 31.8432 36.9201 33.1055 38.3045 33.1055Z" fill="white"/>
<path fill-rule="evenodd" clip-rule="evenodd" d="M29.9893 22.8292H32.8833V34.3698H31.2946V24.095H29.9893V22.8292Z" fill="white"/>
<path fill-rule="evenodd" clip-rule="evenodd" d="M27.8325 26.2724H29.3347V35.9099C29.3347 36.7881 28.4109 37.7028 27.5107 38.0964C27.0851 38.2824 26.2997 38.3928 25.1547 38.4278V37.4691C26.2747 37.3442 27.0306 37.095 27.4225 36.7216C27.6487 36.4073 27.79 36.0401 27.8329 35.6553V32.8239C27.4314 33.6759 26.9257 34.2407 26.3159 34.5184C25.6821 34.8604 24.392 34.8041 23.8653 34.5184C23.3386 34.2326 22.5661 33.4802 22.2119 32.3596C22.1139 32.0503 21.8699 31.2086 21.8954 30.3167C21.9182 29.4674 22.1994 28.5687 22.4331 28.1993C22.8344 27.5685 23.4671 26.7785 24.4254 26.4483C24.8936 26.2869 25.7613 26.2289 27.0284 26.2743V27.2277C26.0868 27.1641 25.4993 27.1959 25.266 27.3231C24.916 27.5131 24.126 27.7475 23.8653 29.4693C23.6046 31.1911 23.8729 32.6001 24.6994 33.0413C24.9825 33.1933 25.4834 33.373 25.9462 33.2146C26.8354 32.9106 27.6722 31.8264 27.736 31.0919C27.8004 30.3466 27.8325 28.7401 27.8325 26.2724Z" fill="white"/>
<path fill-rule="evenodd" clip-rule="evenodd" d="M46.8353 33.6783C45.4168 40.5088 39.3641 45.6411 32.1134 45.6411C23.8092 45.6411 17.0771 38.909 17.0771 30.6049C17.0771 25.446 19.6752 20.894 23.634 18.1865C20.4173 20.8541 18.3691 24.884 18.3691 29.3904C18.3691 37.4285 24.8854 43.9444 32.9231 43.9444C39.469 43.9444 45.0049 39.6234 46.8353 33.6783Z" fill="url(#paint3_radial_368_127939)"/>
</g>
<defs>
<linearGradient id="paint0_linear_368_127939" x1="31.4108" y1="24.1349" x2="33.3738" y2="41.8631" gradientUnits="userSpaceOnUse">
<stop stop-color="#123214"/>
<stop offset="0.46" stop-color="#3E7C37"/>
<stop offset="0.91" stop-color="#5FBB46"/>
</linearGradient>
<linearGradient id="paint1_linear_368_127939" x1="42.7514" y1="22.9824" x2="42.7514" y2="37.3181" gradientUnits="userSpaceOnUse">
<stop stop-color="white" stop-opacity="0"/>
<stop offset="0.64" stop-color="white" stop-opacity="0.43"/>
<stop offset="1" stop-color="white" stop-opacity="0.42"/>
</linearGradient>
<radialGradient id="paint2_radial_368_127939" cx="0" cy="0" r="1" gradientUnits="userSpaceOnUse" gradientTransform="translate(37.3975 20.391) rotate(26.7606) scale(7.54464 3.14221)">
<stop offset="0.13" stop-color="white"/>
<stop offset="0.29" stop-color="white" stop-opacity="0.69"/>
<stop offset="0.45" stop-color="white" stop-opacity="0.4"/>
<stop offset="0.59" stop-color="white" stop-opacity="0.18"/>
<stop offset="0.69" stop-color="white" stop-opacity="0.05"/>
<stop offset="0.74" stop-color="white" stop-opacity="0"/>
</radialGradient>
<radialGradient id="paint3_radial_368_127939" cx="0" cy="0" r="1" gradientUnits="userSpaceOnUse" gradientTransform="translate(34.6917 27.1405) rotate(39.84) scale(16.9073 18.429)">
<stop offset="0.86" stop-opacity="0"/>
<stop offset="0.98" stop-opacity="0.47"/>
<stop offset="1"/>
</radialGradient>
<clipPath id="clip0_368_127939">
<rect width="32" height="31" fill="white" transform="translate(16 15)"/>
</clipPath>
</defs>
</svg>
