<svg width="127" height="127" viewBox="0 0 127 127" fill="none" xmlns="http://www.w3.org/2000/svg">
<rect width="127" height="127" rx="63.5" fill="#292D32"/>
<path d="M63.7159 99.8204C82.9521 99.8204 98.5461 83.7234 98.5461 63.8667C98.5461 44.01 82.9521 27.913 63.7159 27.913C44.4797 27.913 28.8857 44.01 28.8857 63.8667C28.8857 83.7234 44.4797 99.8204 63.7159 99.8204Z" fill="#50B651"/>
<path opacity="0.663" fill-rule="evenodd" clip-rule="evenodd" d="M98.4399 63.7656C98.4399 83.6847 82.7971 99.832 63.5048 99.832C44.2125 99.832 28.5654 83.6847 28.5654 63.7656C28.5654 54.9541 28.8047 53.644 32.1647 48.6276C32.1647 48.6276 31.9913 54.2937 36.0162 57.6655C38.5189 59.7603 41.1308 58.248 45.9116 55.9751C51.0834 53.5143 55.2877 51.9269 58.568 52.3456C63.5092 52.9774 78.7393 62.4188 86.6877 60.5388C93.0375 59.0399 92.3674 43.5861 92.3674 43.5861C99.3024 50.5765 98.4399 55.3013 98.4399 63.7656Z" fill="url(#paint0_linear_2329_108058)"/>
<path opacity="0.586" fill-rule="evenodd" clip-rule="evenodd" d="M78.4971 90.2572C91.1332 77.9878 93.2337 63.9317 84.7984 48.0888C84.8412 48.1211 85.363 46.2622 86.364 42.5122C90.8532 48.124 93.2403 55.0507 93.5252 63.2922C93.5229 73.967 88.5135 82.9553 78.4971 90.2572Z" fill="url(#paint1_linear_2329_108058)"/>
<path opacity="0.744" fill-rule="evenodd" clip-rule="evenodd" d="M72.5032 42.5866C66.4039 39.1021 59.4065 32.0929 60.3367 30.6209C61.2668 29.1488 73.3398 29.4021 79.44 32.8866C85.5402 36.3711 90.7319 46.8237 89.8026 48.2957C88.8733 49.7677 78.6026 46.0711 72.5032 42.5866Z" fill="url(#paint2_radial_2329_108058)"/>
<path fill-rule="evenodd" clip-rule="evenodd" d="M77.8163 72.7211C72.7563 72.7211 68.6543 68.3659 68.6543 62.9942C68.6543 57.6225 72.7563 53.2682 77.8163 53.2682C82.8762 53.2682 86.9792 57.6225 86.9792 62.9942C86.9792 68.3659 82.8771 72.7211 77.8163 72.7211ZM77.8813 69.6357C81.0393 69.6357 83.6027 66.6621 83.6027 62.9942C83.6027 59.3262 81.0393 56.3554 77.8813 56.3554C74.7233 56.3554 72.1599 59.3289 72.1599 62.996C72.1599 66.663 74.7233 69.6357 77.8813 69.6357Z" fill="white"/>
<path fill-rule="evenodd" clip-rule="evenodd" d="M58.9121 45.4366H65.5142V72.6129H61.8898V48.4174H58.9121V45.4366Z" fill="white"/>
<path fill-rule="evenodd" clip-rule="evenodd" d="M53.9916 53.5447H57.4184V76.2396C57.4184 78.3076 55.311 80.4615 53.2574 81.3885C52.2865 81.8264 50.495 82.0865 47.8828 82.1688V79.9111C50.4377 79.617 52.1622 79.0303 53.0563 78.151C53.5722 77.4109 53.8946 76.5462 53.9925 75.6401V68.9726C53.0765 70.9788 51.923 72.3089 50.5319 72.9627C49.086 73.7681 46.143 73.6356 44.9415 72.9627C43.74 72.2898 41.9776 70.518 41.1697 67.8791C40.946 67.1507 40.3895 65.1687 40.4476 63.0685C40.4996 61.0685 41.1411 58.9522 41.6742 58.0824C42.5896 56.597 44.033 54.7366 46.2192 53.959C47.2872 53.579 49.2666 53.4424 52.1573 53.5492V55.7943C50.0092 55.6446 48.669 55.7195 48.1368 56.0189C47.3384 56.4663 45.5361 57.0185 44.9415 61.073C44.3468 65.1275 44.9588 68.4456 46.8443 69.4845C47.4901 69.8424 48.6326 70.2657 49.6885 69.8925C51.717 69.1766 53.6258 66.6237 53.7714 64.8939C53.9182 63.1389 53.9916 59.3558 53.9916 53.5447Z" fill="white"/>
<path fill-rule="evenodd" clip-rule="evenodd" d="M97.3439 70.9843C94.1078 87.0691 80.3002 99.1547 63.7594 99.1547C44.8156 99.1547 29.458 83.3018 29.458 63.7469C29.458 51.5985 35.3848 40.8793 44.4159 34.5035C37.0778 40.7853 32.4054 50.2751 32.4054 60.887C32.4054 79.8155 47.2706 95.1593 65.6067 95.1593C80.5395 95.1593 93.1681 84.9841 97.3439 70.9843Z" fill="url(#paint3_radial_2329_108058)"/>
<defs>
<linearGradient id="paint0_linear_2329_108058" x1="62.1551" y1="48.5113" x2="66.9232" y2="90.225" gradientUnits="userSpaceOnUse">
<stop stop-color="#123214"/>
<stop offset="0.46" stop-color="#3E7C37"/>
<stop offset="0.91" stop-color="#5FBB46"/>
</linearGradient>
<linearGradient id="paint1_linear_2329_108058" x1="88.0262" y1="45.7974" x2="88.0262" y2="79.5556" gradientUnits="userSpaceOnUse">
<stop stop-color="white" stop-opacity="0"/>
<stop offset="0.64" stop-color="white" stop-opacity="0.43"/>
<stop offset="1" stop-color="white" stop-opacity="0.42"/>
</linearGradient>
<radialGradient id="paint2_radial_2329_108058" cx="0" cy="0" r="1" gradientUnits="userSpaceOnUse" gradientTransform="translate(75.8119 39.6948) rotate(27.4988) scale(17.3252 7.35071)">
<stop offset="0.13" stop-color="white"/>
<stop offset="0.29" stop-color="white" stop-opacity="0.69"/>
<stop offset="0.45" stop-color="white" stop-opacity="0.4"/>
<stop offset="0.59" stop-color="white" stop-opacity="0.18"/>
<stop offset="0.69" stop-color="white" stop-opacity="0.05"/>
<stop offset="0.74" stop-color="white" stop-opacity="0"/>
</radialGradient>
<radialGradient id="paint3_radial_2329_108058" cx="0" cy="0" r="1" gradientUnits="userSpaceOnUse" gradientTransform="translate(69.6413 55.5888) rotate(40.7372) scale(39.0853 42.825)">
<stop offset="0.86" stop-opacity="0"/>
<stop offset="0.98" stop-opacity="0.47"/>
<stop offset="1"/>
</radialGradient>
</defs>
</svg>
