<svg width="57" height="56" viewBox="0 0 57 56" fill="none" xmlns="http://www.w3.org/2000/svg">
<circle cx="28.25" cy="28" r="28" fill="#1E1E1E"/>
<g clip-path="url(#clip0_2490_66081)">
<path d="M48.8872 25.531H48.0037C47.845 25.531 47.707 25.676 47.7001 25.6829L44.3526 30.0656C44.2905 30.1484 44.187 30.1415 44.1318 30.0587L41.0397 25.6829C41.0397 25.676 40.9224 25.531 40.7085 25.531H34.7728C34.6693 25.531 34.5865 25.4482 34.5865 25.3447V23.8953C34.5865 23.6882 34.4208 23.5226 34.2138 23.5226H32.1363H31.8326H31.6325C31.4254 23.5226 31.2598 23.6882 31.2598 23.8953V24.0609V29.5272C31.3012 30.2174 31.7981 30.9904 33.1647 30.9904H44.6287C44.8979 30.9904 45.0359 30.8179 45.0359 30.8179L48.9631 25.6553C48.9838 25.6553 49.0666 25.531 48.8872 25.531ZM40.8051 30.2105H35.5113C34.7728 30.2105 34.6003 30.0035 34.6003 29.4306V26.4904C34.6003 26.3938 34.6762 26.3109 34.7728 26.304H37.8511C37.9477 26.3109 38.065 26.3662 38.1271 26.4421L40.8879 30.0656C40.9362 30.1484 40.9086 30.2105 40.8051 30.2105Z" fill="#008B3B"/>
<path d="M25.7181 23.3987L25.3385 23.3918H25.1453H24.7656V23.3987C21.0041 23.5092 19.8446 25.2761 19.6928 26.8842H18.4435H18.0846H16.8423H16.7526H16.1314H14.8821C14.7855 26.8911 14.7096 26.967 14.7096 27.0706V27.5399C14.7096 27.6365 14.7855 27.7193 14.8821 27.7262H16.1314H16.6421C16.7457 27.7331 16.8354 27.816 16.8354 27.9195V28.9479V29.4517C16.7733 29.9762 16.2901 30.1626 15.1858 30.1695C12.3422 30.1005 10.8307 28.8926 10.8307 27.2431C10.8307 25.5452 12.4251 24.3098 15.4274 24.3098H16.159H18.2434C18.34 24.3029 18.4159 24.227 18.4159 24.1234V23.6817C18.4159 23.5851 18.34 23.5023 18.2434 23.4954H16.2142H16.1659H14.6958C9.02244 23.4954 7.59375 25.5383 7.59375 27.2293C7.59375 28.9272 9.02244 30.9632 14.6958 30.9632H16.8285C17.9466 30.9632 18.7472 30.8804 19.3822 30.5146C19.6168 30.3766 19.9481 30.1212 19.9964 29.6864V29.6795C19.9964 29.6519 20.0033 29.6242 20.0033 29.5966V29.3137C20.024 29.1756 20.0862 29.1687 20.1 29.1687C20.1552 29.1618 20.1966 29.1756 20.2794 29.2515C20.9558 30.2316 22.3086 31.0115 24.7656 31.0875V31.0944H25.1453H25.3385H25.7181V31.0875C29.7695 30.9701 30.8048 28.9341 30.8048 27.2293C30.8048 25.5521 29.7695 23.5161 25.7181 23.3987ZM25.2764 30.3351C23.9995 30.3489 22.9435 28.9755 22.9297 27.2776C22.909 25.5797 23.9374 24.1856 25.2143 24.1787C26.4911 24.1649 27.5402 25.5383 27.5609 27.2362C27.5747 28.9341 26.5532 30.3213 25.2764 30.3351Z" fill="#E30613"/>
</g>
<defs>
<clipPath id="clip0_2490_66081">
<rect width="42.0003" height="9.00006" fill="white" transform="translate(7.25 22.75)"/>
</clipPath>
</defs>
</svg>
