<svg width="17" height="17" viewBox="0 0 17 17" fill="none" xmlns="http://www.w3.org/2000/svg">
<path d="M2.80114 17C2.39331 17 2.10354 16.9054 1.93182 16.7163C1.78157 16.5271 1.74937 16.2749 1.83523 15.9597L2.73674 12.4604L3.86364 12.6495H1.32008C1.04104 12.6495 0.794192 12.618 0.579545 12.5549C0.386364 12.4919 0.236111 12.3973 0.128788 12.2712C0.0429292 12.1451 0 11.9954 0 11.822C0 11.554 0.107323 11.357 0.32197 11.2309C0.558081 11.089 0.890783 11.0181 1.32008 11.0181H4.2822L3.05871 11.2072L4.57197 5.55633L5.44129 5.79277H1.96402C1.68497 5.79277 1.44886 5.76124 1.25568 5.69819C1.0625 5.61938 0.912247 5.5248 0.804924 5.41446C0.697601 5.28836 0.643939 5.13862 0.643939 4.96523C0.643939 4.69726 0.761995 4.50023 0.998106 4.37413C1.23422 4.23227 1.55619 4.16134 1.96402 4.16134H5.85985L4.82955 4.37413L5.79545 0.851181C5.88131 0.551691 6.0423 0.338896 6.27841 0.212796C6.51452 0.0709319 6.81503 0 7.17992 0C7.56629 0 7.8346 0.0945755 7.98485 0.283727C8.15657 0.457116 8.1995 0.709318 8.11364 1.04033L7.27652 4.16134H11.9129L12.8144 0.851181C12.9003 0.551691 13.0612 0.338896 13.2974 0.212796C13.5335 0.0709319 13.834 0 14.1989 0C14.5852 0 14.8535 0.0945755 15.0038 0.283727C15.1755 0.457116 15.2184 0.709318 15.1326 1.04033L14.2633 4.37413L13.3939 4.16134H15.6799C15.9804 4.16134 16.2273 4.19286 16.4205 4.25591C16.6136 4.31896 16.7532 4.41354 16.839 4.53964C16.9463 4.64998 17 4.79184 17 4.96523C17 5.21743 16.8819 5.42235 16.6458 5.57997C16.4312 5.72184 16.1092 5.79277 15.6799 5.79277H12.9432L13.9413 5.55633L12.428 11.2072L11.5587 11.0181H15.036C15.315 11.0181 15.5511 11.0496 15.7443 11.1127C15.9375 11.1757 16.0878 11.2703 16.1951 11.3964C16.3024 11.5067 16.3561 11.6486 16.3561 11.822C16.3561 12.0899 16.238 12.2949 16.0019 12.4367C15.7872 12.5786 15.4653 12.6495 15.036 12.6495H11.1402L12.1705 12.4604L11.1402 16.1488C11.0758 16.4483 10.9255 16.669 10.6894 16.8109C10.4533 16.937 10.1528 17 9.78788 17C9.40152 17 9.12248 16.9133 8.95076 16.7399C8.77904 16.5508 8.73611 16.2907 8.82197 15.9597L9.72349 12.6495H5.08712L4.15341 16.1488C4.08902 16.4483 3.93876 16.669 3.70265 16.8109C3.46654 16.937 3.16604 17 2.80114 17ZM5.50568 11.0181H10.1098L11.4943 5.79277H6.89015L5.50568 11.0181Z" fill="black"/>
</svg>
