<svg width="375" height="285" viewBox="0 0 375 285" fill="none" xmlns="http://www.w3.org/2000/svg">
<path d="M23.6483 -103.053L178.349 -110.684C236.855 -113.568 293.67 -93.0243 341.504 -51.6897L468.046 57.6514" stroke="#A0A3BD" stroke-opacity="0.39" stroke-width="0.252386" stroke-miterlimit="10" stroke-linecap="round"/>
<path d="M20.4627 -89.8534L175.163 -97.4849C233.67 -100.368 290.485 -79.8249 338.318 -38.4903L464.861 70.8507" stroke="#A0A3BD" stroke-opacity="0.39" stroke-width="0.252386" stroke-miterlimit="10" stroke-linecap="round"/>
<path d="M17.2772 -76.6539L171.977 -84.2855C230.484 -87.169 287.299 -66.6255 335.133 -25.2909L461.675 84.0502" stroke="#A0A3BD" stroke-opacity="0.39" stroke-width="0.252386" stroke-miterlimit="10" stroke-linecap="round"/>
<path d="M14.0907 -63.4545L168.791 -71.086C227.297 -73.9695 284.113 -53.426 331.946 -12.0914L458.489 97.2497" stroke="#A0A3BD" stroke-opacity="0.39" stroke-width="0.252386" stroke-miterlimit="10" stroke-linecap="round"/>
<path d="M11.0819 -50.9882L165.782 -58.6197C224.289 -61.5032 281.104 -40.9597 328.937 0.374906L455.484 109.701" stroke="#A0A3BD" stroke-opacity="0.39" stroke-width="0.252386" stroke-miterlimit="10" stroke-linecap="round"/>
<path d="M7.89535 -37.7889L162.596 -45.4204C221.102 -48.3039 277.917 -27.7603 325.751 13.5742L452.297 122.901" stroke="#A0A3BD" stroke-opacity="0.39" stroke-width="0.252386" stroke-miterlimit="10" stroke-linecap="round"/>
<path d="M4.7098 -24.5891L159.41 -32.2207C217.917 -35.1042 274.732 -14.5606 322.565 26.774L449.111 136.1" stroke="#A0A3BD" stroke-opacity="0.39" stroke-width="0.252386" stroke-miterlimit="10" stroke-linecap="round"/>
<path d="M1.52328 -11.3899L156.224 -19.0214C214.73 -21.905 271.545 -1.36142 319.379 39.9732L445.925 149.3" stroke="#A0A3BD" stroke-opacity="0.39" stroke-width="0.252386" stroke-miterlimit="10" stroke-linecap="round"/>
<path d="M-1.48551 1.07639L153.215 -6.55513C211.721 -9.43866 268.536 11.1049 316.37 52.4395L442.916 161.766" stroke="#A0A3BD" stroke-opacity="0.39" stroke-width="0.252386" stroke-miterlimit="10" stroke-linecap="round"/>
<path d="M-4.67106 14.2754L150.029 6.64384C208.536 3.76031 265.351 24.3039 313.184 65.6385L439.731 174.965" stroke="#A0A3BD" stroke-opacity="0.39" stroke-width="0.252386" stroke-miterlimit="10" stroke-linecap="round"/>
<path d="M-7.8566 27.4751L146.844 19.8435C205.35 16.96 262.165 37.5036 309.999 78.8382L436.545 188.165" stroke="#A0A3BD" stroke-opacity="0.39" stroke-width="0.252386" stroke-miterlimit="10" stroke-linecap="round"/>
<path d="M-11.0431 40.6745L143.657 33.043C202.164 30.1595 258.979 50.703 306.812 92.0376L433.359 201.364" stroke="#A0A3BD" stroke-opacity="0.39" stroke-width="0.252386" stroke-miterlimit="10" stroke-linecap="round"/>
<path d="M-14.0519 53.1407L140.648 45.5091C199.155 42.6256 255.97 63.1692 303.803 104.504L430.35 213.83" stroke="#A0A3BD" stroke-opacity="0.39" stroke-width="0.252386" stroke-miterlimit="10" stroke-linecap="round"/>
<path d="M-17.2384 66.3401L137.462 58.7086C195.968 55.8251 252.783 76.3686 300.617 117.703L427.163 227.03" stroke="#A0A3BD" stroke-opacity="0.39" stroke-width="0.252386" stroke-miterlimit="10" stroke-linecap="round"/>
<path d="M-20.424 79.5396L134.276 71.9081C192.783 69.0246 249.598 89.5681 297.431 130.903L423.978 240.229" stroke="#A0A3BD" stroke-opacity="0.39" stroke-width="0.252386" stroke-miterlimit="10" stroke-linecap="round"/>
<path d="M-23.6105 92.7393L131.09 85.1077C189.596 82.2242 246.411 102.768 294.245 144.102L420.788 253.443" stroke="#A0A3BD" stroke-opacity="0.39" stroke-width="0.252386" stroke-miterlimit="10" stroke-linecap="round"/>
<path d="M-26.7961 105.939L127.904 98.307C186.411 95.4235 243.226 115.967 291.059 157.302L417.602 266.643" stroke="#A0A3BD" stroke-opacity="0.39" stroke-width="0.252386" stroke-miterlimit="10" stroke-linecap="round"/>
<path d="M-29.9816 119.138L124.719 111.506C183.225 108.623 240.04 129.166 287.874 170.501L414.417 279.842" stroke="#A0A3BD" stroke-opacity="0.39" stroke-width="0.252386" stroke-miterlimit="10" stroke-linecap="round"/>
<path d="M-33.1681 132.338L121.532 124.706C180.039 121.822 236.854 142.366 284.687 183.701L411.23 293.042" stroke="#A0A3BD" stroke-opacity="0.39" stroke-width="0.252386" stroke-miterlimit="10" stroke-linecap="round"/>
<path d="M-36.3537 145.537L118.347 137.906C176.853 135.022 233.668 155.566 281.502 196.9L408.044 306.241" stroke="#A0A3BD" stroke-opacity="0.39" stroke-width="0.252386" stroke-miterlimit="10" stroke-linecap="round"/>
<path d="M-39.3625 158.003L115.338 150.372C173.844 147.488 230.659 168.032 278.493 209.366L405.036 318.707" stroke="#A0A3BD" stroke-opacity="0.39" stroke-width="0.252386" stroke-miterlimit="10" stroke-linecap="round"/>
<path d="M-42.549 171.202L112.151 163.571C170.658 160.687 227.473 181.231 275.306 222.566L401.849 331.907" stroke="#A0A3BD" stroke-opacity="0.39" stroke-width="0.252386" stroke-miterlimit="10" stroke-linecap="round"/>
<path d="M-45.7345 184.402L108.966 176.771C167.472 173.887 224.287 194.431 272.121 235.765L398.664 345.106" stroke="#A0A3BD" stroke-opacity="0.39" stroke-width="0.252386" stroke-miterlimit="10" stroke-linecap="round"/>
<path d="M-48.9211 197.602L105.779 189.97C164.286 187.087 221.101 207.63 268.934 248.965L395.477 358.306" stroke="#A0A3BD" stroke-opacity="0.39" stroke-width="0.252386" stroke-miterlimit="10" stroke-linecap="round"/>
<path d="M-51.9299 210.068L102.77 202.436C161.277 199.553 218.092 220.096 265.926 261.431L392.468 370.772" stroke="#A0A3BD" stroke-opacity="0.39" stroke-width="0.252386" stroke-miterlimit="10" stroke-linecap="round"/>
<path d="M-55.1154 223.267L99.5849 215.635C158.091 212.752 214.906 233.296 262.74 274.63L389.283 383.971" stroke="#A0A3BD" stroke-opacity="0.39" stroke-width="0.252386" stroke-miterlimit="10" stroke-linecap="round"/>
<path d="M-58.3019 236.467L96.3984 228.835C154.905 225.952 211.72 246.495 259.553 287.83L386.096 397.171" stroke="#A0A3BD" stroke-opacity="0.39" stroke-width="0.252386" stroke-miterlimit="10" stroke-linecap="round"/>
<path d="M-61.4875 249.666L93.2128 242.034C151.719 239.151 208.534 259.694 256.368 301.029L382.911 410.37" stroke="#A0A3BD" stroke-opacity="0.39" stroke-width="0.252386" stroke-miterlimit="10" stroke-linecap="round"/>
<path d="M-64.4963 262.132L90.204 254.501C148.711 251.617 205.526 272.161 253.359 313.495L379.902 422.837" stroke="#A0A3BD" stroke-opacity="0.39" stroke-width="0.252386" stroke-miterlimit="10" stroke-linecap="round"/>
<path d="M-67.6828 275.332L87.0175 267.7C145.524 264.817 202.339 285.36 250.173 326.695L376.715 436.036" stroke="#A0A3BD" stroke-opacity="0.39" stroke-width="0.252386" stroke-miterlimit="10" stroke-linecap="round"/>
<path d="M-70.8683 288.531L83.832 280.9C142.338 278.016 199.154 298.56 246.987 339.894L373.53 449.235" stroke="#A0A3BD" stroke-opacity="0.39" stroke-width="0.252386" stroke-miterlimit="10" stroke-linecap="round"/>
<path d="M-74.0549 301.731L80.6454 294.099C139.152 291.215 195.967 311.759 243.801 353.094L370.343 462.435" stroke="#A0A3BD" stroke-opacity="0.39" stroke-width="0.252386" stroke-miterlimit="10" stroke-linecap="round"/>
<path d="M-77.2492 312.535L77.4511 304.904C135.958 302.02 192.773 322.564 240.606 363.898L367.149 473.24" stroke="#A0A3BD" stroke-opacity="0.39" stroke-width="0.252386" stroke-miterlimit="10" stroke-linecap="round"/>
<path d="M-80.4347 325.735L74.2656 318.103C132.772 315.22 189.587 335.763 237.421 377.098L363.963 486.439" stroke="#A0A3BD" stroke-opacity="0.39" stroke-width="0.252386" stroke-miterlimit="10" stroke-linecap="round"/>
<path d="M-83.6203 338.934L71.08 331.303C129.586 328.419 186.402 348.963 234.235 390.297L360.778 499.638" stroke="#A0A3BD" stroke-opacity="0.39" stroke-width="0.252386" stroke-miterlimit="10" stroke-linecap="round"/>
<path d="M-86.8068 352.134L67.8935 344.502C126.4 341.619 183.215 362.162 231.049 403.497L357.591 512.838" stroke="#A0A3BD" stroke-opacity="0.39" stroke-width="0.252386" stroke-miterlimit="10" stroke-linecap="round"/>
<path d="M-89.8156 364.6L64.8847 356.968C123.391 354.085 180.206 374.628 228.04 415.963L354.583 525.304" stroke="#A0A3BD" stroke-opacity="0.39" stroke-width="0.252386" stroke-miterlimit="10" stroke-linecap="round"/>
</svg>
