<svg width="39" height="39" viewBox="0 0 39 39" fill="none" xmlns="http://www.w3.org/2000/svg">
<g clip-path="url(#clip0_1560_49217)">
<path d="M6.5 26C6.89802 26.0001 7.28217 26.1462 7.5796 26.4107C7.87704 26.6751 8.06706 27.0396 8.11363 27.4349L8.125 27.625V30.875H11.375C11.7892 30.8755 12.1876 31.0341 12.4887 31.3184C12.7899 31.6027 12.9711 31.9913 12.9954 32.4048C13.0197 32.8182 12.8852 33.2254 12.6193 33.543C12.3535 33.8606 11.9764 34.0647 11.5651 34.1136L11.375 34.125H8.125C7.30506 34.1253 6.51533 33.8156 5.91411 33.2581C5.31289 32.7005 4.94462 31.9364 4.88313 31.1187L4.875 30.875V27.625C4.875 27.194 5.0462 26.7807 5.35095 26.476C5.6557 26.1712 6.06902 26 6.5 26ZM32.5 26C32.931 26 33.3443 26.1712 33.649 26.476C33.9538 26.7807 34.125 27.194 34.125 27.625V30.875C34.125 31.737 33.7826 32.5636 33.1731 33.1731C32.5636 33.7826 31.737 34.125 30.875 34.125H27.625C27.194 34.125 26.7807 33.9538 26.476 33.649C26.1712 33.3443 26 32.931 26 32.5C26 32.069 26.1712 31.6557 26.476 31.351C26.7807 31.0462 27.194 30.875 27.625 30.875H30.875V27.625C30.875 27.194 31.0462 26.7807 31.351 26.476C31.6557 26.1712 32.069 26 32.5 26ZM24.05 22.5176C24.2016 22.3647 24.3821 22.2434 24.581 22.1608C24.7799 22.0783 24.9932 22.036 25.2086 22.0366C25.4239 22.0372 25.637 22.0806 25.8354 22.1643C26.0339 22.248 26.2137 22.3702 26.3644 22.524C26.5152 22.6778 26.6339 22.86 26.7136 23.06C26.7933 23.2601 26.8325 23.474 26.8288 23.6893C26.8252 23.9046 26.7787 24.1171 26.6922 24.3143C26.6057 24.5115 26.4809 24.6896 26.325 24.8381C24.504 26.6269 22.0526 27.6278 19.5 27.625C16.9474 27.6278 14.496 26.6269 12.675 24.8381C12.5191 24.6896 12.3943 24.5115 12.3078 24.3143C12.2213 24.1171 12.1748 23.9046 12.1712 23.6893C12.1675 23.474 12.2067 23.2601 12.2864 23.06C12.3661 22.86 12.4848 22.6778 12.6356 22.524C12.7863 22.3702 12.9661 22.248 13.1646 22.1643C13.363 22.0806 13.5761 22.0372 13.7914 22.0366C14.0068 22.036 14.2201 22.0783 14.419 22.1608C14.6179 22.2434 14.7984 22.3647 14.95 22.5176C16.1636 23.7107 17.7982 24.378 19.5 24.375C21.2712 24.375 22.8751 23.6681 24.05 22.5176ZM13.8125 13C14.459 13 15.079 13.2568 15.5361 13.7139C15.9932 14.171 16.25 14.791 16.25 15.4375C16.25 16.084 15.9932 16.704 15.5361 17.1611C15.079 17.6182 14.459 17.875 13.8125 17.875C13.166 17.875 12.546 17.6182 12.0889 17.1611C11.6318 16.704 11.375 16.084 11.375 15.4375C11.375 14.791 11.6318 14.171 12.0889 13.7139C12.546 13.2568 13.166 13 13.8125 13ZM25.1875 13C25.834 13 26.454 13.2568 26.9111 13.7139C27.3682 14.171 27.625 14.791 27.625 15.4375C27.625 16.084 27.3682 16.704 26.9111 17.1611C26.454 17.6182 25.834 17.875 25.1875 17.875C24.541 17.875 23.921 17.6182 23.4639 17.1611C23.0068 16.704 22.75 16.084 22.75 15.4375C22.75 14.791 23.0068 14.171 23.4639 13.7139C23.921 13.2568 24.541 13 25.1875 13ZM11.375 4.875C11.806 4.875 12.2193 5.0462 12.524 5.35095C12.8288 5.6557 13 6.06902 13 6.5C13 6.93098 12.8288 7.3443 12.524 7.64905C12.2193 7.95379 11.806 8.125 11.375 8.125H8.125V11.375C8.125 11.806 7.95379 12.2193 7.64905 12.524C7.3443 12.8288 6.93098 13 6.5 13C6.06902 13 5.6557 12.8288 5.35095 12.524C5.0462 12.2193 4.875 11.806 4.875 11.375V8.125C4.875 7.26305 5.21741 6.4364 5.8269 5.8269C6.4364 5.21741 7.26305 4.875 8.125 4.875H11.375ZM30.875 4.875C31.737 4.875 32.5636 5.21741 33.1731 5.8269C33.7826 6.4364 34.125 7.26305 34.125 8.125V11.375C34.125 11.806 33.9538 12.2193 33.649 12.524C33.3443 12.8288 32.931 13 32.5 13C32.069 13 31.6557 12.8288 31.351 12.524C31.0462 12.2193 30.875 11.806 30.875 11.375V8.125H27.625C27.194 8.125 26.7807 7.95379 26.476 7.64905C26.1712 7.3443 26 6.93098 26 6.5C26 6.06902 26.1712 5.6557 26.476 5.35095C26.7807 5.0462 27.194 4.875 27.625 4.875H30.875Z" fill="#5136C1"/>
</g>
<defs>
<clipPath id="clip0_1560_49217">
<rect width="39" height="39" fill="white"/>
</clipPath>
</defs>
</svg>
