<svg width="24" height="24" viewBox="0 0 24 24" fill="none" xmlns="http://www.w3.org/2000/svg">
<g clip-path="url(#clip0_368_124011)">
<path d="M11.9287 14.3025C9.18931 14.3025 6.96864 12.0818 6.96864 9.34243C6.96864 6.60309 9.18931 4.38242 11.9287 4.38242C14.668 4.38242 16.8887 6.60309 16.8887 9.34243C16.8887 12.0818 14.668 14.3025 11.9287 14.3025Z" fill="#F5BA46"/>
<path d="M14.8003 1.59968C14.5796 1.59968 14.4005 1.42094 14.4005 1.19981V0.40008C14.4005 0.178954 14.5796 0.000213623 14.8003 0.000213623C15.0211 0.000213623 15.2002 0.178954 15.2002 0.40008V1.19981C15.2002 1.42094 15.0211 1.59968 14.8003 1.59968Z" fill="#1E1E1E"/>
<path d="M8.0007 5.60012V3.20016C8.0007 2.97897 8.1795 2.80017 8.4007 2.80017C8.62189 2.80017 8.80069 2.97897 8.80069 3.20016V4.99893C9.68268 4.36214 10.7615 4.00015 11.9286 4.00015C11.9402 4.00015 11.9522 4.00015 11.9634 4.00015C12.843 4.00015 13.6698 4.21015 14.4006 4.59174V2.80017C14.4006 2.57897 14.5798 2.40018 14.8006 2.40018C15.0214 2.40018 15.2006 2.57897 15.2006 2.80017V5.10653C16.4774 6.09492 17.3001 7.69009 17.2889 9.42566C17.2701 12.3692 14.8694 14.8 11.9298 14.8C11.9182 14.8 11.9062 14.8 11.895 14.8C8.93949 14.8 6.55033 12.312 6.56953 9.35646C6.57833 7.95648 7.13032 6.66291 8.0187 5.71292C8.0119 5.68372 8.0007 5.63132 8.0007 5.60012ZM11.9002 14C11.9102 14 11.9198 14 11.9298 14C14.4306 14 16.473 11.9336 16.489 9.42926C16.5054 6.9153 14.4726 4.80014 11.9586 4.80014C11.9486 4.80014 11.939 4.80014 11.929 4.80014C9.42828 4.80014 7.38591 6.8665 7.36992 9.37086C7.35351 11.8848 9.38588 14 11.9002 14Z" fill="#1E1E1E"/>
<path d="M8.40092 1.99967C8.17979 1.99967 8.00105 1.82093 8.00105 1.59981V0.800074C8.00105 0.578948 8.17979 0.400208 8.40092 0.400208C8.62204 0.400208 8.80078 0.578948 8.80078 0.800074V1.59981C8.80078 1.82093 8.62204 1.99967 8.40092 1.99967Z" fill="#1E1E1E"/>
<path d="M19.2006 9.20004C19.4214 9.20004 19.6006 9.37884 19.6006 9.60004V12.8C19.6006 13.0212 19.4214 13.2 19.2006 13.2C18.9798 13.2 18.8006 13.0212 18.8006 12.8V9.60004C18.8006 9.37884 18.9798 9.20004 19.2006 9.20004Z" fill="#1E1E1E"/>
<path d="M19.2007 6.80011C19.4214 6.80011 19.6006 6.97885 19.6006 7.19998V7.99971C19.6006 8.22083 19.4214 8.39957 19.2007 8.39957C18.98 8.39957 18.8009 8.22083 18.8009 7.99971V7.19998C18.8009 6.97885 18.98 6.80011 19.2007 6.80011Z" fill="#1E1E1E"/>
<path d="M4.0004 5.60013C4.22159 5.60013 4.40039 5.77893 4.40039 6.00012V9.20007C4.40039 9.42126 4.22159 9.60006 4.0004 9.60006C3.7792 9.60006 3.6004 9.42126 3.6004 9.20007V6.00012C3.6004 5.77893 3.7792 5.60013 4.0004 5.60013Z" fill="#1E1E1E"/>
<path d="M4.00052 3.20016C4.22165 3.20016 4.40039 3.3789 4.40039 3.60003V4.39976C4.40039 4.62089 4.22165 4.79963 4.00052 4.79963C3.7794 4.79963 3.60066 4.62089 3.60066 4.39976V3.60003C3.60066 3.3789 3.7794 3.20016 4.00052 3.20016Z" fill="#1E1E1E"/>
<path d="M10.4059 10.382L10.4087 9.98246C10.4107 9.66166 10.5371 9.36127 10.7655 9.13607C10.9939 8.91127 11.3083 8.78168 11.6163 8.79248L12.4163 8.80008C12.4171 8.80008 12.4179 8.80008 12.4187 8.80008C12.6379 8.80008 12.8175 8.61968 12.8187 8.40008L12.8211 7.99929C12.8223 7.77849 12.6443 7.5973 12.4235 7.5961L12.0331 7.5933C12.0203 7.5941 12.0091 7.6001 11.9955 7.6001C11.9947 7.6001 11.9939 7.6001 11.9931 7.6001C11.9795 7.6001 11.9679 7.5933 11.9547 7.5921L10.8243 7.5849C10.6031 7.5833 10.4251 7.4109 10.4267 7.1901C10.4283 6.96971 10.6067 6.80011 10.8267 6.80011C10.8275 6.80011 10.8283 6.80011 10.8291 6.80011L11.5983 6.79731L11.6007 6.40132C11.6019 6.18132 11.7811 6.00012 12.0007 6.00012C12.0015 6.00012 12.0023 6.00012 12.0031 6.00012C12.2239 6.00172 12.4019 6.18452 12.4007 6.40532L12.3983 6.80011H12.4287C13.0903 6.80011 13.6251 7.3433 13.6211 8.00529L13.6187 8.40648C13.6143 9.06527 13.0767 9.60006 12.4187 9.60006C12.4163 9.60006 12.4135 9.60006 12.4111 9.60006H11.6111C11.6103 9.60006 11.6095 9.60006 11.6087 9.60006C11.5031 9.60006 11.4035 9.63606 11.3275 9.71006C11.2519 9.78526 11.2095 9.88286 11.2087 9.99006L11.2059 10.3884C11.2043 10.6092 11.3827 10.7892 11.6035 10.7904L13.2035 10.8004C13.4243 10.802 13.6023 10.982 13.6011 11.2028C13.5995 11.4228 13.4203 11.6 13.2007 11.6C13.1999 11.6 13.1991 11.6 13.1983 11.6L12.3983 11.5948L12.3959 12.0028C12.3947 12.2228 12.2155 12.4 11.9959 12.4C11.9951 12.4 11.9943 12.4 11.9935 12.4C11.7727 12.3984 11.5943 12.2184 11.5959 11.9972L11.5983 11.5896C10.9367 11.5856 10.4019 11.044 10.4059 10.382Z" fill="#1E1E1E"/>
<path d="M14.8003 9.99978C14.5795 9.99978 14.4005 9.82075 14.4005 9.59991C14.4005 9.37907 14.5795 9.20004 14.8003 9.20004C15.0212 9.20004 15.2002 9.37907 15.2002 9.59991C15.2002 9.82075 15.0212 9.99978 14.8003 9.99978Z" fill="#1E1E1E"/>
<path d="M9.20072 9.99978C8.97988 9.99978 8.80085 9.82075 8.80085 9.59991C8.80085 9.37907 8.97988 9.20004 9.20072 9.20004C9.42156 9.20004 9.60059 9.37907 9.60059 9.59991C9.60059 9.82075 9.42156 9.99978 9.20072 9.99978Z" fill="#1E1E1E"/>
<path d="M0.400672 23.5998H4.8006C5.24259 23.5998 5.60059 23.2418 5.60059 22.7998V16.7999C5.60059 16.3579 5.24259 15.9999 4.8006 15.9999H0.400672V23.5998Z" fill="#4A88DB"/>
<path d="M5.59995 16.7999H7.92871V22.7998H5.59995V16.7999Z" fill="#F8F8FA"/>
<path d="M12.0008 19.5947H14.9847C15.5459 19.5947 16.0007 19.1595 16.0007 18.6147V18.6131C16.0007 18.2127 15.7511 17.8519 15.3691 17.7003L12.2372 16.4575C12.0836 16.3963 11.914 16.3835 11.7524 16.4203L8.00085 17.2715L8.02765 22.5722L11.8172 23.4414C11.938 23.469 12.0636 23.469 12.1844 23.4414L18.8007 21.9306L23.2442 19.0551C23.467 18.9111 23.6006 18.6687 23.6006 18.4091V17.5415C23.6006 17.0207 23.0826 16.6475 22.569 16.7983L16.0007 18.7243" fill="#F1998A"/>
<path d="M0.400394 15.5999H4.80032C5.32111 15.5999 5.7611 15.9355 5.9267 16.3999H7.92907C8.14546 16.3999 8.31946 16.5723 8.32666 16.7871L11.6638 16.0299C11.9046 15.9755 12.1546 15.9943 12.3846 16.0859L15.5165 17.3283C15.9209 17.4887 16.2173 17.8143 16.3393 18.2079L22.4556 16.4139C22.8284 16.3055 23.2196 16.3747 23.5284 16.6059C23.828 16.8307 24 17.1715 24 17.5415V18.4091C24 18.8059 23.7984 19.1731 23.4612 19.3911L19.0177 22.2666C18.9785 22.2918 18.9349 22.3102 18.8893 22.3206L12.2734 23.8314C12.1838 23.8522 12.0918 23.8622 12.0002 23.8622C11.9082 23.8622 11.8166 23.8522 11.727 23.8314L8.24506 23.0326C8.17266 23.1314 8.06107 23.1998 7.92867 23.1998H5.9263C5.7607 23.6642 5.32071 23.9998 4.79992 23.9998H0.399994C0.178797 23.9998 0 23.821 0 23.5998V15.9999C0.000400543 15.7787 0.179197 15.5999 0.400394 15.5999ZM8.42546 22.2534L11.9062 23.0518C11.9674 23.0662 12.0326 23.0662 12.0946 23.0518L18.6421 21.5566L23.0268 18.7191C23.1352 18.6487 23.2 18.5331 23.2 18.4087V17.5411C23.2 17.3827 23.1056 17.2887 23.0492 17.2467C22.9436 17.1679 22.81 17.1431 22.6812 17.1819L16.3305 19.0471C16.1441 19.5983 15.6109 19.9999 14.9841 19.9999H12.0002C11.7794 19.9999 11.6002 19.8211 11.6002 19.5999C11.6002 19.3787 11.7794 19.1999 12.0002 19.1999H14.9841C15.3237 19.1999 15.6001 18.9371 15.6001 18.6159C15.6001 18.3783 15.4513 18.1651 15.2209 18.0735L12.089 16.8303C12.0098 16.7987 11.9234 16.7919 11.8402 16.8107L8.40186 17.5907L8.42546 22.2534ZM7.60027 17.1999H6.0003V22.3998H7.60027V17.1999ZM0.800386 23.1998H4.80032C5.02112 23.1998 5.20031 23.0206 5.20031 22.7998V16.7999C5.20031 16.5791 5.02112 16.3999 4.80032 16.3999H0.800386V23.1998Z" fill="#1E1E1E"/>
<path d="M2.32925 22.3996H3.52884C3.74997 22.3996 3.92871 22.2208 3.92871 21.9997C3.92871 21.7786 3.74997 21.5999 3.52884 21.5999H2.32925C2.10812 21.5999 1.92938 21.7786 1.92938 21.9997C1.92938 22.2208 2.10852 22.3996 2.32925 22.3996Z" fill="#1E1E1E"/>
</g>
<defs>
<clipPath id="clip0_368_124011">
<rect width="24" height="24" fill="white" transform="matrix(-1 0 0 1 24 0)"/>
</clipPath>
</defs>
</svg>
