<svg width="127" height="127" viewBox="0 0 127 127" fill="none" xmlns="http://www.w3.org/2000/svg">
<rect width="127" height="127" rx="63.5" fill="#FFC403"/>
<path d="M57.0166 54V70.0134H52.8455V61.0315L50.0593 65.3599H47.8759L44.8127 61.0315V70.0134H41V54H44.8453L49.2446 60.2788L53.1876 54H57.0166ZM58.2224 57.627V54H72.463V57.627H67.4772V70.0134H63.2245V57.627H58.2224ZM88.1538 54V70.0134H84.6507L77.4815 60.8604V70.0134H73.6687V54H77.4652L84.3248 62.8279V54H88.1538Z" fill="black"/>
<path d="M64.9257 86.9298C52.6077 86.9298 40.9903 84.5175 32.2243 80.1207C23.051 75.5186 18 69.2569 18 62.4649C18 55.6729 23.051 49.4112 32.2243 44.8091C40.9903 40.4123 52.6077 38 64.9257 38C77.2437 38 88.861 40.4123 97.627 44.8091C106.8 49.4112 111.851 55.6729 111.851 62.4649C111.851 69.2569 106.8 75.5186 97.627 80.1207C88.861 84.5175 77.2437 86.9298 64.9257 86.9298ZM64.9257 41.6099C53.0965 41.6099 42.0168 43.9024 33.7071 48.0768C25.8047 52.0459 21.438 57.1613 21.438 62.482C21.438 67.8027 25.7884 72.9181 33.7071 76.8701C42.0168 81.0445 53.1128 83.3371 64.9257 83.3371C76.7386 83.3371 87.8345 81.0445 96.1443 76.8701C104.047 72.9181 108.413 67.7856 108.413 62.482C108.413 57.1784 104.063 52.0459 96.1443 48.0939C87.8345 43.9024 76.7549 41.6099 64.9257 41.6099Z" fill="black"/>
</svg>
