<svg width="144" height="144" viewBox="0 0 144 144" fill="none" xmlns="http://www.w3.org/2000/svg">
<path d="M42 12H36C18 12 12 22.74 12 36V42V126C12 130.98 17.64 133.8 21.6 130.8L31.86 123.12C34.26 121.32 37.62 121.56 39.78 123.72L49.74 133.74C52.08 136.08 55.92 136.08 58.26 133.74L68.34 123.66C70.44 121.56 73.8 121.32 76.14 123.12L86.4 130.8C90.36 133.74 96 130.92 96 126V24C96 17.4 101.4 12 108 12H42ZM67.5 82.5H40.5C38.04 82.5 36 80.46 36 78C36 75.54 38.04 73.5 40.5 73.5H67.5C69.96 73.5 72 75.54 72 78C72 80.46 69.96 82.5 67.5 82.5ZM72 58.5H36C33.54 58.5 31.5 56.46 31.5 54C31.5 51.54 33.54 49.5 36 49.5H72C74.46 49.5 76.5 51.54 76.5 54C76.5 56.46 74.46 58.5 72 58.5Z" fill="#5136C1"/>
<path d="M108.06 12V21C112.02 21 115.8 22.62 118.56 25.32C121.44 28.26 123 32.04 123 36V50.52C123 54.96 121.02 57 116.52 57H105V24.06C105 22.38 106.38 21 108.06 21V12ZM108.06 12C101.4 12 96 17.4 96 24.06V66H116.52C126 66 132 60 132 50.52V36C132 29.4 129.3 23.4 124.98 19.02C120.6 14.7 114.66 12.06 108.06 12C108.06 12 108.12 12 108.06 12Z" fill="#5136C1"/>
</svg>
