<svg width="24" height="24" viewBox="0 0 24 24" fill="none" xmlns="http://www.w3.org/2000/svg">
<path d="M12 17.25C11.8694 17.25 11.7412 17.2159 11.6278 17.1511L5.0625 13.3988C5.00545 13.3658 4.94074 13.3485 4.87486 13.3485C4.80899 13.3485 4.74428 13.3659 4.68726 13.3989C4.63024 13.4319 4.58291 13.4793 4.55003 13.5364C4.51716 13.5935 4.4999 13.6582 4.5 13.7241V17.25C4.49989 17.3839 4.53561 17.5153 4.60344 17.6307C4.67128 17.7461 4.76877 17.8412 4.88578 17.9063L11.6358 21.6563C11.7472 21.7181 11.8725 21.7506 12 21.7506C12.1275 21.7506 12.2528 21.7181 12.3642 21.6563L19.1142 17.9063C19.2312 17.8412 19.3287 17.7461 19.3966 17.6307C19.4644 17.5153 19.5001 17.3839 19.5 17.25V13.7241C19.5001 13.6582 19.4828 13.5935 19.45 13.5364C19.4171 13.4793 19.3698 13.4319 19.3127 13.3989C19.2557 13.3659 19.191 13.3485 19.1251 13.3485C19.0593 13.3485 18.9945 13.3658 18.9375 13.3988L12.3722 17.1511C12.2588 17.2159 12.1306 17.25 12 17.25Z" fill="#5136C1"/>
<path d="M23.2461 8.92971C23.2461 8.92971 23.2461 8.92596 23.2461 8.92455C23.234 8.80567 23.1937 8.6914 23.1284 8.59128C23.0632 8.49115 22.975 8.40806 22.8711 8.34893L12.3711 2.34893C12.2578 2.28414 12.1295 2.25006 11.999 2.25006C11.8684 2.25006 11.7401 2.28414 11.6268 2.34893L1.12676 8.34893C1.01201 8.41454 0.916631 8.50931 0.850296 8.62365C0.783961 8.73799 0.749023 8.86783 0.749023 9.00002C0.749023 9.13221 0.783961 9.26205 0.850296 9.37639C0.916631 9.49073 1.01201 9.5855 1.12676 9.65111L11.6268 15.6511C11.7401 15.7159 11.8684 15.75 11.999 15.75C12.1295 15.75 12.2578 15.7159 12.3711 15.6511L21.6093 10.3725C21.6235 10.3643 21.6397 10.3599 21.6562 10.36C21.6727 10.36 21.6889 10.3643 21.7032 10.3726C21.7174 10.3809 21.7293 10.3928 21.7375 10.4071C21.7457 10.4214 21.75 10.4376 21.7499 10.4541V17.2289C21.7499 17.6325 22.0602 17.9789 22.4638 17.9991C22.5652 18.004 22.6665 17.9882 22.7617 17.9528C22.8568 17.9173 22.9438 17.863 23.0173 17.7929C23.0908 17.7229 23.1493 17.6386 23.1893 17.5453C23.2293 17.452 23.2499 17.3515 23.2499 17.25V9.00002C23.2498 8.97653 23.2486 8.95307 23.2461 8.92971Z" fill="#5136C1"/>
</svg>
