<svg width="24" height="24" viewBox="0 0 24 24" fill="none" xmlns="http://www.w3.org/2000/svg">
<path d="M12.0005 16.8C11.6868 16.8014 11.3764 16.8646 11.0871 16.986C10.7979 17.1074 10.5354 17.2846 10.3146 17.5075C10.0939 17.7303 9.91918 17.9945 9.80055 18.2849C9.68192 18.5753 9.62168 18.8863 9.62326 19.2C9.62326 20.5248 10.6877 21.6 12.0005 21.6C13.3133 21.6 14.3765 20.5248 14.3765 19.2C14.3765 17.874 13.3133 16.8 12.0005 16.8ZM6.96046 14.1096L8.64046 15.8064C9.07954 15.3611 9.60274 15.0075 10.1797 14.7662C10.7566 14.5248 11.3757 14.4005 12.0011 14.4005C12.6264 14.4005 13.2455 14.5248 13.8225 14.7662C14.3994 15.0075 14.9226 15.3611 15.3617 15.8064L17.0405 14.1096C16.382 13.4417 15.5973 12.9114 14.7321 12.5494C13.8669 12.1874 12.9384 12.001 12.0005 12.001C11.0626 12.001 10.134 12.1874 9.2688 12.5494C8.40358 12.9114 7.61893 13.4417 6.96046 14.1096ZM3.60046 10.7136L5.28046 12.4104C6.1584 11.5201 7.20452 10.8131 8.35804 10.3305C9.51156 9.84799 10.7495 9.5995 11.9999 9.5995C13.2502 9.5995 14.4882 9.84799 15.6417 10.3305C16.7952 10.8131 17.8413 11.5201 18.7193 12.4104L20.4005 10.7136C19.3029 9.60059 17.9952 8.71681 16.5531 8.11359C15.1111 7.51037 13.5636 7.19973 12.0005 7.19973C10.4373 7.19973 8.88982 7.51037 7.44779 8.11359C6.00576 8.71681 4.69799 9.60059 3.60046 10.7136ZM0.239258 7.31998L1.91926 9.01678C3.2363 7.68098 4.8057 6.62027 6.53624 5.89627C8.26679 5.17228 10.124 4.79945 11.9999 4.79945C13.8757 4.79945 15.7329 5.17228 17.4635 5.89627C19.194 6.62027 20.7634 7.68098 22.0805 9.01678L23.7605 7.31998C22.2239 5.76156 20.393 4.52406 18.374 3.6794C16.3551 2.83475 14.1884 2.39978 11.9999 2.39978C9.81134 2.39978 7.64464 2.83475 5.62569 3.6794C3.60674 4.52406 1.77579 5.76156 0.239258 7.31998Z" fill="#573CC7"/>
</svg>
