<svg width="57" height="56" viewBox="0 0 57 56" fill="none" xmlns="http://www.w3.org/2000/svg">
<circle cx="28.75" cy="28" r="28" fill="#1E1E1E"/>
<path d="M27.2698 12.2763C27.7462 12.5109 28.0814 12.8778 28.2753 13.3772C28.6923 14.451 29.0556 15.5383 29.3652 16.6392C28.9461 17.8746 28.4681 19.0938 27.9312 20.2969C26.6375 19.5192 25.3625 18.7576 24.1063 18.0122C23.4464 17.6213 22.799 17.1933 22.1641 16.7284C23.4995 15.3168 24.8511 13.9365 26.2189 12.5875C26.5119 12.2987 26.8621 12.195 27.2698 12.2763Z" fill="#0664B0"/>
<path d="M35.4942 15.7232C34.655 16.7803 33.9528 17.9177 33.3878 19.1353C33.0344 19.8953 32.4777 20.4958 32.1524 21.3074C31.2538 21.0061 30.6507 20.4056 30.3431 19.5059C30.0168 18.5531 29.6895 17.5976 29.3611 16.6396C29.0514 15.5387 28.6881 14.4513 28.2711 13.3775C28.0772 12.8782 27.7421 12.5112 27.2656 12.2766C28.6334 12.2683 30.0017 12.2631 31.3705 12.261C31.8318 12.2594 32.1868 12.3939 32.5308 12.7395C33.541 13.7497 34.5288 14.7443 35.4942 15.7232Z" fill="#FBA51A"/>
<path d="M35.4961 15.723C36.6501 16.8573 37.7615 17.99 38.83 19.1211C39.1094 19.4172 39.2147 19.7398 39.1459 20.0891C38.9874 20.5665 38.6997 20.9022 38.2827 21.0961C37.2683 21.5663 36.1247 21.9755 34.8518 22.3237L32.1543 21.3072C32.4796 20.4956 33.0363 19.8952 33.3897 19.1352C33.9547 17.9175 34.6568 16.7801 35.4961 15.723Z" fill="#F26A22"/>
<path d="M22.1608 16.7288C22.7957 17.1937 23.4431 17.6217 24.103 18.0126C25.3593 18.758 26.6343 19.5196 27.928 20.2973C27.0351 21.3685 24.924 21.8579 23.5917 22.3114C22.4814 22.6367 21.3977 23.0334 20.3406 23.5014C19.9763 23.6625 19.7777 23.9409 19.4712 24.1958C19.3805 22.6289 19.3878 21.075 19.4931 19.5342C19.4961 19.4967 19.5116 19.4619 19.5368 19.4356L22.1608 16.7288Z" fill="#2196D4"/>
<path d="M39.1486 20.0881C39.2133 22.1085 39.2284 23.6332 39.194 24.6622C39.1836 24.9822 39.0313 25.2877 38.7374 25.5785C38.0503 25.4013 37.4113 25.1318 36.8202 24.7701C36.7118 24.7044 36.5611 24.6272 36.3683 24.5386C35.9851 24.365 35.5707 23.9929 35.308 23.8427C34.8858 23.6035 33.91 23.3032 34.0273 22.7074L34.8545 22.3228C36.1274 21.9746 37.2711 21.5654 38.2854 21.0952C38.7024 20.9013 38.9902 20.5656 39.1486 20.0881Z" fill="#2DA9E0"/>
<path d="M23.5925 22.3108C24.8362 22.6579 26.0372 23.1161 27.1954 23.6853L26.315 25.3711C26.3056 25.3894 26.2925 25.4056 26.2767 25.4188C26.2608 25.432 26.2425 25.4418 26.2228 25.4477C26.0851 25.4899 24.7043 27.9075 24.4729 28.25C24.47 28.2548 24.4657 28.2584 24.4603 28.2605C24.455 28.2625 24.4489 28.263 24.4425 28.2617C24.4361 28.2605 24.4296 28.2576 24.4237 28.2533C24.4179 28.2491 24.4127 28.2436 24.4088 28.2375C24.3984 28.2198 24.3832 28.2364 24.3634 28.2875C24.1945 28.74 24.0158 29.1888 23.8271 29.6339C22.7449 28.5695 21.4288 27.2382 19.8785 25.6401C19.4803 25.2303 19.3448 24.7487 19.472 24.1951C19.7785 23.9402 19.9771 23.6619 20.3414 23.5008C21.3985 23.0327 22.4822 22.6361 23.5925 22.3108Z" fill="#F26A22"/>
<path d="M34.0239 22.7073C33.9066 23.3031 34.8824 23.6033 35.3046 23.8426C35.5674 23.9927 35.9818 24.3649 36.3649 24.5384C36.5577 24.6271 36.7084 24.7042 36.8168 24.7699C37.4079 25.1316 38.047 25.4011 38.734 25.5784L36.3164 28.0632C35.6878 27.6003 34.9716 27.3642 34.3539 26.9373C33.719 26.4979 33.0356 26.1523 32.4023 25.7207C31.8122 25.3203 31.1951 24.9654 30.5508 24.6557C31.1419 23.472 32.7682 23.0795 34.0239 22.7073Z" fill="#1888C9"/>
<path d="M27.1965 23.6851C27.6885 24.0041 28.0305 24.444 28.2223 25.0049C28.5538 25.9723 28.9046 26.9544 29.2747 27.951C29.5062 28.7444 29.7699 29.5356 30.066 30.3248C30.3866 31.1802 30.5195 31.7494 31.2951 32.3483C30.3058 32.3973 29.0026 32.4151 27.3857 32.4015C26.8697 32.3968 26.5616 32.3562 26.1722 31.9777C25.3789 31.2073 24.5975 30.4259 23.8281 29.6336C24.0168 29.1885 24.1956 28.7397 24.3645 28.2872C24.3843 28.2361 24.3994 28.2195 24.4098 28.2372C24.4138 28.2434 24.4189 28.2488 24.4248 28.2531C24.4307 28.2573 24.4371 28.2602 24.4435 28.2614C24.4499 28.2627 24.4561 28.2622 24.4614 28.2602C24.4667 28.2581 24.471 28.2545 24.474 28.2497C24.7054 27.9072 26.0862 25.4896 26.2238 25.4474C26.2436 25.4415 26.2619 25.4317 26.2778 25.4185C26.2936 25.4053 26.3066 25.3891 26.3161 25.3708L27.1965 23.6851Z" fill="#FBA51A"/>
<path d="M30.551 24.6572C31.1953 24.9669 31.8125 25.3218 32.4025 25.7222C33.0359 26.1538 33.7192 26.4993 34.3541 26.9388C34.9718 27.3657 35.688 27.6018 36.3167 28.0647C34.7685 29.6931 33.4722 31.0223 32.4276 32.0523C32.1179 32.3588 31.74 32.4578 31.2938 32.3494C30.5182 31.7505 30.3853 31.1813 30.0647 30.3259C29.7686 29.5367 29.5049 28.7454 29.2734 27.9521L30.551 24.6572Z" fill="#0664B0"/>
<path d="M10.2838 42.9681C11.0391 43.6327 12.9219 44.0221 13.391 42.8477C14.2402 40.7241 9.47067 41.8125 9.70836 39.0931C9.87412 37.1869 12.0368 36.9664 13.4379 37.5137C13.7236 37.6242 13.9728 37.7842 14.1854 37.9938C14.2002 38.0082 14.2119 38.0253 14.22 38.0442C14.2282 38.0631 14.2325 38.0833 14.2328 38.1038C14.2331 38.1243 14.2293 38.1446 14.2217 38.1636C14.2141 38.1825 14.2029 38.1997 14.1886 38.2142L13.7179 38.6928C13.6915 38.72 13.6562 38.7366 13.6184 38.7395C13.5807 38.7423 13.5432 38.7313 13.513 38.7084C13.0074 38.33 12.433 38.1715 11.7897 38.233C11.0282 38.3065 10.2838 39.3089 11.0454 39.8202C11.2716 39.9724 11.5176 40.0809 11.7835 40.1455C12.7593 40.3832 14.4997 40.8445 14.5216 42.1706C14.5477 43.7166 13.7434 44.5334 12.1087 44.621C11.1486 44.6721 10.2969 44.3745 9.55355 43.7281C9.53741 43.714 9.52434 43.6968 9.51514 43.6774C9.50595 43.6581 9.50082 43.637 9.50009 43.6156C9.49936 43.5942 9.50303 43.5729 9.51088 43.553C9.51873 43.533 9.53059 43.5149 9.54573 43.4998L10.0696 42.9744C10.0981 42.9464 10.1361 42.9302 10.1759 42.929C10.2157 42.9279 10.2542 42.9418 10.2838 42.9681ZM28.178 38.4254L28.1374 44.5929C28.1374 44.6053 28.1324 44.6172 28.1236 44.626C28.1148 44.6348 28.1029 44.6398 28.0905 44.6398H27.0709C27.0647 44.6398 27.0586 44.6386 27.0529 44.6362C27.0472 44.6338 27.0421 44.6304 27.0377 44.626C27.0334 44.6217 27.0299 44.6165 27.0275 44.6108C27.0252 44.6051 27.024 44.599 27.024 44.5929L27.0381 38.4316C27.0381 38.4192 27.0331 38.4072 27.0243 38.3984C27.0155 38.3896 27.0036 38.3847 26.9911 38.3847H24.7706C24.7643 38.3847 24.7581 38.3834 24.7523 38.381C24.7465 38.3785 24.7412 38.3749 24.7368 38.3704C24.7325 38.3659 24.729 38.3605 24.7268 38.3547C24.7245 38.3488 24.7235 38.3425 24.7237 38.3362L24.7377 37.4371C24.7377 37.4308 24.739 37.4245 24.7415 37.4187C24.7439 37.4129 24.7475 37.4077 24.752 37.4033C24.7566 37.3989 24.7619 37.3955 24.7678 37.3933C24.7737 37.391 24.7799 37.3899 24.7862 37.3901L30.4267 37.4011C30.4329 37.4011 30.439 37.4023 30.4447 37.4047C30.4504 37.407 30.4556 37.4105 30.4599 37.4148C30.4643 37.4192 30.4677 37.4244 30.4701 37.43C30.4724 37.4357 30.4737 37.4418 30.4737 37.448V38.3878C30.4737 38.3941 30.4724 38.4004 30.4699 38.4061C30.4675 38.4119 30.4639 38.4172 30.4594 38.4216C30.4548 38.4259 30.4495 38.4294 30.4436 38.4316C30.4377 38.4339 30.4315 38.435 30.4252 38.4347L28.2265 38.3784C28.2202 38.3782 28.214 38.3793 28.2081 38.3816C28.2022 38.3838 28.1969 38.3872 28.1923 38.3916C28.1878 38.396 28.1842 38.4012 28.1818 38.407C28.1793 38.4128 28.178 38.4191 28.178 38.4254ZM16.6343 40.4942L16.5968 43.2418C16.5916 43.5806 16.7333 43.7385 17.0221 43.7156L17.5069 43.6749C17.5297 43.6732 17.5526 43.6765 17.574 43.6846C17.5954 43.6927 17.6148 43.7054 17.6307 43.7218C17.6467 43.7382 17.6589 43.7579 17.6664 43.7796C17.6739 43.8012 17.6766 43.8242 17.6742 43.8469L17.6117 44.4521C17.6081 44.4859 17.5937 44.5175 17.5705 44.5424C17.5474 44.5672 17.5168 44.5838 17.4834 44.5897C15.7085 44.9041 15.524 43.7375 15.5428 42.3035C15.5595 41.0254 15.5741 39.7478 15.5866 38.4707C15.587 38.4405 15.596 38.411 15.6126 38.3858C15.6293 38.3606 15.6528 38.3407 15.6804 38.3284L16.4232 38.0078C16.4473 37.9971 16.4737 37.9928 16.5 37.9952C16.5263 37.9976 16.5515 38.0067 16.5733 38.0216C16.595 38.0364 16.6126 38.0566 16.6244 38.0802C16.6362 38.1038 16.6417 38.13 16.6405 38.1564L16.5983 39.3574C16.5977 39.3783 16.6013 39.3991 16.6089 39.4187C16.6164 39.4382 16.6279 39.456 16.6424 39.471C16.657 39.486 16.6745 39.4979 16.6938 39.5061C16.713 39.5142 16.7338 39.5184 16.7547 39.5184H17.4553C17.4967 39.5184 17.5365 39.5349 17.5658 39.5642C17.5952 39.5936 17.6117 39.6333 17.6117 39.6748V40.183C17.6117 40.2245 17.5952 40.2643 17.5658 40.2936C17.5365 40.3229 17.4967 40.3394 17.4553 40.3394H16.7907C16.7497 40.3394 16.7104 40.3556 16.6812 40.3846C16.652 40.4135 16.6351 40.4529 16.6343 40.4942ZM21.532 41.3637C21.555 41.1395 21.5232 40.929 21.4366 40.7319C21.1004 39.9579 19.901 40.2174 19.4006 40.6475C19.3713 40.6728 19.3336 40.6863 19.2949 40.6854C19.2562 40.6846 19.2192 40.6694 19.1911 40.6428L18.7141 40.1955C18.6987 40.1814 18.6863 40.1643 18.6777 40.1453C18.6691 40.1262 18.6644 40.1056 18.664 40.0847C18.6636 40.0638 18.6674 40.0431 18.6752 40.0237C18.683 40.0043 18.6946 39.9867 18.7094 39.9719C19.017 39.6654 19.3803 39.4767 19.7994 39.4058C20.9644 39.2104 22.5 39.4293 22.55 40.9555C22.5844 42.0085 22.5881 43.0619 22.561 44.1159C22.5601 44.1476 22.5498 44.1783 22.5314 44.204C22.513 44.2296 22.4873 44.2491 22.4578 44.2598C21.3178 44.6632 18.7313 45.2106 18.4358 43.4044C18.2653 42.3535 18.883 41.5967 19.9651 41.5482C20.4322 41.5274 20.9034 41.5128 21.3788 41.5044C21.4173 41.5035 21.4541 41.4887 21.4823 41.4628C21.5105 41.4369 21.5282 41.4016 21.532 41.3637ZM19.6977 43.6061C20.2638 43.7708 20.832 43.7761 21.4022 43.6218C21.435 43.6132 21.464 43.5941 21.4849 43.5672C21.5058 43.5404 21.5174 43.5074 21.5179 43.4732L21.5289 42.5334C21.5293 42.4922 21.5133 42.4525 21.4843 42.4229C21.4553 42.3933 21.4157 42.3763 21.3741 42.3754C21.0572 42.3702 20.7397 42.3692 20.4217 42.3723C19.6664 42.3801 19.2505 42.7085 19.5976 43.5186C19.607 43.5396 19.6208 43.5584 19.6381 43.5735C19.6554 43.5887 19.6757 43.5998 19.6977 43.6061Z" fill="white"/>
<path d="M23.7012 44.4833L23.7121 39.8733C23.7121 39.8409 23.7224 39.8093 23.7415 39.7829C23.7606 39.7565 23.7875 39.7367 23.8185 39.7263C24.519 39.4834 25.2399 39.3749 25.9811 39.401C26.0218 39.4022 26.0604 39.4192 26.0887 39.4484C26.117 39.4776 26.1329 39.5167 26.1328 39.5574V40.2095C26.1329 40.2489 26.118 40.2869 26.091 40.3159C26.0641 40.3448 26.0271 40.3627 25.9874 40.3659L24.8724 40.4487C24.833 40.4511 24.796 40.4685 24.769 40.4973C24.7419 40.526 24.7269 40.5641 24.727 40.6035L24.7254 44.4833C24.725 44.5249 24.7084 44.5646 24.6791 44.5939C24.6498 44.6232 24.6103 44.6396 24.5691 44.6396H23.8575C23.8161 44.6396 23.7763 44.6232 23.747 44.5938C23.7176 44.5645 23.7012 44.5247 23.7012 44.4833ZM31.7077 41.6982C31.7285 41.1154 31.729 40.5264 31.7092 39.9311C31.7084 39.8969 31.7187 39.8634 31.7388 39.8355C31.7588 39.8075 31.7874 39.7868 31.8203 39.7763C32.843 39.4604 34.4521 39.0867 35.2856 39.8498C35.3083 39.8707 35.3367 39.8843 35.3673 39.889C35.3979 39.8938 35.4293 39.8894 35.4576 39.8764C36.7977 39.2571 38.8041 38.9757 38.9417 41.0523C38.9928 41.8196 38.9829 42.9914 38.912 44.5677C38.9103 44.6081 38.8932 44.6463 38.864 44.6743C38.8349 44.7022 38.796 44.7179 38.7556 44.7178H38.0472C38.0265 44.7178 38.0061 44.7137 37.987 44.7058C37.9679 44.6978 37.9506 44.6862 37.9361 44.6715C37.9215 44.6568 37.91 44.6394 37.9023 44.6202C37.8945 44.601 37.8906 44.5805 37.8908 44.5599C37.9044 43.5851 37.9059 42.6135 37.8955 41.645C37.8877 40.885 37.7767 40.3221 36.8837 40.3815C36.5303 40.4044 36.204 40.5055 35.9048 40.6849C35.8815 40.6987 35.8621 40.7184 35.8487 40.742C35.8353 40.7655 35.8282 40.7922 35.8282 40.8193V44.5036C35.8282 44.5247 35.824 44.5455 35.8157 44.5649C35.8075 44.5843 35.7954 44.6018 35.7802 44.6164C35.765 44.631 35.747 44.6424 35.7273 44.6499C35.7076 44.6574 35.6866 44.6608 35.6656 44.66L34.9525 44.6334C34.9113 44.6322 34.8722 44.6147 34.8438 44.5848C34.8154 44.555 34.8 44.5151 34.8008 44.4739C34.8217 43.447 34.8237 42.4243 34.8071 41.4058C34.7867 40.2095 33.689 40.297 32.868 40.4831C32.8336 40.4912 32.803 40.5105 32.7809 40.538C32.7588 40.5654 32.7465 40.5995 32.746 40.6348L32.7226 44.4879C32.7226 44.5294 32.7061 44.5692 32.6768 44.5985C32.6474 44.6278 32.6077 44.6443 32.5662 44.6443L31.8453 44.6381C31.8046 44.6377 31.7657 44.6216 31.7368 44.5933C31.7079 44.565 31.6913 44.5266 31.6905 44.4864C31.6686 43.5544 31.6743 42.625 31.7077 41.6982Z" fill="white"/>
<path d="M30.4191 39.4452L29.4684 39.4386C29.4416 39.4384 29.4198 39.4599 29.4196 39.4867L29.384 44.5845C29.3838 44.6112 29.4054 44.6331 29.4321 44.6333L30.3829 44.6399C30.4097 44.6401 30.4315 44.6186 30.4317 44.5918L30.4673 39.494C30.4675 39.4673 30.4459 39.4454 30.4191 39.4452Z" fill="white"/>
<path d="M41.5662 43.753C42.1531 43.9823 42.6911 43.8854 43.18 43.4621C43.2088 43.4372 43.2459 43.4238 43.2842 43.4243C43.3225 43.4249 43.3594 43.4395 43.388 43.4652L43.8649 43.8984C43.8955 43.9262 43.9139 43.9651 43.9159 44.0064C43.918 44.0477 43.9036 44.0882 43.8759 44.1189C43.6006 44.4264 43.2597 44.6172 42.8532 44.6912C41.685 44.9086 40.1807 44.7272 40.0259 43.2197C39.9988 42.9633 39.9915 42.3023 40.004 41.2369C40.0196 39.7982 41.2315 39.4198 42.4309 39.4464C44.5764 39.4933 44.7657 42.2095 42.9454 42.5301C42.4461 42.6177 41.8795 42.637 41.2456 42.588C41.2065 42.5848 41.1676 42.5968 41.1368 42.6215C41.1061 42.6461 41.0857 42.6817 41.0798 42.7209C41.0486 42.9294 41.0658 43.1296 41.1314 43.3214C41.2003 43.5226 41.3452 43.6664 41.5662 43.753ZM41.0845 41.0961C41.0626 41.2577 41.0564 41.4235 41.0658 41.5934C41.068 41.6314 41.084 41.6673 41.1107 41.6944C41.1375 41.7214 41.1732 41.7378 41.2112 41.7404C41.721 41.7738 42.2282 41.754 42.7327 41.681C42.7653 41.6759 42.7953 41.6611 42.8188 41.6388C44.0995 40.4237 41.2706 39.7701 41.0845 41.0961ZM45.241 40.2126C45.6179 39.6403 46.2903 39.4839 46.969 39.4667C47.5789 39.451 48.1496 39.6095 48.6813 39.9421C48.7012 39.9545 48.718 39.9713 48.7304 39.9912C48.7428 40.0112 48.7506 40.0337 48.7532 40.0571C48.7557 40.0805 48.753 40.1042 48.7451 40.1266C48.7373 40.1489 48.7246 40.1692 48.7079 40.186L48.2435 40.6489C48.2188 40.6735 48.1867 40.6891 48.1521 40.6934C48.1176 40.6976 48.0826 40.6902 48.0527 40.6724C47.5648 40.3768 46.4592 40.1219 46.0855 40.7302C45.7149 41.3338 46.3826 41.5465 46.8611 41.5997C47.8557 41.7091 48.9581 41.742 48.9941 43.0649C49.0201 43.9761 48.5291 44.5307 47.521 44.7288C46.5192 44.9258 45.6221 44.735 44.8298 44.1564C44.8117 44.1432 44.7966 44.1262 44.7855 44.1067C44.7745 44.0871 44.7678 44.0655 44.7659 44.0433C44.764 44.021 44.7669 43.9986 44.7744 43.9777C44.7819 43.9567 44.7938 43.9377 44.8094 43.9219L45.2895 43.4199C45.3165 43.3916 45.3531 43.3744 45.3921 43.3715C45.4311 43.3686 45.4697 43.3803 45.5006 43.4043C46.1699 43.9349 46.9153 44.0219 47.7368 43.6654C47.7673 43.6532 47.7926 43.6312 47.8087 43.6029C48.2732 42.8397 47.6821 42.6099 47.0441 42.5567C46.3716 42.5004 45.5772 42.4879 45.1785 41.8295C44.8574 41.301 44.8782 40.762 45.241 40.2126Z" fill="white"/>
</svg>
