<svg width="72" height="65" viewBox="0 0 72 65" fill="none" xmlns="http://www.w3.org/2000/svg">
<g opacity="0.1" clip-path="url(#clip0_4381_99424)">
<path fill-rule="evenodd" clip-rule="evenodd" d="M79.0563 39.0949L71.4184 30.276C66.0177 24.0401 63.3172 20.9221 59.7021 20.6627C56.3067 20.419 53.3499 22.7864 47.8359 27.5501L78.3867 62.825C83.8891 58.048 86.6543 55.4594 86.898 52.0639C87.1576 48.449 84.457 45.3308 79.0563 39.0949ZM62.8945 33.7994C64.1122 32.7448 65.9542 32.877 67.0088 34.0947C68.0634 35.3124 67.9312 37.1543 66.7135 38.2089C65.4958 39.2635 63.6539 39.1313 62.5993 37.9136C61.5447 36.696 61.6769 34.854 62.8945 33.7994ZM70.5324 42.6184C71.7501 41.5638 73.592 41.696 74.6466 42.9137C75.7012 44.1313 75.569 45.9733 74.3514 47.0279C73.1337 48.0825 71.2918 47.9503 70.2372 46.7326C69.1826 45.5149 69.3147 43.673 70.5324 42.6184Z" fill="#E62929"/>
<path d="M40.9872 23.7883L41.0367 33.4379L44.5284 30.4139L75.0799 65.6897L59.6467 79.0559C53.4108 84.4568 50.2928 87.1571 46.6777 86.8977C43.0628 86.6384 40.3622 83.5202 34.9615 77.2844L27.3236 68.4654C21.9228 62.2295 19.2224 59.1115 19.4819 55.4964C19.7413 51.8814 22.8593 49.181 29.0952 43.7802L34.7916 38.8467L25.2478 37.4198C24.053 37.2411 23.2292 36.1277 23.4079 34.9328C23.5865 33.738 24.6999 32.9142 25.8948 33.0929L36.6681 34.7036L36.6122 23.8108C36.6061 22.6026 37.5804 21.6182 38.7886 21.612C39.9967 21.6058 40.981 22.5802 40.9872 23.7883Z" fill="#E62929"/>
</g>
<defs>
<clipPath id="clip0_4381_99424">
<rect width="70" height="70" fill="white" transform="translate(0 45.8273) rotate(-40.8951)"/>
</clipPath>
</defs>
</svg>
